<svg width="28" height="20" viewBox="0 0 28 20" fill="none" xmlns="http://www.w3.org/2000/svg">
<path fill-rule="evenodd" clip-rule="evenodd" d="M0 2C0 0.89543 0.89543 0 2 0H26C27.1046 0 28 0.89543 28 2C28 3.10457 27.1046 4 26 4H2C0.89543 4 0 3.10457 0 2ZM0 10C0 8.89543 0.89543 8 2 8H26C27.1046 8 28 8.89543 28 10C28 11.1046 27.1046 12 26 12H2C0.89543 12 0 11.1046 0 10ZM2 16C0.89543 16 0 16.8954 0 18C0 19.1046 0.89543 20 2 20H26C27.1046 20 28 19.1046 28 18C28 16.8954 27.1046 16 26 16H2Z" fill="#BF9B69"/>
</svg>
