<svg width="235" height="50" viewBox="0 0 235 50" fill="none" xmlns="http://www.w3.org/2000/svg">
<path d="M48.3631 33.6999C47.8114 32.4506 47.4626 31.9005 47.5079 31.6339L44.5632 25.3789C44.3301 24.9513 44.0769 24.4096 43.7599 23.7305C41.0449 17.9115 38.3534 12.0824 35.6586 6.25501C35.0649 4.97047 35.1035 4.91513 36.5323 4.90842C38.387 4.90004 40.2433 4.90674 42.098 4.90674C45.3245 4.92184 48.5325 4.83799 51.7254 5.65466C59.7127 7.69551 61.5372 16.8751 57.0715 22.2028C55.0206 24.6511 52.3157 25.8132 49.3005 26.3951L51.281 30.881C59.1241 29.1386 65.1829 23.3381 64.5473 14.2524C64.1784 8.96495 61.6177 5.04258 57.0078 2.49362C53.7662 0.700964 50.2128 0.0670778 46.5436 0.0368928C43.8656 0.0150925 41.1858 0.031862 38.5077 0.031862V0.0117386C35.7626 0.0117386 33.0174 0.0218003 30.2705 0.00838473L30.2722 0.00503084H29.6568C29.3667 0.00335389 29.0749 0.00335389 28.7848 0C28.6925 0 28.6104 0 28.5316 0.00503084H11.7889C10.9354 0.00503084 10.6637 1.15709 11.4284 1.53608C12.1797 1.90836 12.9527 2.3058 13.652 2.6697C15.3877 3.57693 17.3279 4.02299 19.2849 3.96095H20.6298C21.4062 5.67646 22.1776 7.39365 22.9641 9.10414C23.2458 9.71623 23.4118 10.2478 23.0882 10.9354C19.1675 19.2463 15.277 27.5707 11.3747 35.8917C9.84367 39.1584 8.3143 42.4267 6.77318 45.6901C6.75641 45.7018 1.05145 49.4632 0 49.594H17.9936C17.9936 49.594 17.1719 48.3346 17.1082 46.0875C18.6694 44.2932 20.3346 42.5944 22.1189 41.0097C24.7165 38.7006 27.5254 36.7251 30.5976 35.1488L28.7395 31.2499C25.9876 32.8195 23.3364 34.5417 20.826 36.4954C17.9148 38.7609 15.5117 41.5195 12.8991 44.1775C17.0059 34.7782 21.4934 25.5416 26.0346 16.0517C26.8982 17.8897 27.6763 19.5012 28.4158 21.1295C28.8804 22.1525 29.3365 23.1804 29.7926 24.2067L31.379 27.7518C31.3958 27.787 31.4109 27.8239 31.4276 27.8591C31.5216 28.0654 31.6004 28.2398 31.6674 28.3974L34.3556 34.4042C34.3942 34.478 34.4327 34.5568 34.473 34.6457C34.904 35.6217 35.3383 36.596 35.7726 37.5703L35.8615 37.7699C37.188 40.7347 38.5329 43.6912 39.8744 46.6476C39.6497 48.5426 38.7307 49.5957 38.7307 49.5957H62.924C61.6043 49.4733 54.8227 46.1831 53.9172 45.7404C52.0306 41.7425 50.1491 37.743 48.3614 33.6999H48.3631ZM45.182 45.9349C44.9036 45.3211 44.6252 44.7074 44.3418 44.0953C43.0673 41.3418 41.7861 38.5899 40.515 35.8347L36.3377 26.7624C36.2774 26.6718 36.222 26.5779 36.1768 26.4773C34.9039 23.6449 33.6144 20.8193 32.3147 17.9987C30.1599 13.32 27.9748 8.6564 25.8468 3.96598H29.3348C31.7127 9.21817 34.0688 14.4788 36.4367 19.7326C36.7285 20.3799 37.0219 21.0239 37.3171 21.6695L39.5457 26.5511C39.5877 26.6266 39.6262 26.7037 39.6514 26.7825L42.3597 32.7139C42.3815 32.7524 42.4049 32.791 42.4234 32.8313C44.3753 37.1628 46.3474 41.486 48.2373 45.846L45.1853 45.9316L45.182 45.9349Z" fill="#BF9B69"/>
<path d="M79.1245 32.6036L84.3163 17.4792H88.9464L94.217 32.6036H89.6105L88.9481 30.2994H84.3633L83.7009 32.6036H79.1245ZM85.237 26.8516H88.0006L86.6188 21.8409L85.237 26.8516Z" fill="#BF9B69"/>
<path d="M96.06 32.6036V17.4792H100.475V28.9629H106.093V32.6036H96.0583H96.06Z" fill="#BF9B69"/>
<path d="M108.446 32.6036V17.4792H112.861V32.6036H108.446Z" fill="#BF9B69"/>
<path d="M116.425 32.6036V17.4792H120.684L126.134 25.7499V17.4792H130.28V32.6036H126.044L120.548 24.2323V32.6036H116.425Z" fill="#BF9B69"/>
<path d="M133.845 32.6036V17.4792H138.104L143.554 25.7499V17.4792H147.7V32.6036H143.464L137.969 24.2323V32.6036H133.845Z" fill="#BF9B69"/>
<path d="M151.263 32.6036V17.4792H161.982V21.1198H155.679V23.2328H161.253V26.7393H155.679V28.9646H161.982V32.6052H151.263V32.6036Z" fill="#BF9B69"/>
<path d="M170.459 32.6036V17.4792H176.932C177.989 17.4792 178.967 17.6519 179.865 17.9957C180.764 18.3411 181.485 18.8895 182.029 19.6425C182.572 20.3954 182.844 21.3865 182.844 22.614C182.844 23.8415 182.572 24.8762 182.029 25.6476C181.485 26.419 180.764 26.9808 179.865 27.3329C178.967 27.6851 177.989 27.8612 176.932 27.8612H174.876V32.6036H170.461H170.459ZM174.876 24.3899H176.517C177.048 24.3899 177.479 24.2356 177.809 23.9287C178.14 23.6218 178.304 23.1842 178.304 22.614C178.304 22.074 178.13 21.6716 177.781 21.4066C177.432 21.1416 177.011 21.0075 176.517 21.0075H174.876V24.3899Z" fill="#BF9B69"/>
<path d="M185.418 32.6036V17.4792H189.833V32.6036H185.418Z" fill="#BF9B69"/>
<path d="M193.398 32.6036V17.4792H199.984C201.101 17.4792 202.087 17.6117 202.945 17.8783C203.804 18.1449 204.475 18.591 204.963 19.2215C205.451 19.8521 205.694 20.7123 205.694 21.8057C205.694 22.7565 205.424 23.5648 204.885 24.2272C204.345 24.8896 203.592 25.391 202.627 25.7281C203.376 25.8404 203.948 26.045 204.345 26.3402C204.743 26.637 205.05 27.0311 205.266 27.5258C205.484 28.0205 205.694 28.6158 205.895 29.3117L206.884 32.6036H202.378L201.783 30.2776C201.589 29.5431 201.399 28.9747 201.216 28.5688C201.033 28.1647 200.785 27.883 200.475 27.727C200.165 27.5711 199.724 27.4906 199.155 27.4906H197.819V32.6036H193.403H193.398ZM197.814 24.0193H199.286C199.69 24.0193 200.027 23.9539 200.297 23.8231C200.567 23.6923 200.769 23.5061 200.904 23.2663C201.039 23.0265 201.107 22.7414 201.107 22.4128C201.107 21.8812 200.958 21.5072 200.658 21.2892C200.358 21.0712 200.032 20.9639 199.68 20.9639H197.815V24.021L197.814 24.0193Z" fill="#BF9B69"/>
<path d="M208.952 32.6036V17.4792H219.671V21.1198H213.367V23.2328H218.942V26.7393H213.367V28.9646H219.671V32.6052H208.952V32.6036Z" fill="#BF9B69"/>
<path d="M228.54 32.8065C227.326 32.8065 226.236 32.6405 225.27 32.3068C224.304 31.973 223.538 31.4414 222.973 30.7103C222.408 29.9791 222.113 29.0149 222.091 27.8176H226.654C226.684 28.1848 226.773 28.4766 226.924 28.6946C227.073 28.9126 227.288 29.0686 227.564 29.1658C227.841 29.2631 228.183 29.3117 228.587 29.3117C228.991 29.3117 229.349 29.2765 229.615 29.2044C229.88 29.134 230.08 29.0266 230.211 28.8841C230.341 28.7416 230.407 28.5688 230.407 28.3676C230.407 28.1664 230.34 27.9735 230.204 27.8176C230.07 27.6599 229.801 27.4939 229.401 27.3178C229 27.1418 228.391 26.9271 227.574 26.6722C226.637 26.372 225.773 26.04 224.979 25.6728C224.184 25.3055 223.548 24.8158 223.069 24.2004C222.589 23.5866 222.349 22.7666 222.349 21.7386C222.349 20.6218 222.626 19.7431 223.181 19.0974C223.736 18.4535 224.475 17.9923 225.399 17.7156C226.325 17.4389 227.341 17.2998 228.45 17.2998C229.558 17.2998 230.621 17.4574 231.551 17.771C232.48 18.0863 233.219 18.5793 233.769 19.2534C234.319 19.9275 234.594 20.8046 234.594 21.8829H230.033C230.033 21.4854 229.89 21.1819 229.605 20.9723C229.32 20.7627 228.934 20.657 228.448 20.657C228.014 20.657 227.652 20.7241 227.363 20.8599C227.075 20.9958 226.931 21.1819 226.931 21.4217C226.931 21.5793 226.998 21.7269 227.133 21.8661C227.268 22.0053 227.556 22.1646 227.999 22.344C228.44 22.5235 229.119 22.7599 230.033 23.0517C231.156 23.4038 232.085 23.7761 232.82 24.1702C233.554 24.5643 234.101 25.0657 234.46 25.6761C234.821 26.2865 235 27.1015 235 28.1194C235 29.2732 234.708 30.1921 234.123 30.878C233.539 31.5639 232.758 32.0552 231.78 32.3554C230.803 32.6556 229.723 32.8048 228.539 32.8048L228.54 32.8065Z" fill="#BF9B69"/>
<path d="M82.1078 43.9347C81.489 43.9347 80.9574 43.8056 80.5113 43.5457C80.0653 43.2874 79.7232 42.9235 79.4834 42.454C79.2436 41.9861 79.1245 41.4327 79.1245 40.7971C79.1245 40.1616 79.2436 39.6065 79.4834 39.1353C79.7232 38.6641 80.0653 38.2985 80.5113 38.0402C80.9574 37.7803 81.489 37.6512 82.1078 37.6512C82.5874 37.6512 83.0284 37.7334 83.4309 37.8994C83.8334 38.0654 84.1621 38.3085 84.4136 38.6322C84.6651 38.9542 84.8027 39.3533 84.8278 39.8262H83.5181C83.4846 39.578 83.4041 39.3717 83.275 39.2074C83.1458 39.0431 82.9815 38.9206 82.7819 38.8385C82.5824 38.7563 82.3577 38.716 82.1095 38.716C81.7087 38.716 81.3867 38.8133 81.1436 39.0078C80.8987 39.2024 80.7226 39.4556 80.612 39.7692C80.5013 40.0828 80.4459 40.4265 80.4459 40.7988C80.4459 41.1711 80.5013 41.5115 80.612 41.8268C80.7226 42.142 80.9004 42.3953 81.1436 42.5864C81.3867 42.7776 81.7104 42.8732 82.1095 42.8732C82.5304 42.8732 82.8641 42.7642 83.1073 42.5479C83.3504 42.3315 83.4913 42.023 83.5282 41.6222H84.8379C84.801 42.1219 84.6702 42.5445 84.4421 42.8883C84.214 43.2321 83.9038 43.4937 83.5097 43.6697C83.1156 43.8458 82.6495 43.9364 82.1095 43.9364L82.1078 43.9347Z" fill="#171B26"/>
<path d="M89.7765 43.9246C89.327 43.9246 88.9346 43.8358 88.5959 43.6563C88.2572 43.4769 87.9972 43.2186 87.8111 42.8782C87.6266 42.5395 87.5344 42.1286 87.5344 41.6457C87.5344 41.1627 87.6266 40.7368 87.8111 40.393C87.9956 40.0492 88.2572 39.7876 88.5959 39.6065C88.9346 39.4254 89.327 39.3365 89.7765 39.3365C90.2259 39.3365 90.6267 39.4271 90.9654 39.6065C91.3025 39.7876 91.5658 40.0492 91.7536 40.393C91.9414 40.7368 92.0353 41.1543 92.0353 41.6457C92.0353 42.137 91.9414 42.5378 91.7536 42.8782C91.5658 43.2186 91.3025 43.4769 90.9654 43.6563C90.6267 43.8358 90.2309 43.9246 89.7765 43.9246ZM89.7765 43.0074C90.0398 43.0074 90.2477 42.9453 90.3969 42.8229C90.5462 42.7005 90.6535 42.5361 90.7156 42.3299C90.7776 42.1236 90.8095 41.8972 90.8095 41.6474C90.8095 41.3975 90.7776 41.161 90.7156 40.9514C90.6535 40.7418 90.5479 40.5758 90.3969 40.4517C90.2477 40.3276 90.0398 40.2655 89.7765 40.2655C89.5132 40.2655 89.317 40.3276 89.1694 40.4517C89.0218 40.5758 88.9179 40.7435 88.8575 40.9514C88.7971 41.161 88.7669 41.3925 88.7669 41.6474C88.7669 41.9022 88.7971 42.1236 88.8575 42.3299C88.9179 42.5361 89.0218 42.7005 89.1694 42.8229C89.317 42.9453 89.5182 43.0074 89.7765 43.0074Z" fill="#171B26"/>
<path d="M94.9616 43.8525V39.4153H96.1204L96.1439 40.0794C96.2914 39.8882 96.4876 39.7189 96.7308 39.573C96.9739 39.4254 97.2892 39.3533 97.6766 39.3533C98.1277 39.3533 98.4782 39.4908 98.7264 39.7641C98.9745 40.0392 99.0986 40.44 99.0986 40.9665V43.8542H97.903V41.1225C97.903 40.9615 97.8795 40.8206 97.8342 40.6999C97.7889 40.5791 97.7168 40.4852 97.6179 40.4181C97.519 40.3511 97.3898 40.3175 97.2288 40.3175C96.989 40.3175 96.7844 40.3729 96.6134 40.4852C96.4424 40.5976 96.2931 40.7334 96.1657 40.8944V43.8542H94.9616V43.8525Z" fill="#171B26"/>
<path d="M103.999 43.9347C103.754 43.9347 103.512 43.9112 103.276 43.8659C103.039 43.8207 102.826 43.7418 102.635 43.6312C102.444 43.5205 102.293 43.3696 102.181 43.1784C102.068 42.9872 102.013 42.7491 102.013 42.464H103.132C103.132 42.7122 103.219 42.8849 103.393 42.9822C103.568 43.0795 103.771 43.1281 104.005 43.1281C104.24 43.1281 104.415 43.0912 104.542 43.0174C104.669 42.9436 104.733 42.8179 104.733 42.6418C104.733 42.4657 104.658 42.35 104.508 42.2695C104.359 42.1873 104.096 42.1035 103.72 42.0196C103.405 41.9442 103.123 41.8519 102.877 41.7446C102.63 41.6373 102.436 41.4931 102.297 41.312C102.157 41.1309 102.087 40.8944 102.087 40.6009C102.087 40.3712 102.141 40.175 102.246 40.014C102.352 39.853 102.494 39.7239 102.672 39.625C102.85 39.526 103.05 39.4539 103.273 39.4086C103.496 39.3633 103.724 39.3399 103.957 39.3399C104.19 39.3399 104.406 39.3633 104.626 39.4086C104.846 39.4539 105.042 39.531 105.216 39.6384C105.392 39.7457 105.533 39.8916 105.639 40.0727C105.744 40.2538 105.798 40.4819 105.798 40.7552H104.679C104.679 40.5271 104.607 40.3695 104.463 40.2823C104.319 40.1951 104.15 40.1498 103.957 40.1498C103.747 40.1498 103.583 40.18 103.464 40.2404C103.345 40.3008 103.284 40.4014 103.284 40.5406C103.284 40.6227 103.323 40.6948 103.398 40.7569C103.474 40.8189 103.595 40.8759 103.762 40.9296C103.928 40.9833 104.148 41.0403 104.421 41.1007C104.71 41.1677 104.966 41.2533 105.194 41.3606C105.422 41.4679 105.602 41.6088 105.736 41.7882C105.87 41.9676 105.936 42.1991 105.936 42.4841C105.936 42.7508 105.882 42.9772 105.775 43.1616C105.667 43.3461 105.523 43.4953 105.342 43.6094C105.161 43.7234 104.956 43.8056 104.723 43.8576C104.492 43.9095 104.25 43.9347 104.002 43.9347H103.999Z" fill="#171B26"/>
<path d="M110.172 43.9112C109.722 43.9112 109.377 43.772 109.13 43.4953C108.885 43.2186 108.761 42.8229 108.761 42.3114V39.4153H109.965V42.1655C109.965 42.3164 109.987 42.4506 110.031 42.568C110.074 42.6854 110.148 42.7743 110.249 42.838C110.351 42.9017 110.485 42.9336 110.651 42.9336C110.894 42.9336 111.101 42.8799 111.272 42.7726C111.443 42.6652 111.592 42.5344 111.719 42.3785V39.4137H112.923V43.8508H111.76L111.741 43.1817C111.592 43.3696 111.389 43.5373 111.132 43.6865C110.874 43.8358 110.554 43.9095 110.168 43.9095L110.172 43.9112Z" fill="#171B26"/>
<path d="M117.743 43.8525C117.292 43.8525 116.943 43.7989 116.697 43.6916C116.452 43.5842 116.279 43.4165 116.183 43.1918C116.086 42.9654 116.037 42.672 116.037 42.3081V37.7334H117.238V42.2343C117.238 42.4674 117.27 42.6384 117.334 42.7474C117.397 42.8564 117.545 42.9118 117.78 42.9118H118.057V43.8525H117.743Z" fill="#171B26"/>
<path d="M122.547 43.8525C122.098 43.8525 121.751 43.7989 121.504 43.6915C121.258 43.5842 121.085 43.4165 120.988 43.1918C120.891 42.9654 120.842 42.672 120.842 42.3081V40.3444H120.106V39.417H120.842V38.3706H122.046V39.417H123.014V40.3444H122.046V42.236C122.046 42.4691 122.078 42.6418 122.143 42.7541C122.209 42.8665 122.356 42.9218 122.586 42.9218H123.014V43.8542H122.546L122.547 43.8525Z" fill="#171B26"/>
<path d="M127.793 43.9246C127.343 43.9246 126.951 43.8358 126.612 43.6563C126.274 43.4769 126.014 43.2186 125.827 42.8782C125.641 42.5378 125.551 42.1286 125.551 41.6457C125.551 41.1627 125.643 40.7368 125.827 40.393C126.012 40.0492 126.274 39.7876 126.612 39.6065C126.951 39.4254 127.343 39.3365 127.793 39.3365C128.242 39.3365 128.643 39.4271 128.982 39.6065C129.319 39.7876 129.582 40.0492 129.77 40.393C129.958 40.7368 130.052 41.1543 130.052 41.6457C130.052 42.137 129.958 42.5378 129.77 42.8782C129.582 43.217 129.319 43.4769 128.982 43.6563C128.643 43.8358 128.247 43.9246 127.793 43.9246ZM127.793 43.0074C128.056 43.0074 128.264 42.9453 128.413 42.8229C128.563 42.7005 128.67 42.5361 128.732 42.3299C128.794 42.1236 128.826 41.8972 128.826 41.6474C128.826 41.3975 128.794 41.161 128.732 40.9514C128.67 40.7418 128.564 40.5758 128.413 40.4517C128.264 40.3276 128.056 40.2655 127.793 40.2655C127.53 40.2655 127.333 40.3276 127.186 40.4517C127.038 40.5758 126.934 40.7435 126.874 40.9514C126.814 41.161 126.783 41.3925 126.783 41.6474C126.783 41.9022 126.814 42.1236 126.874 42.3299C126.934 42.5361 127.038 42.7005 127.186 42.8229C127.333 42.9453 127.535 43.0074 127.793 43.0074Z" fill="#171B26"/>
<path d="M132.978 43.8525V39.4153H134.133L134.157 40.1834C134.273 39.9167 134.445 39.7122 134.675 39.5696C134.905 39.4271 135.185 39.3566 135.512 39.3566H135.602V40.3712H135.488C135.309 40.3712 135.138 40.3863 134.975 40.4181C134.813 40.45 134.663 40.5037 134.529 40.5825C134.395 40.6596 134.281 40.767 134.184 40.9028V43.8542H132.98L132.978 43.8525Z" fill="#171B26"/>
<path d="M138.882 38.8334C138.661 38.8334 138.492 38.7781 138.376 38.6657C138.259 38.5534 138.202 38.4142 138.202 38.2482C138.202 38.0822 138.26 37.9379 138.376 37.8273C138.493 37.7166 138.661 37.6612 138.882 37.6612C139.104 37.6612 139.273 37.7166 139.389 37.8273C139.506 37.9379 139.563 38.0788 139.563 38.2482C139.563 38.4175 139.505 38.5551 139.389 38.6657C139.272 38.7781 139.104 38.8334 138.882 38.8334ZM138.277 43.8525V39.4153H139.481V43.8525H138.277Z" fill="#171B26"/>
<path d="M143.799 43.9297C143.548 43.9297 143.313 43.881 143.095 43.7838C142.877 43.6865 142.701 43.5406 142.565 43.3444C142.431 43.1482 142.362 42.9034 142.362 42.6099C142.362 42.2007 142.485 41.8922 142.731 41.6842C142.976 41.4763 143.32 41.3354 143.761 41.2617C144.202 41.1879 144.715 41.1443 145.3 41.1325V40.8961C145.3 40.6076 145.231 40.4114 145.094 40.3058C144.956 40.2001 144.779 40.1465 144.559 40.1465C144.319 40.1465 144.123 40.2035 143.969 40.3175C143.814 40.4316 143.737 40.616 143.737 40.8692H142.61C142.61 40.4903 142.693 40.1901 142.859 39.9687C143.023 39.7474 143.253 39.5881 143.544 39.4908C143.836 39.3935 144.175 39.3449 144.561 39.3449C144.842 39.3449 145.101 39.3684 145.334 39.4153C145.567 39.4623 145.77 39.5428 145.941 39.6585C146.112 39.7742 146.244 39.9302 146.338 40.1297C146.432 40.3276 146.479 40.5758 146.479 40.8726V43.8509H145.352L145.315 43.274C145.127 43.4886 144.909 43.6513 144.661 43.7637C144.413 43.8743 144.126 43.9297 143.803 43.9297H143.799ZM144.195 43.1029C144.423 43.1029 144.633 43.0442 144.824 42.9252C145.017 42.8078 145.171 42.672 145.285 42.521V41.8033C144.648 41.8067 144.203 41.867 143.949 41.9827C143.694 42.0985 143.566 42.2879 143.566 42.5495C143.566 42.7374 143.625 42.8766 143.741 42.9671C143.858 43.0577 144.007 43.1029 144.193 43.1029H144.195Z" fill="#171B26"/>
<path d="M153.43 43.8525V37.7334H154.899L156.817 40.9984H156.308L158.199 37.7334H159.613V43.8525H158.354V38.4142H158.914L156.913 41.8972H156.127L154.076 38.4142H154.652V43.8525H153.43Z" fill="#171B26"/>
<path d="M164.89 43.9347C164.396 43.9347 163.981 43.8425 163.644 43.6597C163.307 43.4769 163.054 43.2119 162.881 42.8665C162.709 42.521 162.621 42.1051 162.621 41.6205C162.621 41.1359 162.705 40.7468 162.875 40.4064C163.042 40.0677 163.29 39.8061 163.616 39.6216C163.941 39.4371 164.342 39.3466 164.818 39.3466C165.479 39.3466 166 39.5394 166.384 39.9268C166.768 40.3142 166.96 40.8642 166.96 41.5803C166.96 41.6172 166.958 41.6658 166.955 41.7278C166.951 41.7899 166.946 41.8368 166.941 41.8704H163.827C163.834 42.08 163.872 42.2745 163.943 42.4573C164.013 42.6401 164.127 42.786 164.282 42.8967C164.436 43.0074 164.639 43.0627 164.89 43.0627C165.142 43.0627 165.36 43.0057 165.517 42.8916C165.675 42.7776 165.756 42.6082 165.759 42.3852H166.946C166.931 42.7306 166.836 43.0191 166.661 43.2488C166.487 43.4786 166.249 43.6513 165.947 43.7653C165.645 43.8794 165.293 43.9364 164.89 43.9364V43.9347ZM163.84 41.1057H165.764C165.756 40.7971 165.663 40.5657 165.489 40.4131C165.315 40.2605 165.091 40.1834 164.818 40.1834C164.545 40.1834 164.312 40.2622 164.134 40.4198C163.956 40.5775 163.859 40.8055 163.84 41.1057ZM164.176 38.8234L165.071 37.569H166.371L165.066 38.8234H164.176Z" fill="#171B26"/>
<path d="M171.417 43.9297C171.083 43.9297 170.785 43.8458 170.52 43.6798C170.255 43.5138 170.045 43.2572 169.893 42.9134C169.74 42.5697 169.663 42.132 169.663 41.6021C169.663 41.0722 169.745 40.6663 169.911 40.3343C170.077 40.0006 170.3 39.7524 170.582 39.5881C170.864 39.4237 171.18 39.3432 171.533 39.3432C171.841 39.3432 172.108 39.4069 172.329 39.5344C172.551 39.6618 172.727 39.8279 172.856 40.0341V37.7334H174.06V43.8525H172.904L172.854 43.2203C172.696 43.4383 172.5 43.6111 172.267 43.7385C172.034 43.8659 171.751 43.9297 171.417 43.9297ZM171.771 43.0107C172.026 43.0107 172.245 42.9403 172.43 42.7977C172.614 42.6552 172.755 42.4892 172.852 42.298V41.0017C172.758 40.8022 172.626 40.6278 172.457 40.4785C172.287 40.3293 172.078 40.2555 171.829 40.2555C171.533 40.2555 171.301 40.3712 171.139 40.6009C170.974 40.8307 170.894 41.1644 170.894 41.6021C170.894 42.0817 170.971 42.4355 171.128 42.6653C171.284 42.895 171.499 43.0107 171.772 43.0107H171.771Z" fill="#171B26"/>
<path d="M177.813 38.8334C177.591 38.8334 177.422 38.7781 177.306 38.6657C177.189 38.5534 177.132 38.4142 177.132 38.2482C177.132 38.0822 177.191 37.9379 177.306 37.8273C177.424 37.7166 177.591 37.6612 177.813 37.6612C178.034 37.6612 178.204 37.7166 178.319 37.8273C178.437 37.9379 178.494 38.0788 178.494 38.2482C178.494 38.4175 178.435 38.5551 178.319 38.6657C178.202 38.7781 178.034 38.8334 177.813 38.8334ZM177.207 43.8525V39.4153H178.411V43.8525H177.207Z" fill="#171B26"/>
<path d="M183.556 43.9163C183.144 43.9163 182.77 43.8374 182.433 43.6798C182.096 43.5222 181.829 43.2773 181.633 42.9436C181.437 42.6099 181.338 42.1789 181.338 41.6524C181.338 41.1258 181.432 40.6915 181.619 40.3527C181.807 40.014 182.069 39.7608 182.404 39.5964C182.74 39.4321 183.124 39.3483 183.556 39.3483C183.932 39.3483 184.272 39.4103 184.574 39.5344C184.878 39.6585 185.118 39.8446 185.297 40.0911C185.476 40.3376 185.567 40.6496 185.57 41.0252H184.401C184.395 40.7971 184.319 40.6177 184.175 40.4819C184.029 40.3477 183.825 40.279 183.561 40.279C183.213 40.279 182.961 40.398 182.805 40.6378C182.649 40.8776 182.57 41.2147 182.57 41.6524C182.57 41.9341 182.604 42.1739 182.673 42.3735C182.741 42.5713 182.849 42.7239 182.995 42.8279C183.14 42.9319 183.33 42.9855 183.561 42.9855C183.831 42.9855 184.044 42.9118 184.2 42.7659C184.356 42.6183 184.437 42.4104 184.443 42.1404H185.612C185.604 42.5261 185.51 42.8497 185.332 43.113C185.154 43.3763 184.913 43.5775 184.608 43.7133C184.301 43.8492 183.952 43.9179 183.558 43.9179L183.556 43.9163Z" fill="#171B26"/>
<path d="M190.553 43.9246C190.103 43.9246 189.711 43.8358 189.372 43.6563C189.033 43.4769 188.773 43.2186 188.587 42.8782C188.403 42.5395 188.31 42.1286 188.31 41.6457C188.31 41.1627 188.403 40.7368 188.587 40.393C188.772 40.0492 189.033 39.7876 189.372 39.6065C189.711 39.4254 190.103 39.3365 190.553 39.3365C191.002 39.3365 191.403 39.4271 191.742 39.6065C192.079 39.7876 192.342 40.0492 192.53 40.393C192.718 40.7368 192.811 41.1543 192.811 41.6457C192.811 42.137 192.718 42.5378 192.53 42.8782C192.342 43.217 192.079 43.4769 191.742 43.6563C191.403 43.8358 191.007 43.9246 190.553 43.9246ZM190.553 43.0074C190.816 43.0074 191.024 42.9453 191.173 42.8229C191.322 42.7005 191.43 42.5361 191.492 42.3299C191.554 42.1236 191.586 41.8972 191.586 41.6474C191.586 41.3975 191.554 41.161 191.492 40.9514C191.43 40.7418 191.324 40.5758 191.173 40.4517C191.024 40.3276 190.816 40.2655 190.553 40.2655C190.289 40.2655 190.093 40.3276 189.946 40.4517C189.798 40.5758 189.694 40.7435 189.634 40.9514C189.573 41.161 189.543 41.3925 189.543 41.6474C189.543 41.9022 189.573 42.1236 189.634 42.3299C189.694 42.5361 189.798 42.7005 189.946 42.8229C190.093 42.9453 190.294 43.0074 190.553 43.0074Z" fill="#171B26"/>
<path d="M199.578 43.8525V37.7334H200.856V42.7307H203.438V43.8542H199.578V43.8525Z" fill="#171B26"/>
<path d="M208.224 43.9347C207.73 43.9347 207.315 43.8425 206.978 43.6597C206.641 43.4769 206.388 43.2119 206.215 42.8665C206.043 42.521 205.955 42.1051 205.955 41.6205C205.955 41.1359 206.039 40.7468 206.207 40.4064C206.375 40.0677 206.623 39.8061 206.948 39.6216C207.273 39.4388 207.674 39.3466 208.15 39.3466C208.811 39.3466 209.333 39.5394 209.717 39.9268C210.101 40.3142 210.292 40.8642 210.292 41.5803C210.292 41.6172 210.292 41.6658 210.287 41.7278C210.282 41.7899 210.28 41.8368 210.273 41.8704H207.159C207.166 42.08 207.205 42.2745 207.275 42.4573C207.346 42.6401 207.46 42.786 207.614 42.8967C207.768 43.0074 207.971 43.0627 208.223 43.0627C208.474 43.0627 208.692 43.0057 208.85 42.8916C209.007 42.7776 209.088 42.6082 209.091 42.3852H210.278C210.263 42.7306 210.168 43.0191 209.995 43.2488C209.821 43.4786 209.583 43.6513 209.281 43.7653C208.979 43.8794 208.627 43.9364 208.224 43.9364V43.9347ZM207.173 41.1057H209.096C209.088 40.7971 208.996 40.5657 208.821 40.4131C208.647 40.2605 208.424 40.1834 208.15 40.1834C207.877 40.1834 207.644 40.2622 207.466 40.4198C207.288 40.5775 207.191 40.8055 207.173 41.1057Z" fill="#171B26"/>
<path d="M214.955 45.5664C214.426 45.5664 214.003 45.5127 213.691 45.402C213.379 45.293 213.154 45.1505 213.019 44.9727C212.883 44.795 212.814 44.6038 212.814 44.3975C212.814 44.146 212.933 43.9246 213.173 43.7368C213.413 43.549 213.792 43.4148 214.31 43.3394L214.509 42.9118H215.11C215.846 42.9118 216.384 43.0141 216.721 43.217C217.058 43.4199 217.228 43.7301 217.228 44.1494C217.228 44.5686 217.033 44.9157 216.646 45.1773C216.258 45.4372 215.693 45.5681 214.954 45.5681L214.955 45.5664ZM214.328 43.7519C214.01 43.715 213.753 43.6513 213.555 43.5591C213.357 43.4668 213.215 43.3595 213.123 43.2388C213.032 43.118 212.987 42.9973 212.987 42.8799C212.987 42.6954 213.057 42.5378 213.198 42.4087C213.339 42.2796 213.552 42.1672 213.837 42.0699L214.464 42.298C214.3 42.3366 214.164 42.3852 214.055 42.4405C213.946 42.4976 213.891 42.5663 213.891 42.6468C213.891 42.7038 213.922 42.7525 213.988 42.7927C214.053 42.8313 214.167 42.8615 214.328 42.8816C214.489 42.9017 214.714 42.9118 214.999 42.9118L214.327 43.7536L214.328 43.7519ZM214.873 42.4389C214.473 42.4389 214.132 42.3684 213.85 42.2259C213.569 42.0834 213.354 41.8955 213.21 41.6624C213.064 41.4293 212.992 41.1778 212.992 40.9078C212.992 40.6194 213.066 40.3595 213.213 40.128C213.361 39.8966 213.575 39.7105 213.86 39.5713C214.146 39.4321 214.493 39.3617 214.902 39.3617C215.311 39.3617 215.673 39.4321 215.95 39.5713C216.227 39.7105 216.435 39.8966 216.572 40.128C216.71 40.3595 216.778 40.6194 216.778 40.9078C216.778 41.1962 216.708 41.4377 216.567 41.6708C216.426 41.9039 216.215 42.0901 215.935 42.2309C215.655 42.3701 215.301 42.4405 214.873 42.4405V42.4389ZM214.937 44.8117C215.343 44.8117 215.63 44.7581 215.796 44.6524C215.962 44.5468 216.046 44.4177 216.046 44.2651C216.046 44.1678 216.017 44.0856 215.96 44.0202C215.903 43.9531 215.807 43.9028 215.673 43.8659C215.539 43.8291 215.363 43.8123 215.142 43.8123H214.332C214.214 43.8576 214.117 43.9213 214.043 44.0051C213.969 44.089 213.933 44.1846 213.933 44.2936C213.933 44.421 214.011 44.5384 214.169 44.6474C214.327 44.7564 214.583 44.8117 214.937 44.8117ZM214.873 41.7161C215.098 41.7161 215.284 41.6473 215.435 41.5098C215.586 41.3723 215.66 41.1711 215.66 40.9078C215.66 40.6294 215.589 40.4215 215.45 40.2857C215.311 40.1498 215.128 40.0811 214.905 40.0811C214.682 40.0811 214.489 40.1515 214.342 40.2924C214.192 40.4332 214.119 40.6395 214.119 40.9078C214.119 41.1761 214.196 41.3757 214.348 41.5132C214.501 41.649 214.677 41.7178 214.873 41.7178V41.7161ZM216.141 40.0325L215.786 39.583C215.903 39.2678 216.086 39.0531 216.334 38.9374C216.58 38.8217 216.879 38.763 217.228 38.7596V39.6367C216.991 39.6367 216.775 39.6585 216.58 39.7021C216.386 39.7457 216.238 39.8564 216.141 40.0325Z" fill="#171B26"/>
<path d="M220.927 43.9297C220.676 43.9297 220.441 43.881 220.223 43.7838C220.005 43.6865 219.829 43.5406 219.693 43.3444C219.559 43.1482 219.49 42.9034 219.49 42.6099C219.49 42.2007 219.612 41.8922 219.859 41.6842C220.104 41.4763 220.447 41.3354 220.889 41.2617C221.33 41.1879 221.843 41.1443 222.428 41.1325V40.8961C222.428 40.6076 222.359 40.4114 222.222 40.3058C222.084 40.2001 221.906 40.1465 221.687 40.1465C221.447 40.1465 221.251 40.2035 221.096 40.3175C220.942 40.4316 220.865 40.616 220.865 40.8692H219.738C219.738 40.4903 219.82 40.1901 219.986 39.9687C220.152 39.7474 220.38 39.5881 220.672 39.4908C220.964 39.3935 221.303 39.3449 221.688 39.3449C221.97 39.3449 222.228 39.3684 222.461 39.4153C222.695 39.4623 222.897 39.5428 223.069 39.6585C223.24 39.7742 223.372 39.9302 223.466 40.1297C223.56 40.3276 223.607 40.5758 223.607 40.8726V43.8509H222.48L222.443 43.274C222.255 43.4886 222.037 43.6513 221.789 43.7637C221.541 43.8743 221.254 43.9297 220.929 43.9297H220.927ZM221.323 43.1029C221.551 43.1029 221.761 43.0442 221.952 42.9252C222.143 42.8061 222.299 42.672 222.413 42.521V41.8033C221.776 41.8067 221.331 41.867 221.076 41.9827C220.821 42.0985 220.694 42.2879 220.694 42.5495C220.694 42.7374 220.753 42.8766 220.868 42.9671C220.984 43.0577 221.135 43.1029 221.321 43.1029H221.323Z" fill="#171B26"/>
<path d="M228.381 43.8525C227.93 43.8525 227.581 43.7989 227.335 43.6916C227.09 43.5842 226.917 43.4165 226.822 43.1918C226.724 42.9654 226.676 42.672 226.676 42.3081V37.7334H227.876V42.2343C227.876 42.4674 227.908 42.6384 227.972 42.7474C228.036 42.8564 228.185 42.9118 228.418 42.9118H228.695V43.8525H228.381Z" fill="#171B26"/>
<path d="M79.1245 13.2885V4.36884H82.5773C83.5366 4.36884 84.3583 4.54492 85.0425 4.89875C85.7266 5.25259 86.2515 5.75903 86.6154 6.41975C86.9793 7.08046 87.1621 7.87366 87.1621 8.80269C87.1621 9.73171 86.9793 10.587 86.6121 11.2544C86.2448 11.9218 85.7183 12.4266 85.0324 12.772C84.3448 13.1158 83.5265 13.2885 82.5773 13.2885H79.1245ZM81.2526 11.5126H82.3996C82.9731 11.5126 83.4527 11.4137 83.8351 11.2141C84.2174 11.0146 84.5025 10.7144 84.6903 10.3136C84.8781 9.91115 84.972 9.40303 84.972 8.78927C84.972 8.21576 84.8681 7.73112 84.6601 7.33704C84.4522 6.94463 84.1553 6.64613 83.7697 6.44658C83.384 6.24702 82.9261 6.14472 82.4013 6.14472H81.2542V11.5126H81.2526Z" fill="#171B26"/>
<path d="M89.0336 13.2885V6.81383H90.9822L91.009 7.94073C91.1683 7.53491 91.4182 7.22971 91.7586 7.03015C92.099 6.82892 92.5032 6.72831 92.971 6.72831H93.0968V8.39183H92.9308C92.6927 8.39183 92.4545 8.40693 92.2181 8.43879C91.9816 8.46897 91.7636 8.53438 91.5658 8.63499C91.3679 8.73561 91.1968 8.88318 91.056 9.08274V13.2902H89.0352L89.0336 13.2885Z" fill="#171B26"/>
<path d="M95.9728 13.3942C95.6055 13.3942 95.2601 13.3237 94.9364 13.1812C94.6111 13.0403 94.3495 12.8257 94.1516 12.5389C93.9521 12.2522 93.8531 11.8899 93.8531 11.4523C93.8531 10.8519 94.0292 10.3991 94.383 10.0939C94.7369 9.78874 95.2316 9.58247 95.8671 9.47347C96.5027 9.36447 97.2406 9.30075 98.0807 9.27895V8.97374C98.0807 8.61152 97.9952 8.36334 97.8225 8.2275C97.6497 8.09335 97.425 8.02627 97.1466 8.02627C96.8381 8.02627 96.5865 8.0967 96.3954 8.23756C96.2025 8.37843 96.1069 8.61152 96.1069 8.9335H94.2321C94.2321 8.37675 94.3545 7.93739 94.5994 7.61542C94.8442 7.29344 95.1863 7.0637 95.624 6.92619C96.0617 6.78868 96.5698 6.71992 97.1483 6.71992C97.5894 6.71992 97.9885 6.75514 98.344 6.82557C98.6995 6.89601 99.0047 7.01674 99.2579 7.18612C99.5111 7.35549 99.7057 7.58523 99.8415 7.87199C99.9756 8.15875 100.044 8.51426 100.044 8.93853V13.2852H98.1629L98.0975 12.497C97.8375 12.8056 97.5307 13.0319 97.1802 13.1762C96.8297 13.3204 96.4289 13.3908 95.9778 13.3908L95.9728 13.3942ZM96.662 12.0493C96.9454 12.0493 97.2137 11.9704 97.4669 11.8111C97.7202 11.6518 97.9164 11.4825 98.0539 11.3013V10.3606C97.2271 10.3606 96.657 10.4377 96.3417 10.592C96.0264 10.7463 95.8671 10.9961 95.8671 11.3416C95.8671 11.5931 95.9459 11.7742 96.1019 11.8849C96.2579 11.9956 96.4457 12.0509 96.662 12.0509V12.0493Z" fill="#171B26"/>
<path d="M103.298 13.3875C102.927 13.3875 102.627 13.2734 102.397 13.0437C102.167 12.8139 102.053 12.5373 102.053 12.2153C102.053 11.8581 102.167 11.573 102.397 11.36C102.627 11.1487 102.927 11.0414 103.298 11.0414C103.668 11.0414 103.967 11.1471 104.192 11.36C104.416 11.5713 104.53 11.8564 104.53 12.2153C104.53 12.5373 104.418 12.8139 104.192 13.0437C103.967 13.2734 103.668 13.3875 103.298 13.3875Z" fill="#171B26"/>
</svg>
