<svg width="235" height="50" viewBox="0 0 235 50" fill="none" xmlns="http://www.w3.org/2000/svg">
<path d="M48.2669 33.6328C47.7163 32.386 47.3681 31.8371 47.4133 31.571L44.4745 25.3284C44.2418 24.9016 43.9891 24.361 43.6728 23.6832C40.9632 17.8758 38.2771 12.0584 35.5876 6.24256C34.9952 4.96058 35.0337 4.90535 36.4596 4.89865C38.3106 4.89029 40.1633 4.89698 42.0143 4.89698C45.2343 4.91204 48.4359 4.82836 51.6225 5.64341C59.5939 7.68019 61.4147 16.8415 56.9579 22.1586C54.9111 24.602 52.2116 25.7619 49.2024 26.3426L51.179 30.8195C59.0064 29.0806 65.0532 23.2916 64.4189 14.224C64.0507 8.94711 61.4951 5.03254 56.8943 2.48866C53.6592 0.699569 50.1129 0.0669444 46.451 0.0368194C43.7783 0.0150625 41.1038 0.0317986 38.4311 0.0317986V0.0117153C35.6914 0.0117153 32.9517 0.0217569 30.2103 0.00836804L30.212 0.00502083H29.5978C29.3082 0.00334722 29.017 0.00334722 28.7275 0C28.6354 0 28.5534 0 28.4748 0.00502083H11.7655C10.9136 0.00502083 10.6425 1.15479 11.4056 1.53303C12.1554 1.90457 12.927 2.30121 13.6248 2.66439C15.357 3.56981 17.2934 4.01499 19.2465 3.95306H20.5887C21.3636 5.66517 22.1335 7.37894 22.9184 9.08602C23.1996 9.69689 23.3652 10.2274 23.0422 10.9136C19.1293 19.208 15.2466 27.5158 11.3521 35.8203C9.82408 39.0804 8.29775 42.3423 6.7597 45.5992C6.74297 45.6109 1.04935 49.3648 0 49.4953H17.9578C17.9578 49.4953 17.1378 48.2384 17.0742 45.9958C18.6323 44.205 20.2942 42.5097 22.0749 40.9281C24.6673 38.6235 27.4706 36.652 30.5367 35.0788L28.6823 31.1877C25.9359 32.7542 23.2899 34.473 20.7845 36.4227C17.8792 38.6838 15.4809 41.4369 12.8734 44.0896C16.9721 34.709 21.4506 25.4907 25.9828 16.0198C26.8447 17.8541 27.6212 19.4624 28.3593 21.0875C28.8229 22.1084 29.2781 23.1343 29.7333 24.1585L31.3166 27.6966C31.3333 27.7317 31.3484 27.7685 31.3651 27.8037C31.4588 28.0095 31.5375 28.1836 31.6044 28.3409L34.2872 34.3358C34.3257 34.4094 34.3642 34.4881 34.4044 34.5768C34.8345 35.5508 35.268 36.5232 35.7014 37.4955L35.7901 37.6947C37.1139 40.6536 38.4562 43.6042 39.7951 46.5548C39.5708 48.446 38.6537 49.497 38.6537 49.497H62.7988C61.4817 49.3748 54.7136 46.0912 53.8099 45.6494C51.9271 41.6595 50.0493 37.6679 48.2652 33.6328H48.2669ZM45.092 45.8435C44.8142 45.231 44.5364 44.6184 44.2536 44.0075C42.9816 41.2595 41.703 38.5131 40.4344 35.7633L36.2654 26.7091C36.2052 26.6187 36.1499 26.525 36.1048 26.4246C34.8345 23.5979 33.5475 20.7779 32.2504 17.9628C30.0998 13.2935 27.9191 8.63917 25.7953 3.95808H29.2764C31.6496 9.19983 34.001 14.4499 36.3642 19.6934C36.6554 20.3394 36.9483 20.982 37.2428 21.6264L39.467 26.4982C39.5089 26.5736 39.5474 26.6505 39.5725 26.7292L42.2754 32.6488C42.2971 32.6873 42.3205 32.7257 42.339 32.7659C44.287 37.0888 46.2552 41.4034 48.1413 45.7548L45.0954 45.8402L45.092 45.8435Z" fill="#EBD2B0"/>
<path d="M79.4348 32.5386L84.6162 17.4443H89.2371L94.4972 32.5386H89.8998L89.2388 30.2391H84.6631L84.002 32.5386H79.4348ZM85.5351 26.7981H88.2932L86.9141 21.7974L85.5351 26.7981Z" fill="#EBD2B0"/>
<path d="M96.3365 32.5386V17.4443H100.743V28.9052H106.35V32.5386H96.3349H96.3365Z" fill="#EBD2B0"/>
<path d="M108.698 32.5386V17.4443H113.104V32.5386H108.698Z" fill="#EBD2B0"/>
<path d="M116.661 32.5386V17.4443H120.912L126.351 25.6986V17.4443H130.488V32.5386H126.261L120.776 24.184V32.5386H116.661Z" fill="#EBD2B0"/>
<path d="M134.046 32.5386V17.4443H138.297L143.736 25.6986V17.4443H147.874V32.5386H143.646L138.162 24.184V32.5386H134.046Z" fill="#EBD2B0"/>
<path d="M151.43 32.5386V17.4443H162.128V21.0777H155.837V23.1865H161.4V26.686H155.837V28.9069H162.128V32.5403H151.43V32.5386Z" fill="#EBD2B0"/>
<path d="M170.588 32.5386V17.4443H177.048C178.102 17.4443 179.078 17.6167 179.975 17.9598C180.872 18.3046 181.592 18.8518 182.134 19.6033C182.676 20.3547 182.947 21.3438 182.947 22.5689C182.947 23.794 182.676 24.8266 182.134 25.5965C181.592 26.3663 180.872 26.927 179.975 27.2785C179.078 27.6299 178.102 27.8056 177.048 27.8056H174.996V32.5386H170.59H170.588ZM174.996 24.3413H176.633C177.163 24.3413 177.594 24.1873 177.923 23.881C178.253 23.5748 178.417 23.138 178.417 22.5689C178.417 22.03 178.243 21.6284 177.895 21.3639C177.547 21.0995 177.127 20.9656 176.633 20.9656H174.996V24.3413Z" fill="#EBD2B0"/>
<path d="M185.516 32.5386V17.4443H189.923V32.5386H185.516Z" fill="#EBD2B0"/>
<path d="M193.481 32.5386V17.4443H200.053C201.168 17.4443 202.152 17.5766 203.009 17.8427C203.866 18.1088 204.535 18.5539 205.022 19.1832C205.509 19.8125 205.752 20.6711 205.752 21.7622C205.752 22.7112 205.483 23.5179 204.945 24.1789C204.406 24.84 203.655 25.3404 202.691 25.6768C203.439 25.7889 204.01 25.9931 204.406 26.2877C204.803 26.5839 205.109 26.9772 205.325 27.4709C205.543 27.9646 205.752 28.5588 205.953 29.2533L206.94 32.5386H202.443L201.849 30.2173C201.655 29.4843 201.466 28.9169 201.284 28.5119C201.101 28.1086 200.853 27.8274 200.544 27.6718C200.234 27.5161 199.794 27.4358 199.227 27.4358H197.893V32.5386H193.486H193.481ZM197.888 23.9714H199.357C199.761 23.9714 200.097 23.9061 200.366 23.7756C200.636 23.6451 200.837 23.4593 200.972 23.22C201.106 22.9806 201.175 22.6961 201.175 22.3681C201.175 21.8376 201.026 21.4643 200.726 21.2468C200.427 21.0292 200.102 20.9221 199.75 20.9221H197.889V23.9731L197.888 23.9714Z" fill="#EBD2B0"/>
<path d="M209.004 32.5386V17.4443H219.702V21.0777H213.41V23.1865H218.974V26.686H213.41V28.9069H219.702V32.5403H209.004V32.5386Z" fill="#EBD2B0"/>
<path d="M228.553 32.7405C227.342 32.7405 226.254 32.5748 225.29 32.2418C224.326 31.9087 223.561 31.3782 222.997 30.6485C222.433 29.9188 222.138 28.9565 222.117 27.7615H226.67C226.701 28.128 226.789 28.4192 226.94 28.6368C227.089 28.8544 227.303 29.01 227.579 29.1071C227.855 29.2042 228.197 29.2527 228.6 29.2527C229.003 29.2527 229.36 29.2176 229.626 29.1456C229.89 29.0753 230.09 28.9682 230.22 28.8259C230.351 28.6837 230.416 28.5113 230.416 28.3105C230.416 28.1096 230.349 27.9172 230.213 27.7615C230.08 27.6042 229.812 27.4385 229.412 27.2628C229.012 27.0871 228.404 26.8728 227.589 26.6184C226.654 26.3189 225.792 25.9875 224.999 25.621C224.205 25.2545 223.571 24.7658 223.092 24.1515C222.614 23.539 222.374 22.7206 222.374 21.6947C222.374 20.5801 222.65 19.7031 223.204 19.0588C223.758 18.4161 224.496 17.9558 225.419 17.6797C226.342 17.4036 227.357 17.2646 228.463 17.2646C229.569 17.2646 230.63 17.422 231.557 17.7349C232.485 18.0496 233.223 18.5416 233.772 19.2144C234.321 19.8872 234.595 20.7625 234.595 21.8386H230.043C230.043 21.442 229.901 21.1391 229.616 20.9299C229.332 20.7206 228.947 20.6152 228.461 20.6152C228.028 20.6152 227.666 20.6822 227.378 20.8177C227.091 20.9533 226.947 21.1391 226.947 21.3784C226.947 21.5357 227.014 21.683 227.149 21.8219C227.283 21.9608 227.571 22.1198 228.013 22.2989C228.453 22.4779 229.131 22.7139 230.043 23.0051C231.164 23.3566 232.091 23.7281 232.824 24.1214C233.557 24.5147 234.103 25.0151 234.461 25.6243C234.821 26.2335 235 27.0469 235 28.0628C235 29.2142 234.709 30.1313 234.125 30.8159C233.542 31.5004 232.762 31.9907 231.787 32.2903C230.811 32.5899 229.733 32.7388 228.552 32.7388L228.553 32.7405Z" fill="#EBD2B0"/>
<path d="M82.4121 43.8472C81.7945 43.8472 81.264 43.7183 80.8188 43.4589C80.3736 43.2012 80.0322 42.838 79.7929 42.3694C79.5536 41.9025 79.4348 41.3502 79.4348 40.7159C79.4348 40.0816 79.5536 39.5276 79.7929 39.0573C80.0322 38.587 80.3736 38.2222 80.8188 37.9645C81.264 37.705 81.7945 37.5762 82.4121 37.5762C82.8908 37.5762 83.3309 37.6582 83.7326 37.8239C84.1342 37.9895 84.4623 38.2322 84.7133 38.5552C84.9644 38.8766 85.1016 39.2749 85.1267 39.7468H83.8196C83.7861 39.4991 83.7058 39.2933 83.5769 39.1293C83.4481 38.9653 83.2841 38.8431 83.0849 38.7611C82.8857 38.6791 82.6615 38.6389 82.4138 38.6389C82.0138 38.6389 81.6925 38.736 81.4498 38.9301C81.2054 39.1243 81.0297 39.377 80.9192 39.6899C80.8088 40.0029 80.7536 40.346 80.7536 40.7175C80.7536 41.0891 80.8088 41.4288 80.9192 41.7435C81.0297 42.0581 81.2071 42.3108 81.4498 42.5016C81.6925 42.6924 82.0155 42.7878 82.4138 42.7878C82.8339 42.7878 83.1669 42.679 83.4096 42.4631C83.6522 42.2472 83.7928 41.9393 83.8296 41.5393H85.1367C85.0999 42.038 84.9694 42.4598 84.7418 42.8028C84.5142 43.1459 84.2045 43.407 83.8112 43.5828C83.4179 43.7585 82.9527 43.8489 82.4138 43.8489L82.4121 43.8472Z" fill="#F7F4EF"/>
<path d="M90.0655 43.8368C89.617 43.8368 89.2254 43.7481 88.8873 43.569C88.5492 43.39 88.2898 43.1322 88.1041 42.7925C87.92 42.4544 87.8279 42.0444 87.8279 41.5624C87.8279 41.0804 87.92 40.6553 88.1041 40.3122C88.2882 39.9691 88.5492 39.708 88.8873 39.5273C89.2254 39.3465 89.617 39.2578 90.0655 39.2578C90.5141 39.2578 90.914 39.3482 91.2521 39.5273C91.5885 39.708 91.8513 39.9691 92.0387 40.3122C92.2262 40.6553 92.3199 41.072 92.3199 41.5624C92.3199 42.0527 92.2262 42.4527 92.0387 42.7925C91.8513 43.1322 91.5885 43.39 91.2521 43.569C90.914 43.7481 90.5191 43.8368 90.0655 43.8368ZM90.0655 42.9213C90.3283 42.9213 90.5358 42.8594 90.6848 42.7373C90.8337 42.6151 90.9408 42.4511 91.0027 42.2452C91.0647 42.0394 91.0965 41.8134 91.0965 41.5641C91.0965 41.3147 91.0647 41.0787 91.0027 40.8695C90.9408 40.6603 90.8354 40.4946 90.6848 40.3708C90.5358 40.2469 90.3283 40.185 90.0655 40.185C89.8028 40.185 89.607 40.2469 89.4597 40.3708C89.3124 40.4946 89.2086 40.662 89.1484 40.8695C89.0881 41.0787 89.058 41.3097 89.058 41.5641C89.058 41.8184 89.0881 42.0394 89.1484 42.2452C89.2086 42.4511 89.3124 42.6151 89.4597 42.7373C89.607 42.8594 89.8078 42.9213 90.0655 42.9213Z" fill="#F7F4EF"/>
<path d="M95.2403 43.7647V39.3363H96.3968L96.4202 39.9991C96.5675 39.8083 96.7633 39.6393 97.006 39.4937C97.2487 39.3464 97.5633 39.2744 97.9499 39.2744C98.4001 39.2744 98.7499 39.4116 98.9976 39.6844C99.2453 39.9589 99.3691 40.3589 99.3691 40.8844V43.7664H98.1758V41.0401C98.1758 40.8794 98.1524 40.7388 98.1072 40.6183C98.062 40.4978 97.9901 40.4041 97.8913 40.3372C97.7926 40.2702 97.6637 40.2367 97.503 40.2367C97.2637 40.2367 97.0595 40.292 96.8888 40.4041C96.7181 40.5162 96.5692 40.6518 96.442 40.8125V43.7664H95.2403V43.7647Z" fill="#F7F4EF"/>
<path d="M104.259 43.8464C104.015 43.8464 103.774 43.823 103.538 43.7778C103.302 43.7326 103.09 43.654 102.899 43.5435C102.708 43.433 102.557 43.2824 102.445 43.0916C102.333 42.9008 102.278 42.6632 102.278 42.3787H103.394C103.394 42.6264 103.481 42.7987 103.655 42.8958C103.829 42.9929 104.032 43.0414 104.266 43.0414C104.5 43.0414 104.674 43.0046 104.802 42.931C104.929 42.8573 104.992 42.7318 104.992 42.5561C104.992 42.3803 104.917 42.2649 104.768 42.1845C104.619 42.1025 104.356 42.0188 103.982 41.9352C103.667 41.8599 103.386 41.7678 103.14 41.6607C102.894 41.5536 102.7 41.4097 102.561 41.2289C102.422 41.0482 102.352 40.8122 102.352 40.5193C102.352 40.29 102.405 40.0942 102.51 39.9335C102.616 39.7729 102.758 39.644 102.936 39.5453C103.113 39.4465 103.312 39.3745 103.535 39.3294C103.757 39.2842 103.985 39.2607 104.218 39.2607C104.45 39.2607 104.666 39.2842 104.885 39.3294C105.105 39.3745 105.3 39.4515 105.474 39.5586C105.65 39.6658 105.791 39.8114 105.896 39.9921C106.002 40.1729 106.055 40.4005 106.055 40.6733H104.939C104.939 40.4457 104.867 40.2883 104.723 40.2013C104.579 40.1143 104.41 40.0691 104.218 40.0691C104.008 40.0691 103.844 40.0992 103.726 40.1595C103.607 40.2197 103.546 40.3201 103.546 40.459C103.546 40.541 103.585 40.613 103.66 40.6749C103.736 40.7369 103.856 40.7938 104.023 40.8473C104.189 40.9009 104.408 40.9578 104.681 41.018C104.969 41.085 105.225 41.1703 105.453 41.2774C105.68 41.3846 105.859 41.5251 105.993 41.7042C106.127 41.8833 106.192 42.1142 106.192 42.3988C106.192 42.6649 106.139 42.8908 106.032 43.0749C105.925 43.259 105.781 43.4079 105.6 43.5218C105.419 43.6356 105.215 43.7176 104.982 43.7694C104.751 43.8213 104.51 43.8464 104.263 43.8464H104.259Z" fill="#F7F4EF"/>
<path d="M110.42 43.8236C109.971 43.8236 109.627 43.6847 109.381 43.4085C109.136 43.1324 109.012 42.7374 109.012 42.227V39.3366H110.214V42.0813C110.214 42.232 110.236 42.3659 110.279 42.483C110.323 42.6002 110.397 42.6889 110.497 42.7525C110.599 42.8161 110.733 42.8479 110.899 42.8479C111.141 42.8479 111.347 42.7943 111.518 42.6872C111.689 42.5801 111.838 42.4495 111.965 42.2939V39.335H113.166V43.7633H112.005L111.986 43.0956C111.838 43.283 111.635 43.4504 111.379 43.5993C111.121 43.7483 110.802 43.8219 110.417 43.8219L110.42 43.8236Z" fill="#F7F4EF"/>
<path d="M117.976 43.7652C117.526 43.7652 117.178 43.7117 116.932 43.6045C116.688 43.4974 116.515 43.3301 116.42 43.1058C116.323 42.8799 116.274 42.587 116.274 42.2238V37.6582H117.473V42.1502C117.473 42.3828 117.504 42.5535 117.568 42.6623C117.632 42.7711 117.779 42.8263 118.013 42.8263H118.289V43.7652H117.976Z" fill="#F7F4EF"/>
<path d="M122.771 43.765C122.323 43.765 121.976 43.7114 121.73 43.6043C121.484 43.4972 121.312 43.3298 121.215 43.1056C121.118 42.8796 121.069 42.5868 121.069 42.2236V40.2638H120.334V39.3383H121.069V38.2939H122.271V39.3383H123.236V40.2638H122.271V42.1516C122.271 42.3843 122.303 42.5566 122.368 42.6688C122.433 42.7809 122.58 42.8361 122.81 42.8361H123.236V43.7666H122.77L122.771 43.765Z" fill="#F7F4EF"/>
<path d="M128.006 43.8368C127.558 43.8368 127.166 43.7481 126.828 43.569C126.49 43.39 126.231 43.1322 126.045 42.7925C125.859 42.4527 125.769 42.0444 125.769 41.5624C125.769 41.0804 125.861 40.6553 126.045 40.3122C126.229 39.9691 126.49 39.708 126.828 39.5273C127.166 39.3465 127.558 39.2578 128.006 39.2578C128.455 39.2578 128.855 39.3482 129.193 39.5273C129.529 39.708 129.792 39.9691 129.979 40.3122C130.167 40.6553 130.261 41.072 130.261 41.5624C130.261 42.0527 130.167 42.4527 129.979 42.7925C129.792 43.1305 129.529 43.39 129.193 43.569C128.855 43.7481 128.46 43.8368 128.006 43.8368ZM128.006 42.9213C128.269 42.9213 128.477 42.8594 128.625 42.7373C128.774 42.6151 128.882 42.4511 128.943 42.2452C129.005 42.0394 129.037 41.8134 129.037 41.5641C129.037 41.3147 129.005 41.0787 128.943 40.8695C128.882 40.6603 128.776 40.4946 128.625 40.3708C128.477 40.2469 128.269 40.185 128.006 40.185C127.744 40.185 127.548 40.2469 127.4 40.3708C127.253 40.4946 127.149 40.662 127.089 40.8695C127.029 41.0787 126.999 41.3097 126.999 41.5641C126.999 41.8184 127.029 42.0394 127.089 42.2452C127.149 42.4511 127.253 42.6151 127.4 42.7373C127.548 42.8594 127.749 42.9213 128.006 42.9213Z" fill="#F7F4EF"/>
<path d="M133.181 43.7653V39.3369H134.334L134.358 40.1034C134.473 39.8373 134.645 39.6331 134.875 39.4909C135.104 39.3486 135.383 39.2783 135.71 39.2783H135.8V40.2909H135.686C135.507 40.2909 135.337 40.3059 135.174 40.3377C135.012 40.3695 134.863 40.4231 134.729 40.5017C134.595 40.5787 134.481 40.6858 134.384 40.8214V43.7669H133.183L133.181 43.7653Z" fill="#F7F4EF"/>
<path d="M139.074 38.7558C138.853 38.7558 138.684 38.7006 138.568 38.5884C138.451 38.4763 138.394 38.3374 138.394 38.1717C138.394 38.006 138.453 37.8621 138.568 37.7516C138.686 37.6412 138.853 37.5859 139.074 37.5859C139.295 37.5859 139.464 37.6412 139.579 37.7516C139.696 37.8621 139.753 38.0027 139.753 38.1717C139.753 38.3407 139.695 38.478 139.579 38.5884C139.462 38.7006 139.295 38.7558 139.074 38.7558ZM138.47 43.7649V39.3365H139.671V43.7649H138.47Z" fill="#F7F4EF"/>
<path d="M143.981 43.8413C143.73 43.8413 143.496 43.7927 143.278 43.6957C143.06 43.5986 142.885 43.453 142.749 43.2572C142.615 43.0614 142.547 42.817 142.547 42.5241C142.547 42.1158 142.669 41.8078 142.915 41.6003C143.159 41.3928 143.502 41.2522 143.942 41.1786C144.383 41.1049 144.895 41.0614 145.479 41.0497V40.8137C145.479 40.5259 145.41 40.33 145.273 40.2246C145.136 40.1192 144.958 40.0656 144.739 40.0656C144.5 40.0656 144.304 40.1225 144.15 40.2363C143.996 40.3501 143.919 40.5342 143.919 40.7869H142.794C142.794 40.4087 142.876 40.1091 143.042 39.8882C143.206 39.6673 143.435 39.5083 143.726 39.4112C144.018 39.3142 144.356 39.2656 144.741 39.2656C145.022 39.2656 145.28 39.2891 145.512 39.3359C145.745 39.3828 145.947 39.4631 146.118 39.5786C146.289 39.6941 146.421 39.8497 146.515 40.0489C146.608 40.2464 146.655 40.4941 146.655 40.7903V43.7626H145.531L145.494 43.1869C145.306 43.4011 145.089 43.5635 144.841 43.6756C144.593 43.786 144.307 43.8413 143.984 43.8413H143.981ZM144.376 43.0162C144.603 43.0162 144.813 42.9576 145.003 42.8388C145.196 42.7216 145.35 42.5861 145.464 42.4354V41.7191C144.828 41.7225 144.384 41.7827 144.13 41.8982C143.875 42.0137 143.748 42.2028 143.748 42.4639C143.748 42.6513 143.807 42.7903 143.922 42.8806C144.039 42.971 144.188 43.0162 144.374 43.0162H144.376Z" fill="#F7F4EF"/>
<path d="M153.592 43.7652V37.6582H155.058L156.973 40.9167H156.464L158.352 37.6582H159.763V43.7652H158.506V38.3377H159.065L157.068 41.8138H156.284L154.237 38.3377H154.812V43.7652H153.592Z" fill="#F7F4EF"/>
<path d="M165.03 43.8472C164.536 43.8472 164.123 43.7551 163.786 43.5727C163.45 43.3903 163.197 43.1258 163.025 42.7811C162.852 42.4363 162.765 42.0212 162.765 41.5376C162.765 41.0539 162.849 40.6656 163.018 40.3259C163.185 39.9878 163.433 39.7267 163.758 39.5426C164.083 39.3585 164.483 39.2682 164.958 39.2682C165.617 39.2682 166.138 39.4606 166.521 39.8472C166.904 40.2338 167.095 40.7828 167.095 41.4974C167.095 41.5342 167.093 41.5828 167.09 41.6447C167.087 41.7066 167.082 41.7535 167.077 41.7869H163.969C163.975 41.9961 164.014 42.1903 164.084 42.3727C164.155 42.5551 164.268 42.7007 164.422 42.8112C164.576 42.9217 164.779 42.9769 165.03 42.9769C165.281 42.9769 165.498 42.92 165.656 42.8062C165.813 42.6924 165.893 42.5233 165.897 42.3007H167.082C167.067 42.6455 166.971 42.9334 166.797 43.1627C166.623 43.3919 166.385 43.5643 166.084 43.6781C165.783 43.7919 165.431 43.8488 165.03 43.8488V43.8472ZM163.982 41.0238H165.902C165.893 40.7158 165.801 40.4849 165.627 40.3326C165.453 40.1803 165.231 40.1033 164.958 40.1033C164.685 40.1033 164.452 40.182 164.275 40.3393C164.098 40.4966 164.001 40.7242 163.982 41.0238ZM164.317 38.746L165.211 37.4941H166.508L165.206 38.746H164.317Z" fill="#F7F4EF"/>
<path d="M171.543 43.8422C171.21 43.8422 170.913 43.7585 170.648 43.5928C170.384 43.4271 170.174 43.1711 170.022 42.828C169.87 42.4849 169.793 42.0481 169.793 41.5192C169.793 40.9904 169.875 40.5853 170.041 40.254C170.206 39.9209 170.429 39.6732 170.71 39.5092C170.991 39.3452 171.307 39.2649 171.659 39.2649C171.967 39.2649 172.233 39.3285 172.454 39.4557C172.675 39.5829 172.851 39.7485 172.979 39.9544V37.6582H174.181V43.7652H173.028L172.978 43.1343C172.82 43.3518 172.625 43.5242 172.392 43.6514C172.159 43.7786 171.877 43.8422 171.543 43.8422ZM171.897 42.9251C172.151 42.9251 172.37 42.8548 172.554 42.7125C172.738 42.5702 172.879 42.4046 172.976 42.2138V40.9201C172.882 40.7209 172.75 40.5469 172.581 40.3979C172.412 40.2489 172.203 40.1753 171.955 40.1753C171.659 40.1753 171.428 40.2908 171.266 40.5201C171.102 40.7494 171.021 41.0824 171.021 41.5192C171.021 41.9979 171.098 42.351 171.256 42.5803C171.411 42.8096 171.625 42.9251 171.898 42.9251H171.897Z" fill="#F7F4EF"/>
<path d="M177.927 38.7558C177.706 38.7558 177.537 38.7006 177.421 38.5884C177.304 38.4763 177.247 38.3374 177.247 38.1717C177.247 38.006 177.306 37.8621 177.421 37.7516C177.538 37.6412 177.706 37.5859 177.927 37.5859C178.148 37.5859 178.317 37.6412 178.432 37.7516C178.549 37.8621 178.606 38.0027 178.606 38.1717C178.606 38.3407 178.548 38.478 178.432 38.5884C178.315 38.7006 178.148 38.7558 177.927 38.7558ZM177.322 43.7649V39.3365H178.524V43.7649H177.322Z" fill="#F7F4EF"/>
<path d="M183.659 43.8284C183.247 43.8284 182.874 43.7498 182.537 43.5925C182.201 43.4351 181.935 43.1908 181.739 42.8577C181.543 42.5247 181.445 42.0946 181.445 41.5691C181.445 41.0436 181.538 40.6101 181.726 40.272C181.913 39.934 182.174 39.6812 182.509 39.5172C182.844 39.3532 183.227 39.2695 183.659 39.2695C184.034 39.2695 184.373 39.3315 184.675 39.4553C184.978 39.5791 185.217 39.7649 185.396 40.0109C185.575 40.257 185.665 40.5683 185.669 40.9431H184.502C184.496 40.7155 184.42 40.5365 184.276 40.4009C184.131 40.267 183.927 40.1984 183.664 40.1984C183.316 40.1984 183.065 40.3172 182.909 40.5565C182.753 40.7959 182.675 41.1323 182.675 41.5691C182.675 41.8502 182.708 42.0896 182.777 42.2887C182.845 42.4862 182.952 42.6385 183.098 42.7423C183.244 42.846 183.433 42.8996 183.664 42.8996C183.933 42.8996 184.146 42.826 184.301 42.6803C184.457 42.5331 184.537 42.3255 184.544 42.0561H185.711C185.702 42.441 185.608 42.764 185.431 43.0268C185.254 43.2895 185.013 43.4904 184.708 43.6259C184.402 43.7615 184.054 43.8301 183.66 43.8301L183.659 43.8284Z" fill="#F7F4EF"/>
<path d="M190.641 43.8368C190.193 43.8368 189.801 43.7481 189.463 43.569C189.125 43.39 188.865 43.1322 188.68 42.7925C188.495 42.4544 188.403 42.0444 188.403 41.5624C188.403 41.0804 188.495 40.6553 188.68 40.3122C188.864 39.9691 189.125 39.708 189.463 39.5273C189.801 39.3465 190.193 39.2578 190.641 39.2578C191.09 39.2578 191.49 39.3482 191.828 39.5273C192.164 39.708 192.427 39.9691 192.614 40.3122C192.802 40.6553 192.895 41.072 192.895 41.5624C192.895 42.0527 192.802 42.4527 192.614 42.7925C192.427 43.1305 192.164 43.39 191.828 43.569C191.49 43.7481 191.095 43.8368 190.641 43.8368ZM190.641 42.9213C190.904 42.9213 191.111 42.8594 191.26 42.7373C191.409 42.6151 191.516 42.4511 191.578 42.2452C191.64 42.0394 191.672 41.8134 191.672 41.5641C191.672 41.3147 191.64 41.0787 191.578 40.8695C191.516 40.6603 191.411 40.4946 191.26 40.3708C191.111 40.2469 190.904 40.185 190.641 40.185C190.378 40.185 190.182 40.2469 190.035 40.3708C189.888 40.4946 189.784 40.662 189.724 40.8695C189.664 41.0787 189.634 41.3097 189.634 41.5641C189.634 41.8184 189.664 42.0394 189.724 42.2452C189.784 42.4511 189.888 42.6151 190.035 42.7373C190.182 42.8594 190.383 42.9213 190.641 42.9213Z" fill="#F7F4EF"/>
<path d="M199.648 43.7652V37.6582H200.924V42.6456H203.501V43.7669H199.648V43.7652Z" fill="#F7F4EF"/>
<path d="M208.278 43.8466C207.784 43.8466 207.37 43.7545 207.034 43.5721C206.698 43.3897 206.445 43.1252 206.273 42.7805C206.1 42.4357 206.013 42.0207 206.013 41.537C206.013 41.0533 206.097 40.665 206.264 40.3253C206.432 39.9872 206.679 39.7261 207.004 39.5421C207.329 39.3596 207.729 39.2676 208.204 39.2676C208.863 39.2676 209.384 39.46 209.767 39.8467C210.15 40.2333 210.341 40.7822 210.341 41.4968C210.341 41.5336 210.341 41.5822 210.336 41.6441C210.331 41.706 210.329 41.7529 210.323 41.7864H207.215C207.221 41.9956 207.26 42.1897 207.33 42.3721C207.401 42.5545 207.514 42.7002 207.668 42.8106C207.822 42.9211 208.025 42.9763 208.276 42.9763C208.527 42.9763 208.744 42.9194 208.902 42.8056C209.059 42.6918 209.139 42.5227 209.143 42.3002H210.328C210.313 42.6449 210.217 42.9328 210.045 43.1621C209.871 43.3914 209.633 43.5637 209.332 43.6775C209.031 43.7913 208.679 43.8482 208.278 43.8482V43.8466ZM207.228 41.0232H209.148C209.139 40.7152 209.047 40.4843 208.873 40.332C208.699 40.1797 208.477 40.1027 208.204 40.1027C207.931 40.1027 207.698 40.1814 207.521 40.3387C207.344 40.496 207.247 40.7236 207.228 41.0232Z" fill="#F7F4EF"/>
<path d="M214.995 45.4758C214.467 45.4758 214.045 45.4222 213.734 45.3118C213.422 45.203 213.198 45.0607 213.062 44.8833C212.927 44.7059 212.858 44.5151 212.858 44.3093C212.858 44.0582 212.977 43.8373 213.216 43.6499C213.456 43.4624 213.834 43.3286 214.351 43.2532L214.55 42.8265H215.149C215.884 42.8265 216.421 42.9286 216.758 43.1311C217.094 43.3336 217.263 43.6432 217.263 44.0616C217.263 44.48 217.069 44.8264 216.682 45.0875C216.296 45.3469 215.732 45.4775 214.994 45.4775L214.995 45.4758ZM214.369 43.665C214.052 43.6281 213.795 43.5645 213.598 43.4725C213.4 43.3804 213.258 43.2733 213.166 43.1528C213.076 43.0323 213.031 42.9118 213.031 42.7947C213.031 42.6106 213.101 42.4533 213.241 42.3244C213.382 42.1955 213.595 42.0834 213.879 41.9863L214.505 42.2139C214.341 42.2524 214.205 42.301 214.097 42.3562C213.988 42.4131 213.933 42.4817 213.933 42.562C213.933 42.6189 213.964 42.6675 214.03 42.7076C214.095 42.7461 214.209 42.7763 214.369 42.7964C214.53 42.8164 214.754 42.8265 215.039 42.8265L214.368 43.6666L214.369 43.665ZM214.913 42.3545C214.513 42.3545 214.174 42.2842 213.893 42.142C213.611 41.9997 213.397 41.8123 213.253 41.5796C213.108 41.347 213.036 41.096 213.036 40.8265C213.036 40.5386 213.109 40.2792 213.257 40.0483C213.404 39.8173 213.618 39.6316 213.903 39.4926C214.187 39.3537 214.533 39.2834 214.942 39.2834C215.35 39.2834 215.712 39.3537 215.988 39.4926C216.264 39.6316 216.472 39.8173 216.609 40.0483C216.746 40.2792 216.815 40.5386 216.815 40.8265C216.815 41.1144 216.744 41.3554 216.604 41.588C216.463 41.8206 216.252 42.0064 215.973 42.147C215.693 42.2859 215.34 42.3562 214.913 42.3562V42.3545ZM214.977 44.7227C215.382 44.7227 215.668 44.6691 215.834 44.5637C216 44.4582 216.083 44.3294 216.083 44.1771C216.083 44.08 216.055 43.998 215.998 43.9327C215.941 43.8658 215.846 43.8156 215.712 43.7788C215.578 43.7419 215.402 43.7252 215.181 43.7252H214.373C214.256 43.7704 214.159 43.834 214.085 43.9177C214.011 44.0014 213.975 44.0967 213.975 44.2055C213.975 44.3327 214.053 44.4499 214.21 44.5587C214.368 44.6674 214.624 44.7227 214.977 44.7227ZM214.913 41.6332C215.138 41.6332 215.323 41.5646 215.474 41.4273C215.625 41.2901 215.698 41.0893 215.698 40.8265C215.698 40.5487 215.628 40.3412 215.489 40.2056C215.35 40.07 215.168 40.0014 214.945 40.0014C214.723 40.0014 214.53 40.0717 214.383 40.2123C214.234 40.3529 214.16 40.5587 214.16 40.8265C214.16 41.0943 214.237 41.2935 214.39 41.4307C214.542 41.5663 214.718 41.6349 214.913 41.6349V41.6332ZM216.179 39.9529L215.824 39.5044C215.941 39.1897 216.123 38.9755 216.371 38.86C216.617 38.7445 216.915 38.686 217.263 38.6826V39.5579C217.027 39.5579 216.811 39.5797 216.617 39.6232C216.423 39.6667 216.276 39.7772 216.179 39.9529Z" fill="#F7F4EF"/>
<path d="M220.955 43.8413C220.704 43.8413 220.47 43.7927 220.252 43.6957C220.035 43.5986 219.859 43.453 219.723 43.2572C219.589 43.0614 219.521 42.817 219.521 42.5241C219.521 42.1158 219.643 41.8078 219.889 41.6003C220.133 41.3928 220.476 41.2522 220.917 41.1786C221.357 41.1049 221.869 41.0614 222.453 41.0497V40.8137C222.453 40.5259 222.384 40.33 222.247 40.2246C222.11 40.1192 221.933 40.0656 221.713 40.0656C221.474 40.0656 221.278 40.1225 221.124 40.2363C220.97 40.3501 220.893 40.5342 220.893 40.7869H219.769C219.769 40.4087 219.851 40.1091 220.016 39.8882C220.182 39.6673 220.41 39.5083 220.701 39.4112C220.992 39.3142 221.33 39.2656 221.715 39.2656C221.996 39.2656 222.254 39.2891 222.486 39.3359C222.719 39.3828 222.922 39.4631 223.092 39.5786C223.263 39.6941 223.395 39.8497 223.489 40.0489C223.583 40.2464 223.63 40.4941 223.63 40.7903V43.7626H222.505L222.468 43.1869C222.281 43.4011 222.063 43.5635 221.815 43.6756C221.568 43.786 221.281 43.8413 220.957 43.8413H220.955ZM221.35 43.0162C221.578 43.0162 221.787 42.9576 221.978 42.8388C222.168 42.72 222.324 42.5861 222.438 42.4354V41.7191C221.802 41.7225 221.358 41.7827 221.104 41.8982C220.85 42.0137 220.722 42.2028 220.722 42.4639C220.722 42.6513 220.781 42.7903 220.897 42.8806C221.012 42.971 221.163 43.0162 221.348 43.0162H221.35Z" fill="#F7F4EF"/>
<path d="M228.394 43.7652C227.944 43.7652 227.596 43.7117 227.35 43.6045C227.106 43.4974 226.933 43.3301 226.838 43.1058C226.741 42.8799 226.692 42.587 226.692 42.2238V37.6582H227.891V42.1502C227.891 42.3828 227.922 42.5535 227.986 42.6623C228.05 42.7711 228.199 42.8263 228.431 42.8263H228.707V43.7652H228.394Z" fill="#F7F4EF"/>
<path d="M79.4347 13.2613V4.35938H82.8807C83.838 4.35938 84.6581 4.5351 85.3409 4.88824C86.0237 5.24137 86.5476 5.7468 86.9107 6.4062C87.2739 7.0656 87.4563 7.85722 87.4563 8.7844C87.4563 9.71158 87.2739 10.5651 86.9074 11.2312C86.5409 11.8973 86.0154 12.4011 85.3308 12.7458C84.6447 13.0889 83.8279 13.2613 82.8807 13.2613H79.4347ZM81.5585 11.4889H82.7033C83.2757 11.4889 83.7543 11.3902 84.1359 11.191C84.5175 10.9919 84.802 10.6923 84.9894 10.2923C85.1769 9.89065 85.2706 9.38355 85.2706 8.77101C85.2706 8.19864 85.1668 7.71496 84.9593 7.32166C84.7518 6.93004 84.4555 6.63214 84.0706 6.43298C83.6857 6.23382 83.2288 6.13173 82.705 6.13173H81.5602V11.4889H81.5585Z" fill="#F7F4EF"/>
<path d="M89.3241 13.261V6.79922H91.2688L91.2956 7.92388C91.4546 7.51887 91.704 7.21427 92.0437 7.01511C92.3835 6.81428 92.7868 6.71387 93.2537 6.71387H93.3793V8.37408H93.2136C92.9759 8.37408 92.7383 8.38915 92.5023 8.42095C92.2663 8.45107 92.0487 8.51634 91.8512 8.61676C91.6538 8.71718 91.4831 8.86446 91.3425 9.06362V13.2627H89.3258L89.3241 13.261Z" fill="#F7F4EF"/>
<path d="M96.2495 13.367C95.883 13.367 95.5382 13.2967 95.2152 13.1545C94.8905 13.0139 94.6294 12.7997 94.4319 12.5135C94.2328 12.2273 94.134 11.8658 94.134 11.429C94.134 10.8298 94.3098 10.378 94.6629 10.0734C95.016 9.76876 95.5097 9.56291 96.144 9.45412C96.7783 9.34534 97.5147 9.28174 98.3532 9.25998V8.95538C98.3532 8.59389 98.2678 8.34619 98.0955 8.21063C97.9231 8.07674 97.6988 8.0098 97.421 8.0098C97.1131 8.0098 96.862 8.08009 96.6712 8.22067C96.4788 8.36126 96.3834 8.59389 96.3834 8.91522H94.5123C94.5123 8.35958 94.6344 7.9211 94.8788 7.59977C95.1231 7.27843 95.4646 7.04915 95.9014 6.91191C96.3382 6.77467 96.8453 6.70605 97.4227 6.70605C97.8628 6.70605 98.2612 6.7412 98.616 6.81149C98.9708 6.88178 99.2754 7.00228 99.5281 7.17132C99.7808 7.34035 99.9749 7.56964 100.11 7.85583C100.244 8.14202 100.313 8.49682 100.313 8.92024V13.2582H98.4352L98.3699 12.4716C98.1105 12.7796 97.8043 13.0055 97.4545 13.1494C97.1047 13.2934 96.7047 13.3637 96.2545 13.3637L96.2495 13.367ZM96.9373 12.0248C97.2202 12.0248 97.4879 11.9461 97.7407 11.7871C97.9934 11.6281 98.1892 11.4591 98.3264 11.2784V10.3395C97.5013 10.3395 96.9323 10.4164 96.6177 10.5704C96.303 10.7244 96.144 10.9738 96.144 11.3185C96.144 11.5696 96.2227 11.7503 96.3783 11.8608C96.534 11.9712 96.7214 12.0265 96.9373 12.0265V12.0248Z" fill="#F7F4EF"/>
<path d="M103.56 13.3599C103.19 13.3599 102.89 13.2461 102.661 13.0168C102.432 12.7876 102.318 12.5114 102.318 12.1901C102.318 11.8336 102.432 11.5491 102.661 11.3365C102.89 11.1257 103.19 11.0186 103.56 11.0186C103.93 11.0186 104.228 11.124 104.452 11.3365C104.676 11.5474 104.79 11.8319 104.79 12.1901C104.79 12.5114 104.678 12.7876 104.452 13.0168C104.228 13.2461 103.93 13.3599 103.56 13.3599Z" fill="#F7F4EF"/>
</svg>
