<svg width="44" height="44" viewBox="0 0 44 44" fill="none" xmlns="http://www.w3.org/2000/svg">
<path d="M36.9697 7.10081C33.0337 3.13921 27.6769 0.918407 22.0897 0.931207C10.4993 0.931207 1.06567 10.3648 1.05927 21.9616C1.05287 25.6544 2.02567 29.2768 3.86887 32.4768L0.886475 43.376L12.0353 40.4512C15.1201 42.128 18.5697 43.0112 22.0833 43.0112H22.0897C33.6801 43.0112 43.1137 33.5776 43.1201 21.9808C43.1393 16.4 40.9249 11.0432 36.9697 7.10081ZM22.0961 39.4592H22.0897C18.9601 39.4592 15.8881 38.6208 13.1937 37.0208L12.5537 36.6432L5.93607 38.3776L7.70247 31.9264L7.28647 31.2672C5.53287 28.4832 4.61127 25.2576 4.61127 21.9616C4.61767 12.3232 12.4577 4.48321 22.0961 4.48321C31.7537 4.48961 39.5745 12.3232 39.5681 21.9744C39.5681 31.6192 31.7281 39.4592 22.0961 39.4592Z" fill="#171B26"/>
<path d="M31.6832 26.3648C31.1584 26.1024 28.5728 24.8288 28.0928 24.656C27.6128 24.4832 27.2608 24.3936 26.9088 24.9184C26.5568 25.4432 25.552 26.6272 25.2448 26.9792C24.9376 27.3312 24.6304 27.376 24.1056 27.1072C23.5808 26.8384 21.8848 26.288 19.8816 24.496C18.32 23.1008 17.264 21.3792 16.9568 20.8544C16.6496 20.3296 16.9248 20.0416 17.1872 19.7792C17.424 19.5424 17.712 19.1648 17.9744 18.8576C18.2368 18.5504 18.3264 18.3328 18.4992 17.9808C18.672 17.6288 18.5888 17.3216 18.4544 17.0592C18.32 16.7968 17.2704 14.2112 16.8352 13.1552C16.4064 12.1312 15.9776 12.272 15.6512 12.2528C15.344 12.24 14.992 12.2336 14.6464 12.2336C14.3008 12.2336 13.7248 12.3616 13.2448 12.8928C12.7648 13.424 11.4016 14.6912 11.4016 17.2832C11.4016 19.8752 13.2832 22.3712 13.5456 22.7168C13.808 23.0688 17.2512 28.3744 22.5248 30.6528C23.504 31.0752 24.5024 31.4464 25.52 31.76C26.7808 32.1568 27.9264 32.1056 28.8288 31.9712C29.84 31.8176 31.9392 30.6976 32.3744 29.4752C32.8096 28.2528 32.8096 27.1968 32.6816 26.9792C32.5536 26.7616 32.208 26.6336 31.6832 26.3648Z" fill="#171B26"/>
</svg>
