<svg width="64" height="64" viewBox="0 0 64 64" fill="none" xmlns="http://www.w3.org/2000/svg">
<path d="M8.70316 51.9032L47.8042 12.8H39.1983C38.5618 12.8 37.9513 12.5471 37.5013 12.0971C37.0514 11.647 36.7984 11.0365 36.7984 10.4C36.7984 9.7635 37.0514 9.15303 37.5013 8.70294C37.9513 8.25287 38.5618 8 39.1983 8H53.5975C53.9121 8.00151 54.2236 8.06427 54.5142 8.1848C54.9527 8.36607 55.3275 8.67325 55.5915 9.06752C55.8555 9.46182 55.9969 9.9255 55.9973 10.4V24.8C55.9973 25.4365 55.7444 26.047 55.2944 26.4971C54.8444 26.9471 54.2339 27.2 53.5975 27.2C52.961 27.2 52.3505 26.9471 51.9005 26.4971C51.4506 26.047 51.1976 25.4365 51.1976 24.8V16.1936L12.0966 55.2968C11.644 55.7341 11.0378 55.976 10.4085 55.9705C9.77926 55.965 9.17735 55.7125 8.73239 55.2675C8.28743 54.8226 8.03504 54.2206 8.02959 53.5914C8.02412 52.9621 8.266 52.3558 8.70316 51.9032ZM8 17.6C8 15.7013 8.56301 13.8453 9.6178 12.2665C10.6726 10.6878 12.1718 9.45735 13.9259 8.73075C15.68 8.00415 17.6101 7.81405 19.4722 8.18447C21.3344 8.55488 23.0448 9.46919 24.3873 10.8118C25.7298 12.1544 26.6441 13.8649 27.0145 15.7271C27.3849 17.5893 27.1948 19.5196 26.4682 21.2738C25.7417 23.0279 24.5113 24.5272 22.9326 25.5821C21.354 26.637 19.4981 27.2 17.5995 27.2C15.0535 27.2 12.6119 26.1886 10.8116 24.3882C9.01138 22.5879 8 20.1461 8 17.6ZM12.7997 17.6C12.7997 18.5493 13.0812 19.4774 13.6086 20.2667C14.136 21.0561 14.8857 21.6713 15.7627 22.0346C16.6397 22.3979 17.6048 22.493 18.5358 22.3078C19.4669 22.1226 20.3221 21.6654 20.9934 20.9941C21.6647 20.3228 22.1218 19.4675 22.307 18.5364C22.4922 17.6053 22.3971 16.6402 22.0338 15.7631C21.6706 14.886 21.0554 14.1364 20.2661 13.6089C19.4767 13.0815 18.5488 12.8 17.5995 12.8C16.3265 12.8 15.1057 13.3057 14.2056 14.2059C13.3054 15.1061 12.7997 16.327 12.7997 17.6ZM55.1358 37.3568C54.8936 37.1545 54.6138 37.0018 54.3126 36.9078C54.0115 36.8137 53.6944 36.7798 53.38 36.8084C53.0659 36.837 52.7602 36.9272 52.4808 37.0741C52.2015 37.221 51.9538 37.4214 51.752 37.664L41.4325 50.0456L36.0904 44.7032C35.6378 44.2659 35.0316 44.024 34.4024 44.0295C33.7731 44.035 33.1712 44.2875 32.7263 44.7325C32.2814 45.1774 32.0289 45.7794 32.0234 46.4086C32.0179 47.0379 32.2598 47.6442 32.697 48.0968L39.8966 55.2968C40.1201 55.5202 40.3852 55.6974 40.6773 55.8181C40.9694 55.9388 41.2823 56.0005 41.5981 56H41.7061C42.0397 55.9851 42.3666 55.9009 42.6658 55.7526C42.9649 55.6042 43.2298 55.395 43.4436 55.1384L55.443 40.7384C55.645 40.4962 55.7972 40.2166 55.891 39.9157C55.9851 39.6145 56.0187 39.2979 55.9901 38.984C55.9616 38.6698 55.8713 38.3646 55.725 38.0854C55.5783 37.8061 55.3782 37.5586 55.1358 37.3568Z" fill="#F2E3CE"/>
</svg>
