<svg width="64" height="64" viewBox="0 0 64 64" fill="none" xmlns="http://www.w3.org/2000/svg">
<path d="M15.2 56H48.8C50.7094 56 52.5409 55.2414 53.8911 53.8911C55.2414 52.5409 56 50.7094 56 48.8V24.8C56 22.8904 55.2414 21.0591 53.8911 19.7088C52.5409 18.3586 50.7094 17.6 48.8 17.6H44V12.8C44 11.527 43.4943 10.3061 42.5941 9.4059C41.6938 8.5057 40.473 8 39.2 8H24.8C23.527 8 22.3061 8.5057 21.4059 9.4059C20.5057 10.3061 20 11.527 20 12.8V17.6H15.2C13.2904 17.6 11.4591 18.3586 10.1088 19.7088C8.75857 21.0591 8 22.8904 8 24.8V48.8C8 50.7094 8.75857 52.5409 10.1088 53.8911C11.4591 55.2414 13.2904 56 15.2 56ZM24.8 12.8H39.2V17.6H24.8V12.8ZM12.8 24.8C12.8 24.1635 13.0529 23.553 13.5029 23.1029C13.953 22.6529 14.5635 22.4 15.2 22.4H48.8C49.4365 22.4 50.047 22.6529 50.497 23.1029C50.947 23.553 51.2 24.1635 51.2 24.8V28.04L32 36.5744L12.8 28.04V24.8ZM12.8 33.2936L31.0256 41.3936C31.3323 41.5299 31.6642 41.6002 32 41.6002C32.3358 41.6002 32.6677 41.5299 32.9744 41.3936L51.2 33.2936V48.8C51.2 49.4365 50.947 50.047 50.497 50.497C50.047 50.947 49.4365 51.2 48.8 51.2H15.2C14.5635 51.2 13.953 50.947 13.5029 50.497C13.0529 50.047 12.8 49.4365 12.8 48.8V33.2936Z" fill="#F2E3CE"/>
</svg>
