<svg width="64" height="64" viewBox="0 0 64 64" fill="none" xmlns="http://www.w3.org/2000/svg">
<path fill-rule="evenodd" clip-rule="evenodd" d="M52.775 37.0613C52.1927 37.3906 51.6332 37.7584 51.1 38.1621C51.2872 38.8399 51.5298 39.5009 51.825 40.1386L51.8555 40.2124C52.6753 42.2006 53.682 44.6416 52.225 46.6432C50.75 48.6697 48.05 48.4696 45.875 48.2694C45.1842 48.2209 44.4907 48.2209 43.8 48.2694C43.639 48.6835 43.436 49.4993 43.2878 50.0947L43.25 50.2458C42.775 52.3724 42.15 55.0243 39.725 55.7999C39.3455 55.9249 38.9495 55.9925 38.55 56C36.7013 55.7491 34.9962 54.8649 33.725 53.4982C33.1907 52.9375 32.6143 52.4189 32 51.9471C31.3927 52.3549 30.8163 52.8062 30.275 53.298L30.2652 53.3066C28.642 54.7061 26.6203 56.4491 24.275 55.7999C21.925 55.1494 21.225 52.2973 20.75 50.1708L20.7123 50.0199C20.5641 49.4245 20.3609 48.6084 20.2 48.1944C19.5092 48.1458 18.8158 48.1458 18.125 48.1944C15.95 48.3945 13.275 48.6197 11.775 46.5682C10.3138 44.5698 11.2961 42.1915 12.1105 40.2199L12.175 40.0635C12.4704 39.4258 12.7128 38.7648 12.9 38.0871C12.3668 37.6833 11.8072 37.3155 11.225 36.9863C9.35 35.9355 7 34.4345 7 31.9327C7 29.4308 9.35 27.9298 11.225 26.929C11.8072 26.5999 12.3668 26.2322 12.9 25.8283C12.7128 25.1507 12.4704 24.4897 12.175 23.8519L12.1446 23.7782C11.3247 21.7899 10.3181 19.3489 11.775 17.3472C13.25 15.3207 15.95 15.5209 18.125 15.721C18.8158 15.7697 19.5092 15.7697 20.2 15.721C20.3609 15.307 20.5641 14.4911 20.7123 13.8956L20.75 13.7446C21.225 11.6181 21.85 8.96615 24.275 8.19059C26.6437 7.43302 28.5592 9.08644 30.1615 10.4693L30.275 10.5673C30.8163 11.0591 31.3927 11.5106 32 11.9183C32.6073 11.5106 33.1837 11.0591 33.725 10.5673L33.7707 10.528C35.3875 9.1338 37.3723 7.42229 39.725 8.19059C42.1 8.96615 42.775 11.6181 43.25 13.7446L43.2878 13.8956C43.436 14.4911 43.639 15.307 43.8 15.721C44.4907 15.7697 45.1842 15.7697 45.875 15.721C48.05 15.5209 50.725 15.2957 52.225 17.3472C53.6863 19.3456 52.704 21.7238 51.8895 23.6956L51.825 23.8519C51.5298 24.4897 51.2872 25.1507 51.1 25.8283C51.6332 26.2322 52.1927 26.5999 52.775 26.929C54.65 27.9298 57 29.4308 57 31.9327C57 34.4345 54.65 35.9355 52.775 37.0613ZM41.05 23.7268C42.1222 24.586 42.301 26.1501 41.45 27.2293L31.45 39.7383C31.012 40.2964 30.3575 40.6419 29.65 40.689H29.5C28.8355 40.693 28.1968 40.4318 27.725 39.9634L22.725 34.9598C21.7447 33.9789 21.7447 32.3882 22.725 31.4073C23.7053 30.4263 25.2947 30.4263 26.275 31.4073L29.3 34.4345L37.55 24.1271C38.4087 23.054 39.9715 22.8753 41.05 23.7268ZM50.2 31.082C50.575 31.3072 51.1 31.6324 51.525 31.9327C51.1 32.2329 50.575 32.5581 50.275 32.6081C48.545 33.3512 47.148 34.7044 46.35 36.4109C45.9862 38.292 46.3243 40.2414 47.3 41.8898L47.825 43.2158H46.375C44.5135 42.809 42.5675 43.0934 40.9 44.0164C39.4677 45.3105 38.5752 47.0968 38.4 49.02C38.3622 49.1716 38.3208 49.3445 38.277 49.5268C38.2052 49.8263 38.1277 50.1505 38.05 50.446C37.675 50.1708 37.275 49.8205 37 49.5704C35.694 48.1333 33.9235 47.2034 32 46.9435C30.0618 47.2992 28.3147 48.3377 27.075 49.8706C26.8 50.1208 26.4 50.471 26.025 50.7462C25.9874 50.6034 25.9408 50.4538 25.894 50.3034C25.785 49.9536 25.675 49.6001 25.675 49.3202C25.4998 47.397 24.6073 45.6108 23.175 44.3166C21.5076 43.3937 19.5616 43.1092 17.7 43.516H16.25L16.775 42.19C17.7508 40.5416 18.0888 38.5922 17.725 36.7111C16.927 35.0046 15.5301 33.6514 13.8 32.9084C13.425 32.6832 12.9 32.358 12.475 32.0577C12.9 31.7575 13.425 31.4323 13.8 31.2071C15.5301 30.4643 16.927 29.1109 17.725 27.4044C18.0888 25.5233 17.7508 23.574 16.775 21.9255L16.1 20.5995H17.55C19.4116 21.0065 21.3576 20.7219 23.025 19.799C24.4572 18.5049 25.3498 16.7184 25.525 14.7954C25.5628 14.6438 25.6043 14.4708 25.6479 14.2885C25.7196 13.9892 25.7973 13.6648 25.875 13.3693C26.25 13.6445 26.65 13.9948 26.925 14.245C28.25 15.6358 30.0182 16.5205 31.925 16.7468C33.8317 16.5205 35.6 15.6358 36.925 14.245C37.2 13.9948 37.6 13.6445 37.975 13.3693C38.0125 13.5122 38.0592 13.6619 38.106 13.8123C38.215 14.162 38.325 14.5154 38.325 14.7954C38.5002 16.7184 39.3927 18.5049 40.825 19.799C42.4925 20.7219 44.4385 21.0065 46.3 20.5995H47.75L47.225 21.9255C46.2795 23.5393 45.9425 25.4385 46.275 27.2793C47.073 28.9858 48.47 30.3393 50.2 31.082Z" fill="#F2E3CE"/>
</svg>
