<svg width="42" height="48" viewBox="0 0 42 48" fill="none" xmlns="http://www.w3.org/2000/svg">
<path fill-rule="evenodd" clip-rule="evenodd" d="M0.827852 0.700991C1.27794 0.250903 1.88839 -0.00195312 2.52491 -0.00195312L39.4751 -0.00195146C40.8006 -0.00195122 41.8751 1.07257 41.8751 2.39805V31.9583C41.8751 32.5077 41.6866 33.0404 41.3411 33.4676L30.3062 47.1108C29.8505 47.6741 29.1648 48.0015 28.4402 48.0015H2.52491C1.19942 48.0015 0.124908 46.927 0.124908 45.6015V2.39805C0.124908 1.76153 0.377765 1.15108 0.827852 0.700991ZM4.92491 4.79805V43.2015H26.0402V31.9583C26.0402 31.3218 26.293 30.7113 26.7431 30.2612C27.1932 29.8111 27.8037 29.5583 28.4402 29.5583L37.0751 29.5583V4.79805L4.92491 4.79805ZM34.4472 34.3583H30.8402V38.8178L34.4472 34.3583ZM8.08343 13.7674C8.08343 12.4419 9.15795 11.3674 10.4834 11.3674L31.4497 11.3674C32.7752 11.3674 33.8497 12.4419 33.8497 13.7674C33.8497 15.0929 32.7752 16.1674 31.4497 16.1674L10.4834 16.1674C9.15795 16.1674 8.08343 15.0929 8.08343 13.7674ZM8.08343 22.8628C8.08343 21.5373 9.15795 20.4628 10.4834 20.4628L31.4497 20.4628C32.7752 20.4628 33.8497 21.5373 33.8497 22.8628C33.8497 24.1883 32.7752 25.2628 31.4497 25.2628L10.4834 25.2628C9.15795 25.2628 8.08343 24.1883 8.08343 22.8628ZM8.08343 31.9583C8.08343 30.6328 9.15795 29.5583 10.4834 29.5583H20.9164C22.2419 29.5583 23.3164 30.6328 23.3164 31.9583C23.3164 33.2838 22.2419 34.3583 20.9164 34.3583H10.4834C9.15795 34.3583 8.08343 33.2838 8.08343 31.9583Z" fill="#F2E3CE"/>
</svg>
