<svg width="48" height="48" viewBox="0 0 48 48" fill="none" xmlns="http://www.w3.org/2000/svg">
<path fill-rule="evenodd" clip-rule="evenodd" d="M43.4033 4.59708C44.3406 5.53434 44.3406 7.05394 43.4033 7.99119L42.0932 9.30134C41.1559 10.2386 39.6363 10.2386 38.699 9.30134C37.7618 8.36408 37.7618 6.84448 38.699 5.90723L40.0092 4.59708C40.9464 3.65982 42.466 3.65982 43.4033 4.59708ZM23.3642 0.00195323C24.0008 0.0019561 24.6112 0.254818 25.0613 0.704911L47.295 22.939C48.2322 23.8762 48.2322 25.3958 47.295 26.3331L38.124 35.5041C37.6739 35.9542 37.0634 36.207 36.4269 36.207C35.7904 36.207 35.1799 35.9542 34.7299 35.5041L12.4962 13.27C11.5589 12.3327 11.5589 10.8132 12.4962 9.8759L21.6672 0.704897C22.1173 0.254807 22.7277 0.00195037 23.3642 0.00195323ZM23.3642 5.79608L17.5873 11.573L36.4269 30.4129L42.2038 24.636L23.3642 5.79608ZM46.7267 45.5976C46.7268 46.9231 45.6524 47.9977 44.3269 47.9979C43.2786 47.998 31.6618 47.9979 25.9846 47.9979C24.6592 47.9978 23.5847 46.9233 23.5847 45.5978C23.5847 44.2724 24.6592 43.1978 25.9847 43.1979C31.6621 43.1979 43.2785 43.198 44.3264 43.1979C45.6519 43.1977 46.7265 44.2721 46.7267 45.5976ZM21.1309 26.8692C22.0681 27.8065 22.0681 29.3261 21.1309 30.2633L4.09913 47.295C3.16187 48.2323 1.64228 48.2323 0.705019 47.295C-0.232239 46.3578 -0.232239 44.8382 0.705018 43.9009L17.7367 26.8692C18.674 25.9319 20.1936 25.9319 21.1309 26.8692Z" fill="#F2E3CE"/>
</svg>
