<svg width="44" height="44" viewBox="0 0 44 44" fill="none" xmlns="http://www.w3.org/2000/svg">
<path fill-rule="evenodd" clip-rule="evenodd" d="M22 -0.000488281C23.3255 -0.000488281 24.4 1.07403 24.4 2.39951V7.34961H31.8001C33.1256 7.34961 34.2001 8.42412 34.2001 9.74961C34.2001 11.0751 33.1256 12.1496 31.8001 12.1496H24.4V39.2H31.8001C33.1256 39.2 34.2001 40.2745 34.2001 41.6C34.2001 42.9255 33.1256 44 31.8001 44H22H12.1999C10.8744 44 9.79989 42.9255 9.79989 41.6C9.79989 40.2745 10.8744 39.2 12.1999 39.2H19.6V12.1496H12.1999C10.8744 12.1496 9.79989 11.0751 9.79989 9.74961C9.79989 8.42412 10.8744 7.34961 12.1999 7.34961H19.6V2.39951C19.6 1.07403 20.6745 -0.000488281 22 -0.000488281ZM7.29982 9.79964C8.20887 9.79964 9.03991 10.3132 9.44645 11.1263L14.3465 20.9265C14.7185 21.6704 14.6787 22.554 14.2414 23.2615C13.8042 23.9691 13.0317 24.3998 12.1999 24.3998H2.39976C1.56797 24.3998 0.795492 23.9691 0.358196 23.2615C-0.0790994 22.554 -0.118853 21.6704 0.253133 20.9265L5.1532 11.1263C5.55974 10.3132 6.39077 9.79964 7.29982 9.79964ZM36.7002 9.79964C37.6093 9.79964 38.4403 10.3132 38.8468 11.1263L43.7469 20.9265C44.1189 21.6704 44.0791 22.554 43.6418 23.2615C43.2045 23.9691 42.4321 24.3998 41.6003 24.3998H31.8001C30.9684 24.3998 30.1959 23.9691 29.7586 23.2615C29.3213 22.554 29.2815 21.6704 29.6535 20.9265L34.5536 11.1263C34.9601 10.3132 35.7911 9.79964 36.7002 9.79964ZM6.28304 19.5998H8.3166L7.29982 17.5662L6.28304 19.5998ZM35.6834 19.5998H37.717L36.7002 17.5662L35.6834 19.5998Z" fill="#F2E3CE"/>
</svg>
