<svg width="64" height="64" viewBox="0 0 64 64" fill="none" xmlns="http://www.w3.org/2000/svg">
<path d="M40.4692 29.6504C42.9506 28.1617 45.0067 26.0471 46.4364 23.514C47.866 20.981 48.6203 18.1161 48.625 15.2V12.8H51V8H13V12.8H15.375V15.2C15.3798 18.1161 16.134 20.981 17.5636 23.514C18.9933 26.0471 21.0494 28.1617 23.5308 29.6504C24.3715 30.1496 24.875 30.9584 24.875 31.8104V32.1896C24.875 33.0392 24.3715 33.8456 23.5308 34.3496C21.0494 35.8383 18.9933 37.953 17.5636 40.4859C16.134 43.0191 15.3798 45.884 15.375 48.8V51.2H13V56H51V51.2H48.625V48.8C48.6205 45.8845 47.8667 43.0201 46.4374 40.4874C45.0081 37.9546 42.9526 35.8405 40.4716 34.352C39.6285 33.848 39.125 33.0392 39.125 32.1896V31.8104C39.125 30.9584 39.6285 30.1496 40.4692 29.6504ZM38.0586 38.4848C39.8289 39.5482 41.2955 41.0578 42.3151 42.866C43.3347 44.6742 43.8722 46.719 43.875 48.8V51.2H20.125V48.8C20.1281 46.7182 20.666 44.6732 21.6859 42.8646C22.7059 41.0562 24.173 39.5461 25.9437 38.4824C28.2499 37.1072 29.625 34.7528 29.625 32.1896V31.8104C29.625 29.2448 28.2475 26.888 25.9414 25.5152C24.1711 24.4518 22.7044 22.9421 21.6849 21.134C20.6653 19.3258 20.1278 17.2811 20.125 15.2V12.8H43.875V15.2C43.875 19.424 41.6472 23.3744 38.0586 25.5152C35.7525 26.888 34.375 29.2448 34.375 31.8104V32.1896C34.375 34.7528 35.7501 37.1072 38.0586 38.4848Z" fill="#F2E3CE"/>
</svg>
