<svg width="235" height="236" viewBox="0 0 235 236" fill="none" xmlns="http://www.w3.org/2000/svg">
<rect x="1" y="1.5" width="233" height="233" rx="116.5" fill="#171B26"/>
<rect x="1" y="1.5" width="233" height="233" rx="116.5" stroke="#EBD2B0" stroke-width="2"/>
<path d="M114.481 95.2386C113.583 95.233 112.717 95.0824 111.881 94.7869C111.052 94.4915 110.308 94.0114 109.648 93.3466C108.989 92.6818 108.467 91.8011 108.08 90.7045C107.7 89.608 107.509 88.2614 107.509 86.6648C107.515 85.1989 107.683 83.8892 108.012 82.7358C108.347 81.5767 108.825 80.5937 109.444 79.7869C110.069 78.9801 110.816 78.3665 111.685 77.946C112.555 77.5199 113.529 77.3068 114.609 77.3068C115.773 77.3068 116.802 77.5341 117.694 77.9886C118.586 78.4375 119.302 79.0483 119.842 79.821C120.387 80.5938 120.717 81.4602 120.83 82.4205H117.191C117.049 81.8125 116.751 81.3352 116.296 80.9886C115.842 80.642 115.279 80.4688 114.609 80.4688C113.472 80.4688 112.609 80.9631 112.018 81.9517C111.433 82.9403 111.134 84.2841 111.123 85.983H111.242C111.504 85.4659 111.856 85.0256 112.299 84.6619C112.748 84.2926 113.256 84.0114 113.825 83.8182C114.398 83.6193 115.004 83.5199 115.64 83.5199C116.674 83.5199 117.594 83.7642 118.401 84.2528C119.208 84.7358 119.844 85.4006 120.31 86.2472C120.776 87.0937 121.009 88.0625 121.009 89.1534C121.009 90.3352 120.734 91.3864 120.183 92.3068C119.637 93.2273 118.873 93.9489 117.89 94.4716C116.913 94.9886 115.776 95.2443 114.481 95.2386ZM114.464 92.3409C115.032 92.3409 115.54 92.2045 115.989 91.9318C116.438 91.6591 116.79 91.2898 117.046 90.8239C117.302 90.358 117.43 89.8352 117.43 89.2557C117.43 88.6761 117.302 88.1562 117.046 87.696C116.796 87.2358 116.45 86.8693 116.006 86.5966C115.563 86.3239 115.058 86.1875 114.489 86.1875C114.063 86.1875 113.668 86.267 113.305 86.4261C112.947 86.5852 112.631 86.8068 112.359 87.0909C112.092 87.375 111.881 87.7045 111.728 88.0795C111.575 88.4489 111.498 88.8437 111.498 89.2642C111.498 89.8267 111.626 90.3409 111.881 90.8068C112.143 91.2727 112.495 91.6449 112.938 91.9233C113.387 92.2017 113.896 92.3409 114.464 92.3409ZM125.055 95.2216C124.493 95.2216 124.01 95.0227 123.607 94.625C123.209 94.2216 123.01 93.7386 123.01 93.1761C123.01 92.6193 123.209 92.142 123.607 91.7443C124.01 91.3466 124.493 91.1477 125.055 91.1477C125.601 91.1477 126.078 91.3466 126.487 91.7443C126.896 92.142 127.101 92.6193 127.101 93.1761C127.101 93.5511 127.004 93.8949 126.811 94.2074C126.624 94.5142 126.376 94.7614 126.07 94.9489C125.763 95.1307 125.425 95.2216 125.055 95.2216Z" fill="#EBD2B0"/>
<path d="M63.6747 115H61.5611C61.4361 114.392 61.2173 113.858 60.9048 113.398C60.598 112.938 60.223 112.551 59.7798 112.239C59.3423 111.92 58.8565 111.682 58.3224 111.523C57.7884 111.364 57.2315 111.284 56.652 111.284C55.5952 111.284 54.6378 111.551 53.7798 112.085C52.9276 112.619 52.2486 113.406 51.7429 114.446C51.2429 115.486 50.9929 116.761 50.9929 118.273C50.9929 119.784 51.2429 121.06 51.7429 122.099C52.2486 123.139 52.9276 123.926 53.7798 124.46C54.6378 124.994 55.5952 125.261 56.652 125.261C57.2315 125.261 57.7884 125.182 58.3224 125.023C58.8565 124.864 59.3423 124.628 59.7798 124.315C60.223 123.997 60.598 123.608 60.9048 123.148C61.2173 122.682 61.4361 122.148 61.5611 121.545H63.6747C63.5156 122.437 63.2259 123.236 62.8054 123.94C62.3849 124.645 61.8622 125.244 61.2372 125.739C60.6122 126.227 59.9105 126.599 59.1321 126.855C58.3594 127.111 57.5327 127.239 56.652 127.239C55.1634 127.239 53.8395 126.875 52.6804 126.148C51.5213 125.42 50.6094 124.386 49.9446 123.045C49.2798 121.705 48.9474 120.114 48.9474 118.273C48.9474 116.432 49.2798 114.841 49.9446 113.5C50.6094 112.159 51.5213 111.125 52.6804 110.398C53.8395 109.67 55.1634 109.307 56.652 109.307C57.5327 109.307 58.3594 109.435 59.1321 109.69C59.9105 109.946 60.6122 110.321 61.2372 110.815C61.8622 111.304 62.3849 111.901 62.8054 112.605C63.2259 113.304 63.5156 114.102 63.6747 115ZM72.1357 127.273C70.9538 127.273 69.9169 126.991 69.0249 126.429C68.1385 125.866 67.4453 125.08 66.9453 124.068C66.451 123.057 66.2038 121.875 66.2038 120.523C66.2038 119.159 66.451 117.969 66.9453 116.952C67.4453 115.935 68.1385 115.145 69.0249 114.582C69.9169 114.02 70.9538 113.739 72.1357 113.739C73.3175 113.739 74.3516 114.02 75.2379 114.582C76.13 115.145 76.8232 115.935 77.3175 116.952C77.8175 117.969 78.0675 119.159 78.0675 120.523C78.0675 121.875 77.8175 123.057 77.3175 124.068C76.8232 125.08 76.13 125.866 75.2379 126.429C74.3516 126.991 73.3175 127.273 72.1357 127.273ZM72.1357 125.466C73.0334 125.466 73.772 125.236 74.3516 124.776C74.9311 124.315 75.3601 123.71 75.6385 122.96C75.9169 122.21 76.0561 121.398 76.0561 120.523C76.0561 119.648 75.9169 118.832 75.6385 118.077C75.3601 117.321 74.9311 116.71 74.3516 116.244C73.772 115.778 73.0334 115.545 72.1357 115.545C71.2379 115.545 70.4993 115.778 69.9197 116.244C69.3402 116.71 68.9112 117.321 68.6328 118.077C68.3544 118.832 68.2152 119.648 68.2152 120.523C68.2152 121.398 68.3544 122.21 68.6328 122.96C68.9112 123.71 69.3402 124.315 69.9197 124.776C70.4993 125.236 71.2379 125.466 72.1357 125.466ZM83.1491 119.125V127H81.1378V113.909H83.081V115.955H83.2514C83.5582 115.29 84.0241 114.756 84.6491 114.352C85.2741 113.943 86.081 113.739 87.0696 113.739C87.956 113.739 88.7315 113.92 89.3963 114.284C90.0611 114.642 90.5781 115.188 90.9474 115.92C91.3168 116.648 91.5014 117.568 91.5014 118.682V127H89.4901V118.818C89.4901 117.79 89.223 116.989 88.6889 116.415C88.1548 115.835 87.4219 115.545 86.4901 115.545C85.848 115.545 85.2741 115.685 84.7685 115.963C84.2685 116.241 83.8736 116.648 83.5838 117.182C83.294 117.716 83.1491 118.364 83.1491 119.125ZM100.495 127.273C99.2678 127.273 98.2109 126.983 97.3246 126.403C96.4382 125.824 95.7564 125.026 95.2791 124.009C94.8018 122.991 94.5632 121.83 94.5632 120.523C94.5632 119.193 94.8075 118.02 95.2962 117.003C95.7905 115.98 96.478 115.182 97.3587 114.608C98.245 114.028 99.2791 113.739 100.461 113.739C101.381 113.739 102.211 113.909 102.95 114.25C103.688 114.591 104.293 115.068 104.765 115.682C105.237 116.295 105.529 117.011 105.643 117.83H103.631C103.478 117.233 103.137 116.705 102.609 116.244C102.086 115.778 101.381 115.545 100.495 115.545C99.7109 115.545 99.0234 115.75 98.4325 116.159C97.8473 116.562 97.3899 117.134 97.0604 117.872C96.7365 118.605 96.5746 119.466 96.5746 120.455C96.5746 121.466 96.7337 122.347 97.0518 123.097C97.3757 123.847 97.8303 124.429 98.4155 124.844C99.0064 125.259 99.6996 125.466 100.495 125.466C101.018 125.466 101.492 125.375 101.918 125.193C102.344 125.011 102.705 124.75 103.001 124.409C103.296 124.068 103.506 123.659 103.631 123.182H105.643C105.529 123.955 105.248 124.651 104.799 125.27C104.356 125.884 103.768 126.372 103.035 126.736C102.308 127.094 101.461 127.273 100.495 127.273ZM110.594 109.545V127H108.583V109.545H110.594ZM122.528 121.648V113.909H124.54V127H122.528V124.784H122.392C122.085 125.449 121.608 126.014 120.96 126.48C120.313 126.94 119.494 127.17 118.506 127.17C117.688 127.17 116.96 126.991 116.324 126.634C115.688 126.27 115.188 125.724 114.824 124.997C114.46 124.264 114.278 123.341 114.278 122.227V113.909H116.29V122.091C116.29 123.045 116.557 123.807 117.091 124.375C117.631 124.943 118.318 125.227 119.153 125.227C119.653 125.227 120.162 125.099 120.679 124.844C121.202 124.588 121.639 124.196 121.991 123.668C122.349 123.139 122.528 122.466 122.528 121.648ZM137.496 116.841L135.69 117.352C135.576 117.051 135.408 116.759 135.187 116.474C134.971 116.185 134.675 115.946 134.3 115.759C133.925 115.571 133.445 115.477 132.86 115.477C132.059 115.477 131.391 115.662 130.857 116.031C130.329 116.395 130.065 116.858 130.065 117.42C130.065 117.92 130.246 118.315 130.61 118.605C130.974 118.895 131.542 119.136 132.315 119.33L134.258 119.807C135.428 120.091 136.3 120.526 136.874 121.111C137.448 121.69 137.735 122.437 137.735 123.352C137.735 124.102 137.519 124.773 137.087 125.364C136.661 125.955 136.065 126.42 135.298 126.761C134.531 127.102 133.638 127.273 132.621 127.273C131.286 127.273 130.181 126.983 129.306 126.403C128.431 125.824 127.877 124.977 127.644 123.864L129.553 123.386C129.735 124.091 130.079 124.619 130.585 124.972C131.096 125.324 131.763 125.5 132.587 125.5C133.525 125.5 134.269 125.301 134.82 124.903C135.377 124.5 135.656 124.017 135.656 123.455C135.656 123 135.496 122.619 135.178 122.312C134.86 122 134.371 121.767 133.712 121.614L131.531 121.102C130.332 120.818 129.451 120.378 128.888 119.781C128.332 119.179 128.053 118.426 128.053 117.523C128.053 116.784 128.261 116.131 128.675 115.562C129.096 114.994 129.667 114.548 130.388 114.224C131.116 113.901 131.94 113.739 132.86 113.739C134.156 113.739 135.173 114.023 135.911 114.591C136.656 115.159 137.184 115.909 137.496 116.841ZM144.615 127.307C143.786 127.307 143.033 127.151 142.357 126.838C141.68 126.52 141.143 126.062 140.746 125.466C140.348 124.864 140.149 124.136 140.149 123.284C140.149 122.534 140.297 121.926 140.592 121.46C140.888 120.989 141.283 120.619 141.777 120.352C142.271 120.085 142.817 119.886 143.413 119.756C144.016 119.619 144.621 119.511 145.229 119.432C146.024 119.33 146.669 119.253 147.163 119.202C147.663 119.145 148.027 119.051 148.254 118.92C148.487 118.79 148.604 118.562 148.604 118.239V118.17C148.604 117.33 148.374 116.676 147.913 116.21C147.459 115.744 146.768 115.511 145.842 115.511C144.882 115.511 144.129 115.722 143.584 116.142C143.038 116.562 142.655 117.011 142.433 117.489L140.524 116.807C140.865 116.011 141.32 115.392 141.888 114.949C142.462 114.5 143.087 114.187 143.763 114.011C144.445 113.83 145.115 113.739 145.774 113.739C146.195 113.739 146.678 113.79 147.223 113.892C147.774 113.989 148.305 114.19 148.817 114.497C149.334 114.804 149.763 115.267 150.104 115.886C150.445 116.506 150.615 117.335 150.615 118.375V127H148.604V125.227H148.501C148.365 125.511 148.138 125.815 147.82 126.139C147.501 126.463 147.078 126.739 146.55 126.966C146.021 127.193 145.376 127.307 144.615 127.307ZM144.922 125.5C145.717 125.5 146.388 125.344 146.933 125.031C147.484 124.719 147.899 124.315 148.178 123.821C148.462 123.327 148.604 122.807 148.604 122.261V120.42C148.518 120.523 148.331 120.616 148.041 120.702C147.757 120.781 147.428 120.852 147.053 120.915C146.683 120.972 146.322 121.023 145.97 121.068C145.624 121.108 145.342 121.142 145.126 121.17C144.604 121.239 144.115 121.349 143.661 121.503C143.212 121.651 142.848 121.875 142.57 122.176C142.297 122.472 142.161 122.875 142.161 123.386C142.161 124.085 142.419 124.614 142.936 124.972C143.459 125.324 144.121 125.5 144.922 125.5ZM143.286 112.341L141.717 112.273C141.717 111.403 141.964 110.693 142.459 110.142C142.959 109.585 143.575 109.307 144.308 109.307C144.632 109.307 144.919 109.364 145.169 109.477C145.419 109.585 145.658 109.71 145.885 109.852C146.112 109.994 146.345 110.122 146.584 110.236C146.828 110.344 147.104 110.398 147.411 110.398C147.734 110.398 148.007 110.273 148.229 110.023C148.456 109.767 148.57 109.46 148.57 109.102L150.104 109.239C150.104 110.125 149.854 110.83 149.354 111.352C148.859 111.875 148.246 112.136 147.513 112.136C147.121 112.136 146.797 112.082 146.541 111.974C146.286 111.861 146.058 111.733 145.859 111.591C145.661 111.449 145.45 111.324 145.229 111.216C145.007 111.102 144.734 111.045 144.411 111.045C144.087 111.045 143.817 111.173 143.601 111.429C143.391 111.679 143.286 111.983 143.286 112.341ZM159.604 127.273C158.423 127.273 157.386 126.991 156.494 126.429C155.607 125.866 154.914 125.08 154.414 124.068C153.92 123.057 153.673 121.875 153.673 120.523C153.673 119.159 153.92 117.969 154.414 116.952C154.914 115.935 155.607 115.145 156.494 114.582C157.386 114.02 158.423 113.739 159.604 113.739C160.786 113.739 161.82 114.02 162.707 114.582C163.599 115.145 164.292 115.935 164.786 116.952C165.286 117.969 165.536 119.159 165.536 120.523C165.536 121.875 165.286 123.057 164.786 124.068C164.292 125.08 163.599 125.866 162.707 126.429C161.82 126.991 160.786 127.273 159.604 127.273ZM159.604 125.466C160.502 125.466 161.241 125.236 161.82 124.776C162.4 124.315 162.829 123.71 163.107 122.96C163.386 122.21 163.525 121.398 163.525 120.523C163.525 119.648 163.386 118.832 163.107 118.077C162.829 117.321 162.4 116.71 161.82 116.244C161.241 115.778 160.502 115.545 159.604 115.545C158.707 115.545 157.968 115.778 157.388 116.244C156.809 116.71 156.38 117.321 156.102 118.077C155.823 118.832 155.684 119.648 155.684 120.523C155.684 121.398 155.823 122.21 156.102 122.96C156.38 123.71 156.809 124.315 157.388 124.776C157.968 125.236 158.707 125.466 159.604 125.466ZM180.845 127.273C179.584 127.273 178.496 126.994 177.581 126.438C176.672 125.875 175.97 125.091 175.476 124.085C174.987 123.074 174.743 121.898 174.743 120.557C174.743 119.216 174.987 118.034 175.476 117.011C175.97 115.983 176.658 115.182 177.538 114.608C178.425 114.028 179.459 113.739 180.641 113.739C181.322 113.739 181.996 113.852 182.661 114.08C183.325 114.307 183.93 114.676 184.476 115.188C185.021 115.693 185.456 116.364 185.78 117.199C186.104 118.034 186.266 119.062 186.266 120.284V121.136H176.175V119.398H184.22C184.22 118.659 184.072 118 183.777 117.42C183.487 116.841 183.072 116.384 182.533 116.048C181.999 115.713 181.368 115.545 180.641 115.545C179.839 115.545 179.146 115.744 178.561 116.142C177.982 116.534 177.536 117.045 177.223 117.676C176.911 118.307 176.754 118.983 176.754 119.705V120.864C176.754 121.852 176.925 122.69 177.266 123.378C177.612 124.06 178.092 124.58 178.706 124.938C179.32 125.29 180.033 125.466 180.845 125.466C181.374 125.466 181.851 125.392 182.277 125.244C182.709 125.091 183.081 124.864 183.393 124.562C183.706 124.256 183.947 123.875 184.118 123.42L186.061 123.966C185.857 124.625 185.513 125.205 185.03 125.705C184.547 126.199 183.95 126.585 183.24 126.864C182.53 127.136 181.732 127.273 180.845 127.273ZM75.7386 159V141.545H86.2727V143.42H77.8523V149.318H85.7273V151.193H77.8523V157.125H86.4091V159H75.7386ZM91.821 151.125V159H89.8097V145.909H91.7528V147.955H91.9233C92.2301 147.29 92.696 146.756 93.321 146.352C93.946 145.943 94.7528 145.739 95.7415 145.739C96.6278 145.739 97.4034 145.92 98.0682 146.284C98.733 146.642 99.25 147.188 99.6193 147.92C99.9886 148.648 100.173 149.568 100.173 150.682V159H98.1619V150.818C98.1619 149.79 97.8949 148.989 97.3608 148.415C96.8267 147.835 96.0938 147.545 95.1619 147.545C94.5199 147.545 93.946 147.685 93.4403 147.963C92.9403 148.241 92.5455 148.648 92.2557 149.182C91.9659 149.716 91.821 150.364 91.821 151.125ZM109.542 145.909V147.614H102.758V145.909H109.542ZM104.735 142.773H106.746V155.25C106.746 155.818 106.829 156.244 106.994 156.528C107.164 156.807 107.38 156.994 107.641 157.091C107.908 157.182 108.19 157.227 108.485 157.227C108.707 157.227 108.888 157.216 109.031 157.193C109.173 157.165 109.286 157.142 109.371 157.125L109.781 158.932C109.644 158.983 109.454 159.034 109.21 159.085C108.965 159.142 108.656 159.17 108.281 159.17C107.712 159.17 107.156 159.048 106.61 158.804C106.07 158.56 105.621 158.188 105.263 157.688C104.911 157.188 104.735 156.557 104.735 155.795V142.773ZM112.567 159V145.909H114.511V147.886H114.647C114.886 147.239 115.317 146.713 115.942 146.31C116.567 145.906 117.272 145.705 118.056 145.705C118.204 145.705 118.388 145.707 118.61 145.713C118.832 145.719 118.999 145.727 119.113 145.739V147.784C119.045 147.767 118.888 147.741 118.644 147.707C118.406 147.668 118.153 147.648 117.886 147.648C117.249 147.648 116.681 147.781 116.181 148.048C115.687 148.31 115.295 148.673 115.005 149.139C114.721 149.599 114.579 150.125 114.579 150.716V159H112.567ZM126.587 159.273C125.326 159.273 124.238 158.994 123.323 158.438C122.414 157.875 121.712 157.091 121.218 156.085C120.729 155.074 120.485 153.898 120.485 152.557C120.485 151.216 120.729 150.034 121.218 149.011C121.712 147.983 122.4 147.182 123.281 146.608C124.167 146.028 125.201 145.739 126.383 145.739C127.065 145.739 127.738 145.852 128.403 146.08C129.067 146.307 129.673 146.676 130.218 147.188C130.763 147.693 131.198 148.364 131.522 149.199C131.846 150.034 132.008 151.062 132.008 152.284V153.136H121.917V151.398H129.962C129.962 150.659 129.815 150 129.519 149.42C129.229 148.841 128.815 148.384 128.275 148.048C127.741 147.713 127.11 147.545 126.383 147.545C125.582 147.545 124.888 147.744 124.303 148.142C123.724 148.534 123.278 149.045 122.965 149.676C122.653 150.307 122.496 150.983 122.496 151.705V152.864C122.496 153.852 122.667 154.69 123.008 155.378C123.354 156.06 123.835 156.58 124.448 156.938C125.062 157.29 125.775 157.466 126.587 157.466C127.116 157.466 127.593 157.392 128.019 157.244C128.451 157.091 128.823 156.864 129.136 156.562C129.448 156.256 129.69 155.875 129.86 155.42L131.803 155.966C131.599 156.625 131.255 157.205 130.772 157.705C130.289 158.199 129.692 158.585 128.982 158.864C128.272 159.136 127.474 159.273 126.587 159.273ZM140.352 164.182C139.38 164.182 138.545 164.057 137.846 163.807C137.147 163.562 136.565 163.239 136.099 162.835C135.638 162.438 135.272 162.011 134.999 161.557L136.602 160.432C136.783 160.67 137.013 160.943 137.292 161.25C137.57 161.562 137.951 161.832 138.434 162.06C138.923 162.293 139.562 162.409 140.352 162.409C141.408 162.409 142.281 162.153 142.968 161.642C143.656 161.131 143.999 160.33 143.999 159.239V156.58H143.829C143.681 156.818 143.471 157.114 143.198 157.466C142.931 157.812 142.545 158.122 142.039 158.395C141.539 158.662 140.863 158.795 140.011 158.795C138.954 158.795 138.005 158.545 137.164 158.045C136.329 157.545 135.667 156.818 135.178 155.864C134.695 154.909 134.454 153.75 134.454 152.386C134.454 151.045 134.69 149.878 135.161 148.884C135.633 147.884 136.289 147.111 137.13 146.565C137.971 146.014 138.942 145.739 140.045 145.739C140.897 145.739 141.573 145.881 142.073 146.165C142.579 146.443 142.965 146.761 143.232 147.119C143.505 147.472 143.715 147.761 143.863 147.989H144.067V145.909H146.011V159.375C146.011 160.5 145.755 161.415 145.244 162.119C144.738 162.83 144.056 163.349 143.198 163.679C142.346 164.014 141.397 164.182 140.352 164.182ZM140.283 156.989C141.09 156.989 141.772 156.804 142.329 156.435C142.886 156.065 143.309 155.534 143.599 154.841C143.888 154.148 144.033 153.318 144.033 152.352C144.033 151.409 143.891 150.577 143.607 149.855C143.323 149.134 142.903 148.568 142.346 148.159C141.789 147.75 141.102 147.545 140.283 147.545C139.431 147.545 138.721 147.761 138.153 148.193C137.59 148.625 137.167 149.205 136.883 149.932C136.604 150.659 136.465 151.466 136.465 152.352C136.465 153.261 136.607 154.065 136.891 154.764C137.181 155.457 137.607 156.003 138.17 156.401C138.738 156.793 139.442 156.989 140.283 156.989ZM153.545 159.307C152.715 159.307 151.962 159.151 151.286 158.838C150.61 158.52 150.073 158.062 149.675 157.466C149.278 156.864 149.079 156.136 149.079 155.284C149.079 154.534 149.227 153.926 149.522 153.46C149.817 152.989 150.212 152.619 150.707 152.352C151.201 152.085 151.746 151.886 152.343 151.756C152.945 151.619 153.55 151.511 154.158 151.432C154.954 151.33 155.599 151.253 156.093 151.202C156.593 151.145 156.957 151.051 157.184 150.92C157.417 150.79 157.533 150.562 157.533 150.239V150.17C157.533 149.33 157.303 148.676 156.843 148.21C156.388 147.744 155.698 147.511 154.772 147.511C153.812 147.511 153.059 147.722 152.513 148.142C151.968 148.562 151.585 149.011 151.363 149.489L149.454 148.807C149.795 148.011 150.249 147.392 150.817 146.949C151.391 146.5 152.016 146.187 152.692 146.011C153.374 145.83 154.045 145.739 154.704 145.739C155.124 145.739 155.607 145.79 156.153 145.892C156.704 145.989 157.235 146.19 157.746 146.497C158.263 146.804 158.692 147.267 159.033 147.886C159.374 148.506 159.545 149.335 159.545 150.375V159H157.533V157.227H157.431C157.295 157.511 157.067 157.815 156.749 158.139C156.431 158.463 156.008 158.739 155.479 158.966C154.951 159.193 154.306 159.307 153.545 159.307ZM153.852 157.5C154.647 157.5 155.317 157.344 155.863 157.031C156.414 156.719 156.829 156.315 157.107 155.821C157.391 155.327 157.533 154.807 157.533 154.261V152.42C157.448 152.523 157.261 152.616 156.971 152.702C156.687 152.781 156.357 152.852 155.982 152.915C155.613 152.972 155.252 153.023 154.9 153.068C154.553 153.108 154.272 153.142 154.056 153.17C153.533 153.239 153.045 153.349 152.59 153.503C152.141 153.651 151.778 153.875 151.499 154.176C151.227 154.472 151.09 154.875 151.09 155.386C151.09 156.085 151.349 156.614 151.866 156.972C152.388 157.324 153.05 157.5 153.852 157.5Z" fill="#F7F4EF"/>
</svg>
