<svg width="235" height="236" viewBox="0 0 235 236" fill="none" xmlns="http://www.w3.org/2000/svg">
<rect x="1" y="1.5" width="233" height="233" rx="116.5" fill="#171B26"/>
<rect x="1" y="1.5" width="233" height="233" rx="116.5" stroke="#EBD2B0" stroke-width="2"/>
<path d="M114.128 95.2386C112.855 95.2386 111.722 95.0199 110.728 94.5824C109.739 94.1392 108.958 93.5312 108.384 92.7585C107.816 91.9801 107.523 91.0824 107.506 90.0653H111.222C111.245 90.4915 111.384 90.8665 111.64 91.1903C111.901 91.5085 112.248 91.7557 112.679 91.9318C113.111 92.108 113.597 92.196 114.137 92.196C114.699 92.196 115.196 92.0966 115.628 91.8977C116.06 91.6989 116.398 91.4233 116.642 91.071C116.887 90.7187 117.009 90.3125 117.009 89.8523C117.009 89.3864 116.878 88.9744 116.617 88.6165C116.361 88.2528 115.992 87.9687 115.509 87.7642C115.032 87.5597 114.463 87.4574 113.804 87.4574H112.176V84.7472H113.804C114.361 84.7472 114.853 84.6506 115.279 84.4574C115.711 84.2642 116.046 83.9972 116.284 83.6562C116.523 83.3097 116.642 82.9062 116.642 82.446C116.642 82.0085 116.537 81.625 116.327 81.2955C116.123 80.9602 115.833 80.6989 115.458 80.5114C115.088 80.3239 114.657 80.2301 114.162 80.2301C113.662 80.2301 113.205 80.321 112.79 80.5028C112.375 80.679 112.043 80.9318 111.793 81.2614C111.543 81.5909 111.409 81.9773 111.392 82.4205H107.855C107.873 81.4148 108.159 80.5284 108.716 79.7614C109.273 78.9943 110.023 78.3949 110.966 77.9631C111.915 77.5256 112.986 77.3068 114.179 77.3068C115.384 77.3068 116.438 77.5256 117.341 77.9631C118.245 78.4006 118.946 78.9915 119.446 79.7358C119.952 80.4744 120.202 81.304 120.196 82.2244C120.202 83.2017 119.898 84.017 119.284 84.6705C118.676 85.3239 117.884 85.7386 116.907 85.9148V86.0511C118.191 86.2159 119.168 86.6619 119.838 87.3892C120.515 88.1108 120.85 89.0142 120.844 90.0994C120.85 91.0938 120.563 91.9773 119.983 92.75C119.409 93.5227 118.617 94.1307 117.605 94.5739C116.594 95.017 115.435 95.2386 114.128 95.2386ZM125.161 95.2216C124.598 95.2216 124.115 95.0227 123.712 94.625C123.314 94.2216 123.115 93.7386 123.115 93.1761C123.115 92.6193 123.314 92.142 123.712 91.7443C124.115 91.3466 124.598 91.1477 125.161 91.1477C125.706 91.1477 126.184 91.3466 126.593 91.7443C127.002 92.142 127.206 92.6193 127.206 93.1761C127.206 93.5511 127.11 93.8949 126.917 94.2074C126.729 94.5142 126.482 94.7614 126.175 94.9489C125.868 95.1307 125.53 95.2216 125.161 95.2216Z" fill="#EBD2B0"/>
<path d="M42.2411 115H40.1275C40.0025 114.392 39.7837 113.858 39.4712 113.398C39.1644 112.938 38.7894 112.551 38.3462 112.239C37.9087 111.92 37.4229 111.682 36.8888 111.523C36.3548 111.364 35.7979 111.284 35.2184 111.284C34.1616 111.284 33.2042 111.551 32.3462 112.085C31.494 112.619 30.815 113.406 30.3093 114.446C29.8093 115.486 29.5593 116.761 29.5593 118.273C29.5593 119.784 29.8093 121.06 30.3093 122.099C30.815 123.139 31.494 123.926 32.3462 124.46C33.2042 124.994 34.1616 125.261 35.2184 125.261C35.7979 125.261 36.3548 125.182 36.8888 125.023C37.4229 124.864 37.9087 124.628 38.3462 124.315C38.7894 123.997 39.1644 123.608 39.4712 123.148C39.7837 122.682 40.0025 122.148 40.1275 121.545H42.2411C42.082 122.437 41.7923 123.236 41.3718 123.94C40.9514 124.645 40.4286 125.244 39.8036 125.739C39.1786 126.227 38.4769 126.599 37.6985 126.855C36.9258 127.111 36.0991 127.239 35.2184 127.239C33.7298 127.239 32.4059 126.875 31.2468 126.148C30.0877 125.42 29.1758 124.386 28.511 123.045C27.8462 121.705 27.5138 120.114 27.5138 118.273C27.5138 116.432 27.8462 114.841 28.511 113.5C29.1758 112.159 30.0877 111.125 31.2468 110.398C32.4059 109.67 33.7298 109.307 35.2184 109.307C36.0991 109.307 36.9258 109.435 37.6985 109.69C38.4769 109.946 39.1786 110.321 39.8036 110.815C40.4286 111.304 40.9514 111.901 41.3718 112.605C41.7923 113.304 42.082 114.102 42.2411 115ZM50.7021 127.273C49.5202 127.273 48.4833 126.991 47.5913 126.429C46.7049 125.866 46.0117 125.08 45.5117 124.068C45.0174 123.057 44.7702 121.875 44.7702 120.523C44.7702 119.159 45.0174 117.969 45.5117 116.952C46.0117 115.935 46.7049 115.145 47.5913 114.582C48.4833 114.02 49.5202 113.739 50.7021 113.739C51.8839 113.739 52.918 114.02 53.8043 114.582C54.6964 115.145 55.3896 115.935 55.8839 116.952C56.3839 117.969 56.6339 119.159 56.6339 120.523C56.6339 121.875 56.3839 123.057 55.8839 124.068C55.3896 125.08 54.6964 125.866 53.8043 126.429C52.918 126.991 51.8839 127.273 50.7021 127.273ZM50.7021 125.466C51.5998 125.466 52.3384 125.236 52.918 124.776C53.4975 124.315 53.9265 123.71 54.2049 122.96C54.4833 122.21 54.6225 121.398 54.6225 120.523C54.6225 119.648 54.4833 118.832 54.2049 118.077C53.9265 117.321 53.4975 116.71 52.918 116.244C52.3384 115.778 51.5998 115.545 50.7021 115.545C49.8043 115.545 49.0657 115.778 48.4862 116.244C47.9066 116.71 47.4776 117.321 47.1992 118.077C46.9208 118.832 46.7816 119.648 46.7816 120.523C46.7816 121.398 46.9208 122.21 47.1992 122.96C47.4776 123.71 47.9066 124.315 48.4862 124.776C49.0657 125.236 49.8043 125.466 50.7021 125.466ZM61.7156 109.545V127H59.7042V109.545H61.7156ZM70.8881 127.273C69.6268 127.273 68.5387 126.994 67.6239 126.438C66.7148 125.875 66.0131 125.091 65.5188 124.085C65.0302 123.074 64.7859 121.898 64.7859 120.557C64.7859 119.216 65.0302 118.034 65.5188 117.011C66.0131 115.983 66.7006 115.182 67.5813 114.608C68.4677 114.028 69.5018 113.739 70.6836 113.739C71.3654 113.739 72.0387 113.852 72.7035 114.08C73.3683 114.307 73.9734 114.676 74.5188 115.188C75.0643 115.693 75.4989 116.364 75.8228 117.199C76.1467 118.034 76.3086 119.062 76.3086 120.284V121.136H66.2177V119.398H74.2631C74.2631 118.659 74.1154 118 73.82 117.42C73.5302 116.841 73.1154 116.384 72.5756 116.048C72.0415 115.713 71.4109 115.545 70.6836 115.545C69.8825 115.545 69.1893 115.744 68.604 116.142C68.0245 116.534 67.5785 117.045 67.266 117.676C66.9535 118.307 66.7972 118.983 66.7972 119.705V120.864C66.7972 121.852 66.9677 122.69 67.3086 123.378C67.6552 124.06 68.1353 124.58 68.7489 124.938C69.3626 125.29 70.0756 125.466 70.8881 125.466C71.4165 125.466 71.8938 125.392 72.32 125.244C72.7518 125.091 73.1239 124.864 73.4364 124.562C73.7489 124.256 73.9904 123.875 74.1609 123.42L76.104 123.966C75.8995 124.625 75.5558 125.205 75.0728 125.705C74.5898 126.199 73.9933 126.585 73.283 126.864C72.5728 127.136 71.7745 127.273 70.8881 127.273ZM85.0614 113.909V115.614H78.2773V113.909H85.0614ZM80.2546 110.773H82.266V123.25C82.266 123.818 82.3484 124.244 82.5131 124.528C82.6836 124.807 82.8995 124.994 83.1609 125.091C83.4279 125.182 83.7092 125.227 84.0046 125.227C84.2262 125.227 84.408 125.216 84.5501 125.193C84.6921 125.165 84.8058 125.142 84.891 125.125L85.3001 126.932C85.1637 126.983 84.9734 127.034 84.729 127.085C84.4847 127.142 84.1751 127.17 83.8001 127.17C83.2319 127.17 82.6751 127.048 82.1296 126.804C81.5898 126.56 81.141 126.188 80.783 125.688C80.4308 125.188 80.2546 124.557 80.2546 123.795V110.773ZM91.9393 127.307C91.1097 127.307 90.3569 127.151 89.6808 126.838C89.0046 126.52 88.4677 126.062 88.07 125.466C87.6722 124.864 87.4734 124.136 87.4734 123.284C87.4734 122.534 87.6211 121.926 87.9165 121.46C88.212 120.989 88.6069 120.619 89.1012 120.352C89.5955 120.085 90.141 119.886 90.7376 119.756C91.3398 119.619 91.945 119.511 92.5529 119.432C93.3484 119.33 93.9933 119.253 94.4876 119.202C94.9876 119.145 95.3512 119.051 95.5785 118.92C95.8114 118.79 95.9279 118.562 95.9279 118.239V118.17C95.9279 117.33 95.6978 116.676 95.2376 116.21C94.783 115.744 94.0927 115.511 93.1665 115.511C92.2063 115.511 91.4535 115.722 90.908 116.142C90.3626 116.562 89.979 117.011 89.7575 117.489L87.8484 116.807C88.1893 116.011 88.6438 115.392 89.212 114.949C89.7859 114.5 90.4109 114.187 91.087 114.011C91.7688 113.83 92.4393 113.739 93.0984 113.739C93.5188 113.739 94.0018 113.79 94.5472 113.892C95.0984 113.989 95.6296 114.19 96.141 114.497C96.658 114.804 97.087 115.267 97.4279 115.886C97.7688 116.506 97.9393 117.335 97.9393 118.375V127H95.9279V125.227H95.8256C95.6893 125.511 95.462 125.815 95.1438 126.139C94.8256 126.463 94.4023 126.739 93.8739 126.966C93.3455 127.193 92.7006 127.307 91.9393 127.307ZM92.2461 125.5C93.0415 125.5 93.712 125.344 94.2575 125.031C94.8086 124.719 95.2234 124.315 95.5018 123.821C95.7859 123.327 95.9279 122.807 95.9279 122.261V120.42C95.8427 120.523 95.6552 120.616 95.3654 120.702C95.0813 120.781 94.7518 120.852 94.3768 120.915C94.0075 120.972 93.6467 121.023 93.2944 121.068C92.9478 121.108 92.6665 121.142 92.4506 121.17C91.9279 121.239 91.4393 121.349 90.9847 121.503C90.5359 121.651 90.1722 121.875 89.8938 122.176C89.6211 122.472 89.4847 122.875 89.4847 123.386C89.4847 124.085 89.7433 124.614 90.2603 124.972C90.783 125.324 91.445 125.5 92.2461 125.5ZM113.849 127.273C112.588 127.273 111.5 126.994 110.585 126.438C109.676 125.875 108.974 125.091 108.48 124.085C107.991 123.074 107.747 121.898 107.747 120.557C107.747 119.216 107.991 118.034 108.48 117.011C108.974 115.983 109.662 115.182 110.542 114.608C111.429 114.028 112.463 113.739 113.645 113.739C114.326 113.739 115 113.852 115.664 114.08C116.329 114.307 116.934 114.676 117.48 115.188C118.025 115.693 118.46 116.364 118.784 117.199C119.108 118.034 119.27 119.062 119.27 120.284V121.136H109.179V119.398H117.224C117.224 118.659 117.076 118 116.781 117.42C116.491 116.841 116.076 116.384 115.537 116.048C115.002 115.713 114.372 115.545 113.645 115.545C112.843 115.545 112.15 115.744 111.565 116.142C110.985 116.534 110.539 117.045 110.227 117.676C109.914 118.307 109.758 118.983 109.758 119.705V120.864C109.758 121.852 109.929 122.69 110.27 123.378C110.616 124.06 111.096 124.58 111.71 124.938C112.324 125.29 113.037 125.466 113.849 125.466C114.377 125.466 114.855 125.392 115.281 125.244C115.713 125.091 116.085 124.864 116.397 124.562C116.71 124.256 116.951 123.875 117.122 123.42L119.065 123.966C118.86 124.625 118.517 125.205 118.034 125.705C117.551 126.199 116.954 126.585 116.244 126.864C115.534 127.136 114.735 127.273 113.849 127.273ZM130.068 127H127.852L134.261 109.545H136.443L142.852 127H140.636L135.42 112.307H135.284L130.068 127ZM130.886 120.182H139.818V122.057H130.886V120.182ZM147.309 119.125V127H145.298V113.909H147.241V115.955H147.412C147.718 115.29 148.184 114.756 148.809 114.352C149.434 113.943 150.241 113.739 151.23 113.739C152.116 113.739 152.892 113.92 153.556 114.284C154.221 114.642 154.738 115.188 155.108 115.92C155.477 116.648 155.662 117.568 155.662 118.682V127H153.65V118.818C153.65 117.79 153.383 116.989 152.849 116.415C152.315 115.835 151.582 115.545 150.65 115.545C150.008 115.545 149.434 115.685 148.929 115.963C148.429 116.241 148.034 116.648 147.744 117.182C147.454 117.716 147.309 118.364 147.309 119.125ZM163.189 127.307C162.36 127.307 161.607 127.151 160.931 126.838C160.255 126.52 159.718 126.062 159.32 125.466C158.922 124.864 158.723 124.136 158.723 123.284C158.723 122.534 158.871 121.926 159.167 121.46C159.462 120.989 159.857 120.619 160.351 120.352C160.846 120.085 161.391 119.886 161.988 119.756C162.59 119.619 163.195 119.511 163.803 119.432C164.598 119.33 165.243 119.253 165.738 119.202C166.238 119.145 166.601 119.051 166.828 118.92C167.061 118.79 167.178 118.562 167.178 118.239V118.17C167.178 117.33 166.948 116.676 166.488 116.21C166.033 115.744 165.343 115.511 164.417 115.511C163.456 115.511 162.703 115.722 162.158 116.142C161.613 116.562 161.229 117.011 161.007 117.489L159.098 116.807C159.439 116.011 159.894 115.392 160.462 114.949C161.036 114.5 161.661 114.187 162.337 114.011C163.019 113.83 163.689 113.739 164.348 113.739C164.769 113.739 165.252 113.79 165.797 113.892C166.348 113.989 166.88 114.19 167.391 114.497C167.908 114.804 168.337 115.267 168.678 115.886C169.019 116.506 169.189 117.335 169.189 118.375V127H167.178V125.227H167.076C166.939 125.511 166.712 125.815 166.394 126.139C166.076 126.463 165.652 126.739 165.124 126.966C164.596 127.193 163.951 127.307 163.189 127.307ZM163.496 125.5C164.292 125.5 164.962 125.344 165.507 125.031C166.059 124.719 166.473 124.315 166.752 123.821C167.036 123.327 167.178 122.807 167.178 122.261V120.42C167.093 120.523 166.905 120.616 166.615 120.702C166.331 120.781 166.002 120.852 165.627 120.915C165.257 120.972 164.897 121.023 164.544 121.068C164.198 121.108 163.917 121.142 163.701 121.17C163.178 121.239 162.689 121.349 162.235 121.503C161.786 121.651 161.422 121.875 161.144 122.176C160.871 122.472 160.735 122.875 160.735 123.386C160.735 124.085 160.993 124.614 161.51 124.972C162.033 125.324 162.695 125.5 163.496 125.5ZM163.564 112.136L165.644 108.182H167.996L165.337 112.136H163.564ZM174.872 109.545V127H172.86V109.545H174.872ZM178.556 127V113.909H180.567V127H178.556ZM179.578 111.727C179.186 111.727 178.848 111.594 178.564 111.327C178.286 111.06 178.147 110.739 178.147 110.364C178.147 109.989 178.286 109.668 178.564 109.401C178.848 109.134 179.186 109 179.578 109C179.971 109 180.306 109.134 180.584 109.401C180.868 109.668 181.01 109.989 181.01 110.364C181.01 110.739 180.868 111.06 180.584 111.327C180.306 111.594 179.971 111.727 179.578 111.727ZM193.524 116.841L191.717 117.352C191.603 117.051 191.436 116.759 191.214 116.474C190.998 116.185 190.703 115.946 190.328 115.759C189.953 115.571 189.473 115.477 188.887 115.477C188.086 115.477 187.419 115.662 186.885 116.031C186.356 116.395 186.092 116.858 186.092 117.42C186.092 117.92 186.274 118.315 186.637 118.605C187.001 118.895 187.569 119.136 188.342 119.33L190.285 119.807C191.456 120.091 192.328 120.526 192.902 121.111C193.475 121.69 193.762 122.437 193.762 123.352C193.762 124.102 193.547 124.773 193.115 125.364C192.689 125.955 192.092 126.42 191.325 126.761C190.558 127.102 189.666 127.273 188.649 127.273C187.314 127.273 186.208 126.983 185.333 126.403C184.458 125.824 183.904 124.977 183.672 123.864L185.581 123.386C185.762 124.091 186.106 124.619 186.612 124.972C187.123 125.324 187.791 125.5 188.615 125.5C189.552 125.5 190.297 125.301 190.848 124.903C191.404 124.5 191.683 124.017 191.683 123.455C191.683 123 191.524 122.619 191.206 122.312C190.887 122 190.399 121.767 189.74 121.614L187.558 121.102C186.359 120.818 185.478 120.378 184.916 119.781C184.359 119.179 184.081 118.426 184.081 117.523C184.081 116.784 184.288 116.131 184.703 115.562C185.123 114.994 185.694 114.548 186.416 114.224C187.143 113.901 187.967 113.739 188.887 113.739C190.183 113.739 191.2 114.023 191.939 114.591C192.683 115.159 193.211 115.909 193.524 116.841ZM202.279 127.273C201.017 127.273 199.929 126.994 199.015 126.438C198.105 125.875 197.404 125.091 196.909 124.085C196.421 123.074 196.176 121.898 196.176 120.557C196.176 119.216 196.421 118.034 196.909 117.011C197.404 115.983 198.091 115.182 198.972 114.608C199.858 114.028 200.892 113.739 202.074 113.739C202.756 113.739 203.429 113.852 204.094 114.08C204.759 114.307 205.364 114.676 205.909 115.188C206.455 115.693 206.89 116.364 207.213 117.199C207.537 118.034 207.699 119.062 207.699 120.284V121.136H197.608V119.398H205.654C205.654 118.659 205.506 118 205.211 117.42C204.921 116.841 204.506 116.384 203.966 116.048C203.432 115.713 202.801 115.545 202.074 115.545C201.273 115.545 200.58 115.744 199.995 116.142C199.415 116.534 198.969 117.045 198.657 117.676C198.344 118.307 198.188 118.983 198.188 119.705V120.864C198.188 121.852 198.358 122.69 198.699 123.378C199.046 124.06 199.526 124.58 200.14 124.938C200.753 125.29 201.466 125.466 202.279 125.466C202.807 125.466 203.284 125.392 203.711 125.244C204.142 125.091 204.515 124.864 204.827 124.562C205.14 124.256 205.381 123.875 205.551 123.42L207.495 123.966C207.29 124.625 206.946 125.205 206.463 125.705C205.98 126.199 205.384 126.585 204.674 126.864C203.963 127.136 203.165 127.273 202.279 127.273ZM70.2021 159.273C69.1112 159.273 68.1481 158.997 67.3129 158.446C66.4776 157.889 65.8242 157.105 65.3526 156.094C64.881 155.077 64.6452 153.875 64.6452 152.489C64.6452 151.114 64.881 149.92 65.3526 148.909C65.8242 147.898 66.4805 147.116 67.3214 146.565C68.1623 146.014 69.1339 145.739 70.2362 145.739C71.0884 145.739 71.7617 145.881 72.256 146.165C72.756 146.443 73.1367 146.761 73.3981 147.119C73.6651 147.472 73.8725 147.761 74.0202 147.989H74.1907V141.545H76.2021V159H74.2589V156.989H74.0202C73.8725 157.227 73.6623 157.528 73.3896 157.892C73.1168 158.25 72.7276 158.571 72.2219 158.855C71.7163 159.134 71.043 159.273 70.2021 159.273ZM70.4748 157.466C71.2816 157.466 71.9634 157.256 72.5202 156.835C73.0771 156.409 73.5004 155.821 73.7901 155.071C74.0799 154.315 74.2248 153.443 74.2248 152.455C74.2248 151.477 74.0827 150.622 73.7987 149.889C73.5146 149.151 73.0941 148.577 72.5373 148.168C71.9805 147.753 71.293 147.545 70.4748 147.545C69.6225 147.545 68.9123 147.764 68.3441 148.202C67.7816 148.634 67.3583 149.222 67.0742 149.966C66.7958 150.705 66.6566 151.534 66.6566 152.455C66.6566 153.386 66.7987 154.233 67.0827 154.994C67.3725 155.75 67.7987 156.352 68.3612 156.801C68.9293 157.244 69.6339 157.466 70.4748 157.466ZM85.6538 159.273C84.3924 159.273 83.3043 158.994 82.3896 158.438C81.4805 157.875 80.7788 157.091 80.2844 156.085C79.7958 155.074 79.5515 153.898 79.5515 152.557C79.5515 151.216 79.7958 150.034 80.2844 149.011C80.7788 147.983 81.4663 147.182 82.3469 146.608C83.2333 146.028 84.2674 145.739 85.4492 145.739C86.131 145.739 86.8043 145.852 87.4691 146.08C88.1339 146.307 88.739 146.676 89.2844 147.188C89.8299 147.693 90.2646 148.364 90.5884 149.199C90.9123 150.034 91.0742 151.062 91.0742 152.284V153.136H80.9833V151.398H89.0288C89.0288 150.659 88.881 150 88.5856 149.42C88.2958 148.841 87.881 148.384 87.3413 148.048C86.8072 147.713 86.1765 147.545 85.4492 147.545C84.6481 147.545 83.9549 147.744 83.3697 148.142C82.7901 148.534 82.3441 149.045 82.0316 149.676C81.7191 150.307 81.5629 150.983 81.5629 151.705V152.864C81.5629 153.852 81.7333 154.69 82.0742 155.378C82.4208 156.06 82.9009 156.58 83.5146 156.938C84.1282 157.29 84.8413 157.466 85.6538 157.466C86.1822 157.466 86.6594 157.392 87.0856 157.244C87.5174 157.091 87.8896 156.864 88.2021 156.562C88.5146 156.256 88.756 155.875 88.9265 155.42L90.8697 155.966C90.6651 156.625 90.3214 157.205 89.8384 157.705C89.3555 158.199 88.7589 158.585 88.0487 158.864C87.3384 159.136 86.5401 159.273 85.6538 159.273ZM106.543 159H101.157V141.545H106.782C108.475 141.545 109.924 141.895 111.128 142.594C112.333 143.287 113.256 144.284 113.898 145.585C114.54 146.881 114.861 148.432 114.861 150.239C114.861 152.057 114.537 153.622 113.89 154.935C113.242 156.241 112.299 157.247 111.06 157.952C109.821 158.651 108.316 159 106.543 159ZM103.27 157.125H106.407C107.85 157.125 109.046 156.847 109.995 156.29C110.944 155.733 111.651 154.94 112.117 153.912C112.583 152.884 112.816 151.659 112.816 150.239C112.816 148.83 112.586 147.616 112.125 146.599C111.665 145.577 110.978 144.793 110.063 144.247C109.148 143.696 108.009 143.42 106.645 143.42H103.27V157.125ZM121.986 159.307C121.157 159.307 120.404 159.151 119.728 158.838C119.051 158.52 118.515 158.062 118.117 157.466C117.719 156.864 117.52 156.136 117.52 155.284C117.52 154.534 117.668 153.926 117.963 153.46C118.259 152.989 118.654 152.619 119.148 152.352C119.642 152.085 120.188 151.886 120.784 151.756C121.387 151.619 121.992 151.511 122.6 151.432C123.395 151.33 124.04 151.253 124.534 151.202C125.034 151.145 125.398 151.051 125.625 150.92C125.858 150.79 125.975 150.562 125.975 150.239V150.17C125.975 149.33 125.745 148.676 125.284 148.21C124.83 147.744 124.14 147.511 123.213 147.511C122.253 147.511 121.5 147.722 120.955 148.142C120.409 148.562 120.026 149.011 119.804 149.489L117.895 148.807C118.236 148.011 118.691 147.392 119.259 146.949C119.833 146.5 120.458 146.187 121.134 146.011C121.816 145.83 122.486 145.739 123.145 145.739C123.566 145.739 124.049 145.79 124.594 145.892C125.145 145.989 125.676 146.19 126.188 146.497C126.705 146.804 127.134 147.267 127.475 147.886C127.816 148.506 127.986 149.335 127.986 150.375V159H125.975V157.227H125.873C125.736 157.511 125.509 157.815 125.191 158.139C124.873 158.463 124.449 158.739 123.921 158.966C123.392 159.193 122.748 159.307 121.986 159.307ZM122.293 157.5C123.088 157.5 123.759 157.344 124.304 157.031C124.855 156.719 125.27 156.315 125.549 155.821C125.833 155.327 125.975 154.807 125.975 154.261V152.42C125.89 152.523 125.702 152.616 125.412 152.702C125.128 152.781 124.799 152.852 124.424 152.915C124.054 152.972 123.694 153.023 123.341 153.068C122.995 153.108 122.713 153.142 122.498 153.17C121.975 153.239 121.486 153.349 121.032 153.503C120.583 153.651 120.219 153.875 119.941 154.176C119.668 154.472 119.532 154.875 119.532 155.386C119.532 156.085 119.79 156.614 120.307 156.972C120.83 157.324 121.492 157.5 122.293 157.5ZM136.6 159.273C135.51 159.273 134.547 158.997 133.711 158.446C132.876 157.889 132.223 157.105 131.751 156.094C131.279 155.077 131.044 153.875 131.044 152.489C131.044 151.114 131.279 149.92 131.751 148.909C132.223 147.898 132.879 147.116 133.72 146.565C134.561 146.014 135.532 145.739 136.635 145.739C137.487 145.739 138.16 145.881 138.654 146.165C139.154 146.443 139.535 146.761 139.797 147.119C140.064 147.472 140.271 147.761 140.419 147.989H140.589V141.545H142.6V159H140.657V156.989H140.419C140.271 157.227 140.061 157.528 139.788 157.892C139.515 158.25 139.126 158.571 138.62 158.855C138.115 159.134 137.441 159.273 136.6 159.273ZM136.873 157.466C137.68 157.466 138.362 157.256 138.919 156.835C139.475 156.409 139.899 155.821 140.189 155.071C140.478 154.315 140.623 153.443 140.623 152.455C140.623 151.477 140.481 150.622 140.197 149.889C139.913 149.151 139.493 148.577 138.936 148.168C138.379 147.753 137.691 147.545 136.873 147.545C136.021 147.545 135.311 147.764 134.743 148.202C134.18 148.634 133.757 149.222 133.473 149.966C133.194 150.705 133.055 151.534 133.055 152.455C133.055 153.386 133.197 154.233 133.481 154.994C133.771 155.75 134.197 156.352 134.76 156.801C135.328 157.244 136.032 157.466 136.873 157.466ZM151.882 159.273C150.7 159.273 149.663 158.991 148.771 158.429C147.885 157.866 147.191 157.08 146.691 156.068C146.197 155.057 145.95 153.875 145.95 152.523C145.95 151.159 146.197 149.969 146.691 148.952C147.191 147.935 147.885 147.145 148.771 146.582C149.663 146.02 150.7 145.739 151.882 145.739C153.064 145.739 154.098 146.02 154.984 146.582C155.876 147.145 156.569 147.935 157.064 148.952C157.564 149.969 157.814 151.159 157.814 152.523C157.814 153.875 157.564 155.057 157.064 156.068C156.569 157.08 155.876 157.866 154.984 158.429C154.098 158.991 153.064 159.273 151.882 159.273ZM151.882 157.466C152.779 157.466 153.518 157.236 154.098 156.776C154.677 156.315 155.106 155.71 155.385 154.96C155.663 154.21 155.802 153.398 155.802 152.523C155.802 151.648 155.663 150.832 155.385 150.077C155.106 149.321 154.677 148.71 154.098 148.244C153.518 147.778 152.779 147.545 151.882 147.545C150.984 147.545 150.245 147.778 149.666 148.244C149.086 148.71 148.657 149.321 148.379 150.077C148.1 150.832 147.961 151.648 147.961 152.523C147.961 153.398 148.1 154.21 148.379 154.96C148.657 155.71 149.086 156.315 149.666 156.776C150.245 157.236 150.984 157.466 151.882 157.466ZM170.157 148.841L168.35 149.352C168.236 149.051 168.069 148.759 167.847 148.474C167.631 148.185 167.336 147.946 166.961 147.759C166.586 147.571 166.105 147.477 165.52 147.477C164.719 147.477 164.051 147.662 163.517 148.031C162.989 148.395 162.725 148.858 162.725 149.42C162.725 149.92 162.907 150.315 163.27 150.605C163.634 150.895 164.202 151.136 164.975 151.33L166.918 151.807C168.088 152.091 168.961 152.526 169.534 153.111C170.108 153.69 170.395 154.437 170.395 155.352C170.395 156.102 170.179 156.773 169.748 157.364C169.321 157.955 168.725 158.42 167.958 158.761C167.191 159.102 166.299 159.273 165.282 159.273C163.946 159.273 162.841 158.983 161.966 158.403C161.091 157.824 160.537 156.977 160.304 155.864L162.213 155.386C162.395 156.091 162.739 156.619 163.245 156.972C163.756 157.324 164.424 157.5 165.248 157.5C166.185 157.5 166.929 157.301 167.48 156.903C168.037 156.5 168.316 156.017 168.316 155.455C168.316 155 168.157 154.619 167.838 154.312C167.52 154 167.032 153.767 166.373 153.614L164.191 153.102C162.992 152.818 162.111 152.378 161.549 151.781C160.992 151.179 160.713 150.426 160.713 149.523C160.713 148.784 160.921 148.131 161.336 147.562C161.756 146.994 162.327 146.548 163.049 146.224C163.776 145.901 164.6 145.739 165.52 145.739C166.816 145.739 167.833 146.023 168.571 146.591C169.316 147.159 169.844 147.909 170.157 148.841Z" fill="#F7F4EF"/>
</svg>
