<svg width="235" height="236" viewBox="0 0 235 236" fill="none" xmlns="http://www.w3.org/2000/svg">
<rect x="1" y="1.5" width="233" height="233" rx="116.5" fill="#171B26"/>
<rect x="1" y="1.5" width="233" height="233" rx="116.5" stroke="#EBD2B0" stroke-width="2"/>
<path d="M107.782 95V92.3409L113.995 86.5881C114.523 86.0767 114.967 85.6165 115.325 85.2074C115.688 84.7983 115.964 84.3977 116.151 84.0057C116.339 83.608 116.433 83.179 116.433 82.7188C116.433 82.2074 116.316 81.767 116.083 81.3977C115.85 81.0227 115.532 80.7358 115.129 80.5369C114.725 80.3324 114.268 80.2301 113.756 80.2301C113.222 80.2301 112.756 80.3381 112.359 80.554C111.961 80.7699 111.654 81.0795 111.438 81.483C111.222 81.8864 111.114 82.3665 111.114 82.9233H107.612C107.612 81.7812 107.87 80.7898 108.387 79.9489C108.904 79.108 109.629 78.4574 110.56 77.9972C111.492 77.5369 112.566 77.3068 113.782 77.3068C115.032 77.3068 116.12 77.5284 117.046 77.9716C117.978 78.4091 118.702 79.017 119.219 79.7955C119.737 80.5739 119.995 81.4659 119.995 82.4716C119.995 83.1307 119.864 83.7812 119.603 84.4233C119.347 85.0653 118.89 85.7784 118.231 86.5625C117.572 87.3409 116.643 88.2756 115.444 89.3665L112.896 91.8636V91.983H120.225V95H107.782ZM125.055 95.2216C124.493 95.2216 124.01 95.0227 123.607 94.625C123.209 94.2216 123.01 93.7386 123.01 93.1761C123.01 92.6193 123.209 92.142 123.607 91.7443C124.01 91.3466 124.493 91.1477 125.055 91.1477C125.601 91.1477 126.078 91.3466 126.487 91.7443C126.896 92.142 127.101 92.6193 127.101 93.1761C127.101 93.5511 127.004 93.8949 126.811 94.2074C126.624 94.5142 126.376 94.7614 126.07 94.9489C125.763 95.1307 125.425 95.2216 125.055 95.2216Z" fill="#EBD2B0"/>
<path d="M54.1367 127H48.7504V109.545H54.3754C56.0685 109.545 57.5174 109.895 58.7219 110.594C59.9265 111.287 60.8498 112.284 61.4918 113.585C62.1339 114.881 62.4549 116.432 62.4549 118.239C62.4549 120.057 62.131 121.622 61.4833 122.935C60.8356 124.241 59.8924 125.247 58.6538 125.952C57.4151 126.651 55.9094 127 54.1367 127ZM50.864 125.125H54.0004C55.4435 125.125 56.6396 124.847 57.5884 124.29C58.5373 123.733 59.2447 122.94 59.7106 121.912C60.1765 120.884 60.4094 119.659 60.4094 118.239C60.4094 116.83 60.1793 115.616 59.7191 114.599C59.2589 113.577 58.5714 112.793 57.6566 112.247C56.7418 111.696 55.6026 111.42 54.239 111.42H50.864V125.125ZM71.2163 127.273C69.9549 127.273 68.8668 126.994 67.9521 126.438C67.043 125.875 66.3413 125.091 65.8469 124.085C65.3583 123.074 65.114 121.898 65.114 120.557C65.114 119.216 65.3583 118.034 65.8469 117.011C66.3413 115.983 67.0288 115.182 67.9094 114.608C68.7958 114.028 69.8299 113.739 71.0117 113.739C71.6935 113.739 72.3668 113.852 73.0316 114.08C73.6964 114.307 74.3015 114.676 74.8469 115.188C75.3924 115.693 75.8271 116.364 76.1509 117.199C76.4748 118.034 76.6367 119.062 76.6367 120.284V121.136H66.5458V119.398H74.5913C74.5913 118.659 74.4435 118 74.1481 117.42C73.8583 116.841 73.4435 116.384 72.9038 116.048C72.3697 115.713 71.739 115.545 71.0117 115.545C70.2106 115.545 69.5174 115.744 68.9322 116.142C68.3526 116.534 67.9066 117.045 67.5941 117.676C67.2816 118.307 67.1254 118.983 67.1254 119.705V120.864C67.1254 121.852 67.2958 122.69 67.6367 123.378C67.9833 124.06 68.4634 124.58 69.0771 124.938C69.6907 125.29 70.4038 125.466 71.2163 125.466C71.7447 125.466 72.2219 125.392 72.6481 125.244C73.0799 125.091 73.4521 124.864 73.7646 124.562C74.0771 124.256 74.3185 123.875 74.489 123.42L76.4322 123.966C76.2276 124.625 75.8839 125.205 75.4009 125.705C74.918 126.199 74.3214 126.585 73.6112 126.864C72.9009 127.136 72.1026 127.273 71.2163 127.273ZM85.5259 113.909V115.614H78.4691V113.909H85.5259ZM80.5827 127V112.102C80.5827 111.352 80.7589 110.727 81.1112 110.227C81.4634 109.727 81.9208 109.352 82.4833 109.102C83.0458 108.852 83.6396 108.727 84.2646 108.727C84.7589 108.727 85.1623 108.767 85.4748 108.847C85.7873 108.926 86.0202 109 86.1737 109.068L85.5941 110.807C85.4918 110.773 85.3498 110.73 85.168 110.679C84.9918 110.628 84.7589 110.602 84.4691 110.602C83.8043 110.602 83.3242 110.77 83.0288 111.105C82.739 111.44 82.5941 111.932 82.5941 112.58V127H80.5827ZM88.3448 127V113.909H90.3562V127H88.3448ZM89.3675 111.727C88.9755 111.727 88.6374 111.594 88.3533 111.327C88.0749 111.06 87.9357 110.739 87.9357 110.364C87.9357 109.989 88.0749 109.668 88.3533 109.401C88.6374 109.134 88.9755 109 89.3675 109C89.7596 109 90.0948 109.134 90.3732 109.401C90.6573 109.668 90.7994 109.989 90.7994 110.364C90.7994 110.739 90.6573 111.06 90.3732 111.327C90.0948 111.594 89.7596 111.727 89.3675 111.727ZM96.0515 119.125V127H94.0401V113.909H95.9833V115.955H96.1538C96.4606 115.29 96.9265 114.756 97.5515 114.352C98.1765 113.943 98.9833 113.739 99.9719 113.739C100.858 113.739 101.634 113.92 102.299 114.284C102.963 114.642 103.48 115.188 103.85 115.92C104.219 116.648 104.404 117.568 104.404 118.682V127H102.392V118.818C102.392 117.79 102.125 116.989 101.591 116.415C101.057 115.835 100.324 115.545 99.3924 115.545C98.7504 115.545 98.1765 115.685 97.6708 115.963C97.1708 116.241 96.7759 116.648 96.4862 117.182C96.1964 117.716 96.0515 118.364 96.0515 119.125ZM108.079 127V113.909H110.091V127H108.079ZM109.102 111.727C108.71 111.727 108.372 111.594 108.088 111.327C107.809 111.06 107.67 110.739 107.67 110.364C107.67 109.989 107.809 109.668 108.088 109.401C108.372 109.134 108.71 109 109.102 109C109.494 109 109.829 109.134 110.108 109.401C110.392 109.668 110.534 109.989 110.534 110.364C110.534 110.739 110.392 111.06 110.108 111.327C109.829 111.594 109.494 111.727 109.102 111.727ZM119.093 127.273C117.865 127.273 116.809 126.983 115.922 126.403C115.036 125.824 114.354 125.026 113.877 124.009C113.4 122.991 113.161 121.83 113.161 120.523C113.161 119.193 113.405 118.02 113.894 117.003C114.388 115.98 115.076 115.182 115.956 114.608C116.843 114.028 117.877 113.739 119.059 113.739C119.979 113.739 120.809 113.909 121.547 114.25C122.286 114.591 122.891 115.068 123.363 115.682C123.834 116.295 124.127 117.011 124.24 117.83H122.229C122.076 117.233 121.735 116.705 121.206 116.244C120.684 115.778 119.979 115.545 119.093 115.545C118.309 115.545 117.621 115.75 117.03 116.159C116.445 116.562 115.988 117.134 115.658 117.872C115.334 118.605 115.172 119.466 115.172 120.455C115.172 121.466 115.331 122.347 115.65 123.097C115.973 123.847 116.428 124.429 117.013 124.844C117.604 125.259 118.297 125.466 119.093 125.466C119.615 125.466 120.09 125.375 120.516 125.193C120.942 125.011 121.303 124.75 121.598 124.409C121.894 124.068 122.104 123.659 122.229 123.182H124.24C124.127 123.955 123.846 124.651 123.397 125.27C122.953 125.884 122.365 126.372 121.632 126.736C120.905 127.094 120.059 127.273 119.093 127.273ZM118.138 126.932H119.809L119.672 127.614C120.115 127.682 120.522 127.866 120.891 128.168C121.26 128.474 121.445 128.96 121.445 129.625C121.445 130.358 121.141 130.955 120.533 131.415C119.931 131.881 119.042 132.114 117.865 132.114L117.797 130.784C118.326 130.784 118.763 130.699 119.11 130.528C119.462 130.364 119.638 130.085 119.638 129.693C119.638 129.301 119.493 129.034 119.203 128.892C118.914 128.75 118.445 128.653 117.797 128.602L118.138 126.932ZM131.033 127.307C130.203 127.307 129.451 127.151 128.775 126.838C128.098 126.52 127.561 126.062 127.164 125.466C126.766 124.864 126.567 124.136 126.567 123.284C126.567 122.534 126.715 121.926 127.01 121.46C127.306 120.989 127.701 120.619 128.195 120.352C128.689 120.085 129.235 119.886 129.831 119.756C130.434 119.619 131.039 119.511 131.647 119.432C132.442 119.33 133.087 119.253 133.581 119.202C134.081 119.145 134.445 119.051 134.672 118.92C134.905 118.79 135.022 118.562 135.022 118.239V118.17C135.022 117.33 134.792 116.676 134.331 116.21C133.877 115.744 133.186 115.511 132.26 115.511C131.3 115.511 130.547 115.722 130.002 116.142C129.456 116.562 129.073 117.011 128.851 117.489L126.942 116.807C127.283 116.011 127.738 115.392 128.306 114.949C128.88 114.5 129.505 114.187 130.181 114.011C130.863 113.83 131.533 113.739 132.192 113.739C132.613 113.739 133.096 113.79 133.641 113.892C134.192 113.989 134.723 114.19 135.235 114.497C135.752 114.804 136.181 115.267 136.522 115.886C136.863 116.506 137.033 117.335 137.033 118.375V127H135.022V125.227H134.919C134.783 125.511 134.556 125.815 134.238 126.139C133.919 126.463 133.496 126.739 132.968 126.966C132.439 127.193 131.794 127.307 131.033 127.307ZM131.34 125.5C132.135 125.5 132.806 125.344 133.351 125.031C133.902 124.719 134.317 124.315 134.596 123.821C134.88 123.327 135.022 122.807 135.022 122.261V120.42C134.936 120.523 134.749 120.616 134.459 120.702C134.175 120.781 133.846 120.852 133.471 120.915C133.101 120.972 132.74 121.023 132.388 121.068C132.042 121.108 131.76 121.142 131.544 121.17C131.022 121.239 130.533 121.349 130.078 121.503C129.63 121.651 129.266 121.875 128.988 122.176C128.715 122.472 128.578 122.875 128.578 123.386C128.578 124.085 128.837 124.614 129.354 124.972C129.877 125.324 130.539 125.5 131.34 125.5ZM129.703 112.341L128.135 112.273C128.135 111.403 128.382 110.693 128.877 110.142C129.377 109.585 129.993 109.307 130.726 109.307C131.05 109.307 131.337 109.364 131.587 109.477C131.837 109.585 132.076 109.71 132.303 109.852C132.53 109.994 132.763 110.122 133.002 110.236C133.246 110.344 133.522 110.398 133.828 110.398C134.152 110.398 134.425 110.273 134.647 110.023C134.874 109.767 134.988 109.46 134.988 109.102L136.522 109.239C136.522 110.125 136.272 110.83 135.772 111.352C135.277 111.875 134.664 112.136 133.931 112.136C133.539 112.136 133.215 112.082 132.959 111.974C132.703 111.861 132.476 111.733 132.277 111.591C132.078 111.449 131.868 111.324 131.647 111.216C131.425 111.102 131.152 111.045 130.828 111.045C130.505 111.045 130.235 111.173 130.019 111.429C129.809 111.679 129.703 111.983 129.703 112.341ZM146.022 127.273C144.841 127.273 143.804 126.991 142.912 126.429C142.025 125.866 141.332 125.08 140.832 124.068C140.338 123.057 140.091 121.875 140.091 120.523C140.091 119.159 140.338 117.969 140.832 116.952C141.332 115.935 142.025 115.145 142.912 114.582C143.804 114.02 144.841 113.739 146.022 113.739C147.204 113.739 148.238 114.02 149.125 114.582C150.017 115.145 150.71 115.935 151.204 116.952C151.704 117.969 151.954 119.159 151.954 120.523C151.954 121.875 151.704 123.057 151.204 124.068C150.71 125.08 150.017 125.866 149.125 126.429C148.238 126.991 147.204 127.273 146.022 127.273ZM146.022 125.466C146.92 125.466 147.659 125.236 148.238 124.776C148.818 124.315 149.247 123.71 149.525 122.96C149.804 122.21 149.943 121.398 149.943 120.523C149.943 119.648 149.804 118.832 149.525 118.077C149.247 117.321 148.818 116.71 148.238 116.244C147.659 115.778 146.92 115.545 146.022 115.545C145.125 115.545 144.386 115.778 143.806 116.244C143.227 116.71 142.798 117.321 142.52 118.077C142.241 118.832 142.102 119.648 142.102 120.523C142.102 121.398 142.241 122.21 142.52 122.96C142.798 123.71 143.227 124.315 143.806 124.776C144.386 125.236 145.125 125.466 146.022 125.466ZM166.718 127.273C165.627 127.273 164.664 126.997 163.828 126.446C162.993 125.889 162.34 125.105 161.868 124.094C161.397 123.077 161.161 121.875 161.161 120.489C161.161 119.114 161.397 117.92 161.868 116.909C162.34 115.898 162.996 115.116 163.837 114.565C164.678 114.014 165.65 113.739 166.752 113.739C167.604 113.739 168.277 113.881 168.772 114.165C169.272 114.443 169.652 114.761 169.914 115.119C170.181 115.472 170.388 115.761 170.536 115.989H170.706V109.545H172.718V127H170.775V124.989H170.536C170.388 125.227 170.178 125.528 169.905 125.892C169.632 126.25 169.243 126.571 168.738 126.855C168.232 127.134 167.559 127.273 166.718 127.273ZM166.99 125.466C167.797 125.466 168.479 125.256 169.036 124.835C169.593 124.409 170.016 123.821 170.306 123.071C170.596 122.315 170.74 121.443 170.74 120.455C170.74 119.477 170.598 118.622 170.314 117.889C170.03 117.151 169.61 116.577 169.053 116.168C168.496 115.753 167.809 115.545 166.99 115.545C166.138 115.545 165.428 115.764 164.86 116.202C164.297 116.634 163.874 117.222 163.59 117.966C163.311 118.705 163.172 119.534 163.172 120.455C163.172 121.386 163.314 122.233 163.598 122.994C163.888 123.75 164.314 124.352 164.877 124.801C165.445 125.244 166.15 125.466 166.99 125.466ZM180.533 127.307C179.703 127.307 178.951 127.151 178.275 126.838C177.598 126.52 177.061 126.062 176.664 125.466C176.266 124.864 176.067 124.136 176.067 123.284C176.067 122.534 176.215 121.926 176.51 121.46C176.806 120.989 177.201 120.619 177.695 120.352C178.189 120.085 178.735 119.886 179.331 119.756C179.934 119.619 180.539 119.511 181.147 119.432C181.942 119.33 182.587 119.253 183.081 119.202C183.581 119.145 183.945 119.051 184.172 118.92C184.405 118.79 184.522 118.562 184.522 118.239V118.17C184.522 117.33 184.292 116.676 183.831 116.21C183.377 115.744 182.686 115.511 181.76 115.511C180.8 115.511 180.047 115.722 179.502 116.142C178.956 116.562 178.573 117.011 178.351 117.489L176.442 116.807C176.783 116.011 177.238 115.392 177.806 114.949C178.38 114.5 179.005 114.187 179.681 114.011C180.363 113.83 181.033 113.739 181.692 113.739C182.113 113.739 182.596 113.79 183.141 113.892C183.692 113.989 184.223 114.19 184.735 114.497C185.252 114.804 185.681 115.267 186.022 115.886C186.363 116.506 186.533 117.335 186.533 118.375V127H184.522V125.227H184.419C184.283 125.511 184.056 125.815 183.738 126.139C183.419 126.463 182.996 126.739 182.468 126.966C181.939 127.193 181.294 127.307 180.533 127.307ZM180.84 125.5C181.635 125.5 182.306 125.344 182.851 125.031C183.402 124.719 183.817 124.315 184.096 123.821C184.38 123.327 184.522 122.807 184.522 122.261V120.42C184.436 120.523 184.249 120.616 183.959 120.702C183.675 120.781 183.346 120.852 182.971 120.915C182.601 120.972 182.24 121.023 181.888 121.068C181.542 121.108 181.26 121.142 181.044 121.17C180.522 121.239 180.033 121.349 179.578 121.503C179.13 121.651 178.766 121.875 178.488 122.176C178.215 122.472 178.078 122.875 178.078 123.386C178.078 124.085 178.337 124.614 178.854 124.972C179.377 125.324 180.039 125.5 180.84 125.5ZM54.3999 159H52.1839L58.593 141.545H60.7749L67.1839 159H64.968L59.7521 144.307H59.6158L54.3999 159ZM55.218 152.182H64.1499V154.057H55.218V152.182ZM69.9027 159V141.545H71.9141V147.989H72.0845C72.2322 147.761 72.4368 147.472 72.6982 147.119C72.9652 146.761 73.3459 146.443 73.8402 146.165C74.3402 145.881 75.0163 145.739 75.8686 145.739C76.9709 145.739 77.9425 146.014 78.7834 146.565C79.6243 147.116 80.2805 147.898 80.7521 148.909C81.2237 149.92 81.4595 151.114 81.4595 152.489C81.4595 153.875 81.2237 155.077 80.7521 156.094C80.2805 157.105 79.6271 157.889 78.7919 158.446C77.9567 158.997 76.9936 159.273 75.9027 159.273C75.0618 159.273 74.3885 159.134 73.8828 158.855C73.3771 158.571 72.9879 158.25 72.7152 157.892C72.4425 157.528 72.2322 157.227 72.0845 156.989H71.8459V159H69.9027ZM71.88 152.455C71.88 153.443 72.0249 154.315 72.3146 155.071C72.6044 155.821 73.0277 156.409 73.5845 156.835C74.1413 157.256 74.8232 157.466 75.63 157.466C76.4709 157.466 77.1726 157.244 77.7351 156.801C78.3033 156.352 78.7294 155.75 79.0135 154.994C79.3033 154.233 79.4482 153.386 79.4482 152.455C79.4482 151.534 79.3061 150.705 79.022 149.966C78.7436 149.222 78.3203 148.634 77.7521 148.202C77.1896 147.764 76.4822 147.545 75.63 147.545C74.8118 147.545 74.1243 147.753 73.5675 148.168C73.0107 148.577 72.5902 149.151 72.3061 149.889C72.022 150.622 71.88 151.477 71.88 152.455ZM89.8544 159.273C88.6726 159.273 87.6357 158.991 86.7436 158.429C85.8572 157.866 85.1641 157.08 84.6641 156.068C84.1697 155.057 83.9226 153.875 83.9226 152.523C83.9226 151.159 84.1697 149.969 84.6641 148.952C85.1641 147.935 85.8572 147.145 86.7436 146.582C87.6357 146.02 88.6726 145.739 89.8544 145.739C91.0362 145.739 92.0703 146.02 92.9567 146.582C93.8487 147.145 94.5419 147.935 95.0362 148.952C95.5362 149.969 95.7862 151.159 95.7862 152.523C95.7862 153.875 95.5362 155.057 95.0362 156.068C94.5419 157.08 93.8487 157.866 92.9567 158.429C92.0703 158.991 91.0362 159.273 89.8544 159.273ZM89.8544 157.466C90.7521 157.466 91.4908 157.236 92.0703 156.776C92.6499 156.315 93.0788 155.71 93.3572 154.96C93.6357 154.21 93.7749 153.398 93.7749 152.523C93.7749 151.648 93.6357 150.832 93.3572 150.077C93.0788 149.321 92.6499 148.71 92.0703 148.244C91.4908 147.778 90.7521 147.545 89.8544 147.545C88.9567 147.545 88.218 147.778 87.6385 148.244C87.0589 148.71 86.63 149.321 86.3516 150.077C86.0732 150.832 85.9339 151.648 85.9339 152.523C85.9339 153.398 86.0732 154.21 86.3516 154.96C86.63 155.71 87.0589 156.315 87.6385 156.776C88.218 157.236 88.9567 157.466 89.8544 157.466ZM98.8565 159V145.909H100.8V147.886H100.936C101.175 147.239 101.607 146.713 102.232 146.31C102.857 145.906 103.561 145.705 104.345 145.705C104.493 145.705 104.678 145.707 104.899 145.713C105.121 145.719 105.288 145.727 105.402 145.739V147.784C105.334 147.767 105.178 147.741 104.933 147.707C104.695 147.668 104.442 147.648 104.175 147.648C103.538 147.648 102.97 147.781 102.47 148.048C101.976 148.31 101.584 148.673 101.294 149.139C101.01 149.599 100.868 150.125 100.868 150.716V159H98.8565ZM112.331 159.273C111.24 159.273 110.277 158.997 109.442 158.446C108.607 157.889 107.953 157.105 107.482 156.094C107.01 155.077 106.774 153.875 106.774 152.489C106.774 151.114 107.01 149.92 107.482 148.909C107.953 147.898 108.609 147.116 109.45 146.565C110.291 146.014 111.263 145.739 112.365 145.739C113.217 145.739 113.891 145.881 114.385 146.165C114.885 146.443 115.266 146.761 115.527 147.119C115.794 147.472 116.001 147.761 116.149 147.989H116.32V141.545H118.331V159H116.388V156.989H116.149C116.001 157.227 115.791 157.528 115.518 157.892C115.246 158.25 114.857 158.571 114.351 158.855C113.845 159.134 113.172 159.273 112.331 159.273ZM112.604 157.466C113.411 157.466 114.092 157.256 114.649 156.835C115.206 156.409 115.629 155.821 115.919 155.071C116.209 154.315 116.354 153.443 116.354 152.455C116.354 151.477 116.212 150.622 115.928 149.889C115.643 149.151 115.223 148.577 114.666 148.168C114.109 147.753 113.422 147.545 112.604 147.545C111.751 147.545 111.041 147.764 110.473 148.202C109.911 148.634 109.487 149.222 109.203 149.966C108.925 150.705 108.786 151.534 108.786 152.455C108.786 153.386 108.928 154.233 109.212 154.994C109.501 155.75 109.928 156.352 110.49 156.801C111.058 157.244 111.763 157.466 112.604 157.466ZM126.146 159.307C125.317 159.307 124.564 159.151 123.888 158.838C123.212 158.52 122.675 158.062 122.277 157.466C121.879 156.864 121.68 156.136 121.68 155.284C121.68 154.534 121.828 153.926 122.124 153.46C122.419 152.989 122.814 152.619 123.308 152.352C123.803 152.085 124.348 151.886 124.945 151.756C125.547 151.619 126.152 151.511 126.76 151.432C127.555 151.33 128.2 151.253 128.695 151.202C129.195 151.145 129.558 151.051 129.786 150.92C130.018 150.79 130.135 150.562 130.135 150.239V150.17C130.135 149.33 129.905 148.676 129.445 148.21C128.99 147.744 128.3 147.511 127.374 147.511C126.413 147.511 125.661 147.722 125.115 148.142C124.57 148.562 124.186 149.011 123.964 149.489L122.055 148.807C122.396 148.011 122.851 147.392 123.419 146.949C123.993 146.5 124.618 146.187 125.294 146.011C125.976 145.83 126.646 145.739 127.305 145.739C127.726 145.739 128.209 145.79 128.754 145.892C129.305 145.989 129.837 146.19 130.348 146.497C130.865 146.804 131.294 147.267 131.635 147.886C131.976 148.506 132.146 149.335 132.146 150.375V159H130.135V157.227H130.033C129.896 157.511 129.669 157.815 129.351 158.139C129.033 158.463 128.609 158.739 128.081 158.966C127.553 159.193 126.908 159.307 126.146 159.307ZM126.453 157.5C127.249 157.5 127.919 157.344 128.464 157.031C129.016 156.719 129.43 156.315 129.709 155.821C129.993 155.327 130.135 154.807 130.135 154.261V152.42C130.05 152.523 129.862 152.616 129.572 152.702C129.288 152.781 128.959 152.852 128.584 152.915C128.214 152.972 127.854 153.023 127.501 153.068C127.155 153.108 126.874 153.142 126.658 153.17C126.135 153.239 125.646 153.349 125.192 153.503C124.743 153.651 124.379 153.875 124.101 154.176C123.828 154.472 123.692 154.875 123.692 155.386C123.692 156.085 123.95 156.614 124.467 156.972C124.99 157.324 125.652 157.5 126.453 157.5ZM141.102 164.182C140.13 164.182 139.295 164.057 138.596 163.807C137.897 163.562 137.315 163.239 136.849 162.835C136.388 162.438 136.022 162.011 135.749 161.557L137.352 160.432C137.533 160.67 137.763 160.943 138.042 161.25C138.32 161.562 138.701 161.832 139.184 162.06C139.673 162.293 140.312 162.409 141.102 162.409C142.158 162.409 143.031 162.153 143.718 161.642C144.406 161.131 144.749 160.33 144.749 159.239V156.58H144.579C144.431 156.818 144.221 157.114 143.948 157.466C143.681 157.812 143.295 158.122 142.789 158.395C142.289 158.662 141.613 158.795 140.761 158.795C139.704 158.795 138.755 158.545 137.914 158.045C137.079 157.545 136.417 156.818 135.928 155.864C135.445 154.909 135.204 153.75 135.204 152.386C135.204 151.045 135.44 149.878 135.911 148.884C136.383 147.884 137.039 147.111 137.88 146.565C138.721 146.014 139.692 145.739 140.795 145.739C141.647 145.739 142.323 145.881 142.823 146.165C143.329 146.443 143.715 146.761 143.982 147.119C144.255 147.472 144.465 147.761 144.613 147.989H144.817V145.909H146.761V159.375C146.761 160.5 146.505 161.415 145.994 162.119C145.488 162.83 144.806 163.349 143.948 163.679C143.096 164.014 142.147 164.182 141.102 164.182ZM141.033 156.989C141.84 156.989 142.522 156.804 143.079 156.435C143.636 156.065 144.059 155.534 144.349 154.841C144.638 154.148 144.783 153.318 144.783 152.352C144.783 151.409 144.641 150.577 144.357 149.855C144.073 149.134 143.653 148.568 143.096 148.159C142.539 147.75 141.852 147.545 141.033 147.545C140.181 147.545 139.471 147.761 138.903 148.193C138.34 148.625 137.917 149.205 137.633 149.932C137.354 150.659 137.215 151.466 137.215 152.352C137.215 153.261 137.357 154.065 137.641 154.764C137.931 155.457 138.357 156.003 138.92 156.401C139.488 156.793 140.192 156.989 141.033 156.989ZM155.931 159.273C154.67 159.273 153.582 158.994 152.667 158.438C151.758 157.875 151.056 157.091 150.562 156.085C150.073 155.074 149.829 153.898 149.829 152.557C149.829 151.216 150.073 150.034 150.562 149.011C151.056 147.983 151.744 147.182 152.624 146.608C153.511 146.028 154.545 145.739 155.727 145.739C156.408 145.739 157.082 145.852 157.746 146.08C158.411 146.307 159.016 146.676 159.562 147.188C160.107 147.693 160.542 148.364 160.866 149.199C161.19 150.034 161.352 151.062 161.352 152.284V153.136H151.261V151.398H159.306C159.306 150.659 159.158 150 158.863 149.42C158.573 148.841 158.158 148.384 157.619 148.048C157.085 147.713 156.454 147.545 155.727 147.545C154.925 147.545 154.232 147.744 153.647 148.142C153.067 148.534 152.621 149.045 152.309 149.676C151.996 150.307 151.84 150.983 151.84 151.705V152.864C151.84 153.852 152.011 154.69 152.352 155.378C152.698 156.06 153.178 156.58 153.792 156.938C154.406 157.29 155.119 157.466 155.931 157.466C156.46 157.466 156.937 157.392 157.363 157.244C157.795 157.091 158.167 156.864 158.479 156.562C158.792 156.256 159.033 155.875 159.204 155.42L161.147 155.966C160.942 156.625 160.599 157.205 160.116 157.705C159.633 158.199 159.036 158.585 158.326 158.864C157.616 159.136 156.817 159.273 155.931 159.273ZM164.411 159V145.909H166.354V147.955H166.525C166.798 147.256 167.238 146.713 167.846 146.327C168.454 145.935 169.184 145.739 170.036 145.739C170.9 145.739 171.619 145.935 172.192 146.327C172.772 146.713 173.224 147.256 173.548 147.955H173.684C174.019 147.278 174.522 146.741 175.192 146.344C175.863 145.94 176.667 145.739 177.604 145.739C178.775 145.739 179.732 146.105 180.477 146.838C181.221 147.565 181.593 148.699 181.593 150.239V159H179.582V150.239C179.582 149.273 179.317 148.582 178.789 148.168C178.261 147.753 177.638 147.545 176.923 147.545C176.002 147.545 175.289 147.824 174.783 148.381C174.278 148.932 174.025 149.631 174.025 150.477V159H171.979V150.034C171.979 149.29 171.738 148.69 171.255 148.236C170.772 147.776 170.15 147.545 169.388 147.545C168.866 147.545 168.377 147.685 167.923 147.963C167.474 148.241 167.11 148.628 166.832 149.122C166.559 149.611 166.423 150.176 166.423 150.818V159H164.411Z" fill="#F7F4EF"/>
</svg>
