<svg width="235" height="236" viewBox="0 0 235 236" fill="none" xmlns="http://www.w3.org/2000/svg">
<rect x="1" y="1.5" width="233" height="233" rx="116.5" fill="#171B26"/>
<rect x="1" y="1.5" width="233" height="233" rx="116.5" stroke="#EBD2B0" stroke-width="2"/>
<path d="M107.108 91.9318V89.0256L114.395 77.5455H116.9V81.5682H115.417L110.824 88.8381V88.9744H121.179V91.9318H107.108ZM115.485 95V91.0455L115.554 89.7585V77.5455H119.014V95H115.485ZM125.466 95.2216C124.903 95.2216 124.42 95.0227 124.017 94.625C123.619 94.2216 123.42 93.7386 123.42 93.1761C123.42 92.6193 123.619 92.142 124.017 91.7443C124.42 91.3466 124.903 91.1477 125.466 91.1477C126.011 91.1477 126.488 91.3466 126.897 91.7443C127.306 92.142 127.511 92.6193 127.511 93.1761C127.511 93.5511 127.414 93.8949 127.221 94.2074C127.034 94.5142 126.787 94.7614 126.48 94.9489C126.173 95.1307 125.835 95.2216 125.466 95.2216Z" fill="#EBD2B0"/>
<path d="M54.7152 127V109.545H65.2493V111.42H56.8288V117.318H64.7038V119.193H56.8288V125.125H65.3857V127H54.7152ZM68.7862 127V113.909H70.7294V115.955H70.8999C71.1726 115.256 71.6129 114.713 72.2209 114.327C72.8288 113.935 73.5589 113.739 74.4112 113.739C75.2749 113.739 75.9936 113.935 76.5675 114.327C77.147 114.713 77.5987 115.256 77.9226 115.955H78.0589C78.3942 115.278 78.897 114.741 79.5675 114.344C80.2379 113.94 81.0419 113.739 81.9794 113.739C83.1499 113.739 84.1072 114.105 84.8516 114.838C85.5959 115.565 85.968 116.699 85.968 118.239V127H83.9567V118.239C83.9567 117.273 83.6925 116.582 83.1641 116.168C82.6357 115.753 82.0135 115.545 81.2976 115.545C80.3771 115.545 79.6641 115.824 79.1584 116.381C78.6527 116.932 78.3999 117.631 78.3999 118.477V127H76.3544V118.034C76.3544 117.29 76.1129 116.69 75.63 116.236C75.147 115.776 74.5249 115.545 73.7635 115.545C73.2408 115.545 72.7521 115.685 72.2976 115.963C71.8487 116.241 71.4851 116.628 71.2067 117.122C70.9339 117.611 70.7976 118.176 70.7976 118.818V127H68.7862ZM89.6456 127V113.909H91.657V127H89.6456ZM90.6683 111.727C90.2763 111.727 89.9382 111.594 89.6541 111.327C89.3757 111.06 89.2365 110.739 89.2365 110.364C89.2365 109.989 89.3757 109.668 89.6541 109.401C89.9382 109.134 90.2763 109 90.6683 109C91.0604 109 91.3956 109.134 91.674 109.401C91.9581 109.668 92.1001 109.989 92.1001 110.364C92.1001 110.739 91.9581 111.06 91.674 111.327C91.3956 111.594 91.0604 111.727 90.6683 111.727ZM104.614 116.841L102.807 117.352C102.693 117.051 102.526 116.759 102.304 116.474C102.088 116.185 101.793 115.946 101.418 115.759C101.043 115.571 100.562 115.477 99.9773 115.477C99.1761 115.477 98.5085 115.662 97.9744 116.031C97.446 116.395 97.1818 116.858 97.1818 117.42C97.1818 117.92 97.3636 118.315 97.7273 118.605C98.0909 118.895 98.6591 119.136 99.4318 119.33L101.375 119.807C102.545 120.091 103.418 120.526 103.991 121.111C104.565 121.69 104.852 122.437 104.852 123.352C104.852 124.102 104.636 124.773 104.205 125.364C103.778 125.955 103.182 126.42 102.415 126.761C101.648 127.102 100.756 127.273 99.7386 127.273C98.4034 127.273 97.2983 126.983 96.4233 126.403C95.5483 125.824 94.9943 124.977 94.7614 123.864L96.6705 123.386C96.8523 124.091 97.196 124.619 97.7017 124.972C98.2131 125.324 98.8807 125.5 99.7045 125.5C100.642 125.5 101.386 125.301 101.938 124.903C102.494 124.5 102.773 124.017 102.773 123.455C102.773 123 102.614 122.619 102.295 122.312C101.977 122 101.489 121.767 100.83 121.614L98.6477 121.102C97.4489 120.818 96.5682 120.378 96.0057 119.781C95.4489 119.179 95.1705 118.426 95.1705 117.523C95.1705 116.784 95.3778 116.131 95.7926 115.562C96.2131 114.994 96.7841 114.548 97.5057 114.224C98.233 113.901 99.0568 113.739 99.9773 113.739C101.273 113.739 102.29 114.023 103.028 114.591C103.773 115.159 104.301 115.909 104.614 116.841ZM117.153 116.841L115.346 117.352C115.232 117.051 115.065 116.759 114.843 116.474C114.627 116.185 114.332 115.946 113.957 115.759C113.582 115.571 113.102 115.477 112.516 115.477C111.715 115.477 111.048 115.662 110.513 116.031C109.985 116.395 109.721 116.858 109.721 117.42C109.721 117.92 109.903 118.315 110.266 118.605C110.63 118.895 111.198 119.136 111.971 119.33L113.914 119.807C115.085 120.091 115.957 120.526 116.531 121.111C117.104 121.69 117.391 122.437 117.391 123.352C117.391 124.102 117.175 124.773 116.744 125.364C116.317 125.955 115.721 126.42 114.954 126.761C114.187 127.102 113.295 127.273 112.278 127.273C110.942 127.273 109.837 126.983 108.962 126.403C108.087 125.824 107.533 124.977 107.3 123.864L109.21 123.386C109.391 124.091 109.735 124.619 110.241 124.972C110.752 125.324 111.42 125.5 112.244 125.5C113.181 125.5 113.925 125.301 114.477 124.903C115.033 124.5 115.312 124.017 115.312 123.455C115.312 123 115.153 122.619 114.835 122.312C114.516 122 114.028 121.767 113.369 121.614L111.187 121.102C109.988 120.818 109.107 120.378 108.545 119.781C107.988 119.179 107.71 118.426 107.71 117.523C107.71 116.784 107.917 116.131 108.332 115.562C108.752 114.994 109.323 114.548 110.045 114.224C110.772 113.901 111.596 113.739 112.516 113.739C113.812 113.739 114.829 114.023 115.567 114.591C116.312 115.159 116.84 115.909 117.153 116.841ZM124.271 127.307C123.442 127.307 122.689 127.151 122.013 126.838C121.337 126.52 120.8 126.062 120.402 125.466C120.004 124.864 119.805 124.136 119.805 123.284C119.805 122.534 119.953 121.926 120.249 121.46C120.544 120.989 120.939 120.619 121.433 120.352C121.928 120.085 122.473 119.886 123.07 119.756C123.672 119.619 124.277 119.511 124.885 119.432C125.68 119.33 126.325 119.253 126.82 119.202C127.32 119.145 127.683 119.051 127.911 118.92C128.143 118.79 128.26 118.562 128.26 118.239V118.17C128.26 117.33 128.03 116.676 127.57 116.21C127.115 115.744 126.425 115.511 125.499 115.511C124.538 115.511 123.786 115.722 123.24 116.142C122.695 116.562 122.311 117.011 122.089 117.489L120.18 116.807C120.521 116.011 120.976 115.392 121.544 114.949C122.118 114.5 122.743 114.187 123.419 114.011C124.101 113.83 124.771 113.739 125.43 113.739C125.851 113.739 126.334 113.79 126.879 113.892C127.43 113.989 127.962 114.19 128.473 114.497C128.99 114.804 129.419 115.267 129.76 115.886C130.101 116.506 130.271 117.335 130.271 118.375V127H128.26V125.227H128.158C128.021 125.511 127.794 125.815 127.476 126.139C127.158 126.463 126.734 126.739 126.206 126.966C125.678 127.193 125.033 127.307 124.271 127.307ZM124.578 125.5C125.374 125.5 126.044 125.344 126.589 125.031C127.141 124.719 127.555 124.315 127.834 123.821C128.118 123.327 128.26 122.807 128.26 122.261V120.42C128.175 120.523 127.987 120.616 127.697 120.702C127.413 120.781 127.084 120.852 126.709 120.915C126.339 120.972 125.979 121.023 125.626 121.068C125.28 121.108 124.999 121.142 124.783 121.17C124.26 121.239 123.771 121.349 123.317 121.503C122.868 121.651 122.504 121.875 122.226 122.176C121.953 122.472 121.817 122.875 121.817 123.386C121.817 124.085 122.075 124.614 122.592 124.972C123.115 125.324 123.777 125.5 124.578 125.5ZM122.942 112.341L121.374 112.273C121.374 111.403 121.621 110.693 122.115 110.142C122.615 109.585 123.232 109.307 123.964 109.307C124.288 109.307 124.575 109.364 124.825 109.477C125.075 109.585 125.314 109.71 125.541 109.852C125.768 109.994 126.001 110.122 126.24 110.236C126.484 110.344 126.76 110.398 127.067 110.398C127.391 110.398 127.663 110.273 127.885 110.023C128.112 109.767 128.226 109.46 128.226 109.102L129.76 109.239C129.76 110.125 129.51 110.83 129.01 111.352C128.516 111.875 127.902 112.136 127.169 112.136C126.777 112.136 126.453 112.082 126.197 111.974C125.942 111.861 125.714 111.733 125.516 111.591C125.317 111.449 125.107 111.324 124.885 111.216C124.663 111.102 124.391 111.045 124.067 111.045C123.743 111.045 123.473 111.173 123.257 111.429C123.047 111.679 122.942 111.983 122.942 112.341ZM139.261 127.273C138.079 127.273 137.042 126.991 136.15 126.429C135.263 125.866 134.57 125.08 134.07 124.068C133.576 123.057 133.329 121.875 133.329 120.523C133.329 119.159 133.576 117.969 134.07 116.952C134.57 115.935 135.263 115.145 136.15 114.582C137.042 114.02 138.079 113.739 139.261 113.739C140.442 113.739 141.477 114.02 142.363 114.582C143.255 115.145 143.948 115.935 144.442 116.952C144.942 117.969 145.192 119.159 145.192 120.523C145.192 121.875 144.942 123.057 144.442 124.068C143.948 125.08 143.255 125.866 142.363 126.429C141.477 126.991 140.442 127.273 139.261 127.273ZM139.261 125.466C140.158 125.466 140.897 125.236 141.477 124.776C142.056 124.315 142.485 123.71 142.763 122.96C143.042 122.21 143.181 121.398 143.181 120.523C143.181 119.648 143.042 118.832 142.763 118.077C142.485 117.321 142.056 116.71 141.477 116.244C140.897 115.778 140.158 115.545 139.261 115.545C138.363 115.545 137.624 115.778 137.045 116.244C136.465 116.71 136.036 117.321 135.758 118.077C135.479 118.832 135.34 119.648 135.34 120.523C135.34 121.398 135.479 122.21 135.758 122.96C136.036 123.71 136.465 124.315 137.045 124.776C137.624 125.236 138.363 125.466 139.261 125.466ZM159.956 127.273C158.865 127.273 157.902 126.997 157.067 126.446C156.232 125.889 155.578 125.105 155.107 124.094C154.635 123.077 154.399 121.875 154.399 120.489C154.399 119.114 154.635 117.92 155.107 116.909C155.578 115.898 156.234 115.116 157.075 114.565C157.916 114.014 158.888 113.739 159.99 113.739C160.842 113.739 161.516 113.881 162.01 114.165C162.51 114.443 162.891 114.761 163.152 115.119C163.419 115.472 163.626 115.761 163.774 115.989H163.945V109.545H165.956V127H164.013V124.989H163.774C163.626 125.227 163.416 125.528 163.143 125.892C162.871 126.25 162.482 126.571 161.976 126.855C161.47 127.134 160.797 127.273 159.956 127.273ZM160.229 125.466C161.036 125.466 161.717 125.256 162.274 124.835C162.831 124.409 163.254 123.821 163.544 123.071C163.834 122.315 163.979 121.443 163.979 120.455C163.979 119.477 163.837 118.622 163.553 117.889C163.268 117.151 162.848 116.577 162.291 116.168C161.734 115.753 161.047 115.545 160.229 115.545C159.376 115.545 158.666 115.764 158.098 116.202C157.536 116.634 157.112 117.222 156.828 117.966C156.55 118.705 156.411 119.534 156.411 120.455C156.411 121.386 156.553 122.233 156.837 122.994C157.126 123.75 157.553 124.352 158.115 124.801C158.683 125.244 159.388 125.466 160.229 125.466ZM175.237 127.273C174.055 127.273 173.018 126.991 172.126 126.429C171.24 125.866 170.547 125.08 170.047 124.068C169.553 123.057 169.305 121.875 169.305 120.523C169.305 119.159 169.553 117.969 170.047 116.952C170.547 115.935 171.24 115.145 172.126 114.582C173.018 114.02 174.055 113.739 175.237 113.739C176.419 113.739 177.453 114.02 178.339 114.582C179.232 115.145 179.925 115.935 180.419 116.952C180.919 117.969 181.169 119.159 181.169 120.523C181.169 121.875 180.919 123.057 180.419 124.068C179.925 125.08 179.232 125.866 178.339 126.429C177.453 126.991 176.419 127.273 175.237 127.273ZM175.237 125.466C176.135 125.466 176.874 125.236 177.453 124.776C178.033 124.315 178.462 123.71 178.74 122.96C179.018 122.21 179.158 121.398 179.158 120.523C179.158 119.648 179.018 118.832 178.74 118.077C178.462 117.321 178.033 116.71 177.453 116.244C176.874 115.778 176.135 115.545 175.237 115.545C174.339 115.545 173.601 115.778 173.021 116.244C172.442 116.71 172.013 117.321 171.734 118.077C171.456 118.832 171.317 119.648 171.317 120.523C171.317 121.398 171.456 122.21 171.734 122.96C172.013 123.71 172.442 124.315 173.021 124.776C173.601 125.236 174.339 125.466 175.237 125.466ZM28.2894 159V141.545H34.1871C35.5565 141.545 36.6758 141.793 37.5451 142.287C38.4201 142.776 39.0678 143.438 39.4883 144.273C39.9087 145.108 40.119 146.04 40.119 147.068C40.119 148.097 39.9087 149.031 39.4883 149.872C39.0735 150.713 38.4315 151.384 37.5621 151.884C36.6928 152.378 35.5792 152.625 34.2212 152.625H29.994V150.75H34.1531C35.0906 150.75 35.8434 150.588 36.4116 150.264C36.9798 149.94 37.3917 149.503 37.6474 148.952C37.9087 148.395 38.0394 147.767 38.0394 147.068C38.0394 146.369 37.9087 145.744 37.6474 145.193C37.3917 144.642 36.9769 144.21 36.4031 143.898C35.8292 143.58 35.0678 143.42 34.119 143.42H30.4031V159H28.2894ZM47.1033 159.307C46.2738 159.307 45.521 159.151 44.8448 158.838C44.1687 158.52 43.6317 158.062 43.234 157.466C42.8363 156.864 42.6374 156.136 42.6374 155.284C42.6374 154.534 42.7852 153.926 43.0806 153.46C43.3761 152.989 43.771 152.619 44.2653 152.352C44.7596 152.085 45.305 151.886 45.9016 151.756C46.5039 151.619 47.109 151.511 47.717 151.432C48.5124 151.33 49.1573 151.253 49.6516 151.202C50.1516 151.145 50.5153 151.051 50.7425 150.92C50.9755 150.79 51.092 150.562 51.092 150.239V150.17C51.092 149.33 50.8619 148.676 50.4016 148.21C49.9471 147.744 49.2567 147.511 48.3306 147.511C47.3704 147.511 46.6175 147.722 46.0721 148.142C45.5266 148.562 45.1431 149.011 44.9215 149.489L43.0124 148.807C43.3533 148.011 43.8079 147.392 44.3761 146.949C44.9499 146.5 45.5749 146.187 46.2511 146.011C46.9329 145.83 47.6033 145.739 48.2624 145.739C48.6829 145.739 49.1658 145.79 49.7113 145.892C50.2624 145.989 50.7937 146.19 51.305 146.497C51.8221 146.804 52.2511 147.267 52.592 147.886C52.9329 148.506 53.1033 149.335 53.1033 150.375V159H51.092V157.227H50.9897C50.8533 157.511 50.6261 157.815 50.3079 158.139C49.9897 158.463 49.5664 158.739 49.038 158.966C48.5096 159.193 47.8647 159.307 47.1033 159.307ZM47.4102 157.5C48.2056 157.5 48.8761 157.344 49.4215 157.031C49.9727 156.719 50.3874 156.315 50.6658 155.821C50.9499 155.327 51.092 154.807 51.092 154.261V152.42C51.0067 152.523 50.8192 152.616 50.5295 152.702C50.2454 152.781 49.9158 152.852 49.5408 152.915C49.1715 152.972 48.8107 153.023 48.4585 153.068C48.1119 153.108 47.8306 153.142 47.6147 153.17C47.092 153.239 46.6033 153.349 46.1488 153.503C45.6999 153.651 45.3363 153.875 45.0579 154.176C44.7852 154.472 44.6488 154.875 44.6488 155.386C44.6488 156.085 44.9073 156.614 45.4244 156.972C45.9471 157.324 46.609 157.5 47.4102 157.5ZM56.7745 159V145.909H58.7177V147.886H58.854C59.0927 147.239 59.5245 146.713 60.1495 146.31C60.7745 145.906 61.479 145.705 62.2631 145.705C62.4109 145.705 62.5955 145.707 62.8171 145.713C63.0387 145.719 63.2063 145.727 63.32 145.739V147.784C63.2518 147.767 63.0955 147.741 62.8512 147.707C62.6126 147.668 62.3597 147.648 62.0927 147.648C61.4563 147.648 60.8881 147.781 60.3881 148.048C59.8938 148.31 59.5018 148.673 59.212 149.139C58.9279 149.599 58.7859 150.125 58.7859 150.716V159H56.7745ZM70.7944 159.273C69.533 159.273 68.445 158.994 67.5302 158.438C66.6211 157.875 65.9194 157.091 65.4251 156.085C64.9364 155.074 64.6921 153.898 64.6921 152.557C64.6921 151.216 64.9364 150.034 65.4251 149.011C65.9194 147.983 66.6069 147.182 67.4876 146.608C68.3739 146.028 69.408 145.739 70.5898 145.739C71.2717 145.739 71.945 145.852 72.6097 146.08C73.2745 146.307 73.8796 146.676 74.4251 147.188C74.9705 147.693 75.4052 148.364 75.729 149.199C76.0529 150.034 76.2148 151.062 76.2148 152.284V153.136H66.1239V151.398H74.1694C74.1694 150.659 74.0217 150 73.7262 149.42C73.4364 148.841 73.0217 148.384 72.4819 148.048C71.9478 147.713 71.3171 147.545 70.5898 147.545C69.7887 147.545 69.0955 147.744 68.5103 148.142C67.9308 148.534 67.4847 149.045 67.1722 149.676C66.8597 150.307 66.7035 150.983 66.7035 151.705V152.864C66.7035 153.852 66.8739 154.69 67.2148 155.378C67.5614 156.06 68.0415 156.58 68.6552 156.938C69.2688 157.29 69.9819 157.466 70.7944 157.466C71.3228 157.466 71.8001 157.392 72.2262 157.244C72.658 157.091 73.0302 156.864 73.3427 156.562C73.6552 156.256 73.8967 155.875 74.0671 155.42L76.0103 155.966C75.8058 156.625 75.462 157.205 74.979 157.705C74.4961 158.199 73.8995 158.585 73.1893 158.864C72.479 159.136 71.6808 159.273 70.7944 159.273ZM84.5927 159.273C83.3654 159.273 82.3086 158.983 81.4222 158.403C80.5359 157.824 79.854 157.026 79.3768 156.009C78.8995 154.991 78.6609 153.83 78.6609 152.523C78.6609 151.193 78.9052 150.02 79.3938 149.003C79.8881 147.98 80.5756 147.182 81.4563 146.608C82.3427 146.028 83.3768 145.739 84.5586 145.739C85.479 145.739 86.3086 145.909 87.0472 146.25C87.7859 146.591 88.391 147.068 88.8626 147.682C89.3342 148.295 89.6268 149.011 89.7404 149.83H87.729C87.5756 149.233 87.2347 148.705 86.7063 148.244C86.1836 147.778 85.479 147.545 84.5927 147.545C83.8086 147.545 83.1211 147.75 82.5302 148.159C81.945 148.562 81.4876 149.134 81.158 149.872C80.8342 150.605 80.6722 151.466 80.6722 152.455C80.6722 153.466 80.8313 154.347 81.1495 155.097C81.4734 155.847 81.9279 156.429 82.5131 156.844C83.104 157.259 83.7972 157.466 84.5927 157.466C85.1154 157.466 85.5898 157.375 86.016 157.193C86.4421 157.011 86.8029 156.75 87.0984 156.409C87.3938 156.068 87.604 155.659 87.729 155.182H89.7404C89.6268 155.955 89.3455 156.651 88.8967 157.27C88.4535 157.884 87.8654 158.372 87.1325 158.736C86.4052 159.094 85.5586 159.273 84.5927 159.273ZM98.1694 159.273C96.908 159.273 95.82 158.994 94.9052 158.438C93.9961 157.875 93.2944 157.091 92.8001 156.085C92.3114 155.074 92.0671 153.898 92.0671 152.557C92.0671 151.216 92.3114 150.034 92.8001 149.011C93.2944 147.983 93.9819 147.182 94.8626 146.608C95.7489 146.028 96.783 145.739 97.9648 145.739C98.6467 145.739 99.32 145.852 99.9847 146.08C100.65 146.307 101.255 146.676 101.8 147.188C102.346 147.693 102.78 148.364 103.104 149.199C103.428 150.034 103.59 151.062 103.59 152.284V153.136H93.4989V151.398H101.544C101.544 150.659 101.397 150 101.101 149.42C100.811 148.841 100.397 148.384 99.8569 148.048C99.3228 147.713 98.6921 147.545 97.9648 147.545C97.1637 147.545 96.4705 147.744 95.8853 148.142C95.3058 148.534 94.8597 149.045 94.5472 149.676C94.2347 150.307 94.0785 150.983 94.0785 151.705V152.864C94.0785 153.852 94.2489 154.69 94.5898 155.378C94.9364 156.06 95.4165 156.58 96.0302 156.938C96.6438 157.29 97.3569 157.466 98.1694 157.466C98.6978 157.466 99.1751 157.392 99.6012 157.244C100.033 157.091 100.405 156.864 100.718 156.562C101.03 156.256 101.272 155.875 101.442 155.42L103.385 155.966C103.181 156.625 102.837 157.205 102.354 157.705C101.871 158.199 101.275 158.585 100.564 158.864C99.854 159.136 99.0558 159.273 98.1694 159.273ZM106.65 159V145.909H108.593V147.886H108.729C108.968 147.239 109.4 146.713 110.025 146.31C110.65 145.906 111.354 145.705 112.138 145.705C112.286 145.705 112.471 145.707 112.692 145.713C112.914 145.719 113.081 145.727 113.195 145.739V147.784C113.127 147.767 112.971 147.741 112.726 147.707C112.488 147.668 112.235 147.648 111.968 147.648C111.331 147.648 110.763 147.781 110.263 148.048C109.769 148.31 109.377 148.673 109.087 149.139C108.803 149.599 108.661 150.125 108.661 150.716V159H106.65ZM121.647 143.42V141.545H134.738V143.42H129.25V159H127.136V143.42H121.647ZM141.318 159.273C140.056 159.273 138.968 158.994 138.054 158.438C137.145 157.875 136.443 157.091 135.949 156.085C135.46 155.074 135.216 153.898 135.216 152.557C135.216 151.216 135.46 150.034 135.949 149.011C136.443 147.983 137.13 147.182 138.011 146.608C138.897 146.028 139.931 145.739 141.113 145.739C141.795 145.739 142.468 145.852 143.133 146.08C143.798 146.307 144.403 146.676 144.949 147.188C145.494 147.693 145.929 148.364 146.252 149.199C146.576 150.034 146.738 151.062 146.738 152.284V153.136H136.647V151.398H144.693C144.693 150.659 144.545 150 144.25 149.42C143.96 148.841 143.545 148.384 143.005 148.048C142.471 147.713 141.841 147.545 141.113 147.545C140.312 147.545 139.619 147.744 139.034 148.142C138.454 148.534 138.008 149.045 137.696 149.676C137.383 150.307 137.227 150.983 137.227 151.705V152.864C137.227 153.852 137.397 154.69 137.738 155.378C138.085 156.06 138.565 156.58 139.179 156.938C139.792 157.29 140.505 157.466 141.318 157.466C141.846 157.466 142.324 157.392 142.75 157.244C143.181 157.091 143.554 156.864 143.866 156.562C144.179 156.256 144.42 155.875 144.591 155.42L146.534 155.966C146.329 156.625 145.985 157.205 145.502 157.705C145.02 158.199 144.423 158.585 143.713 158.864C143.002 159.136 142.204 159.273 141.318 159.273ZM140.091 144.136L142.17 140.182H144.522L141.863 144.136H140.091ZM155.116 159.273C153.889 159.273 152.832 158.983 151.946 158.403C151.059 157.824 150.377 157.026 149.9 156.009C149.423 154.991 149.184 153.83 149.184 152.523C149.184 151.193 149.429 150.02 149.917 149.003C150.412 147.98 151.099 147.182 151.98 146.608C152.866 146.028 153.9 145.739 155.082 145.739C156.002 145.739 156.832 145.909 157.571 146.25C158.309 146.591 158.914 147.068 159.386 147.682C159.858 148.295 160.15 149.011 160.264 149.83H158.252C158.099 149.233 157.758 148.705 157.23 148.244C156.707 147.778 156.002 147.545 155.116 147.545C154.332 147.545 153.645 147.75 153.054 148.159C152.468 148.562 152.011 149.134 151.681 149.872C151.358 150.605 151.196 151.466 151.196 152.455C151.196 153.466 151.355 154.347 151.673 155.097C151.997 155.847 152.451 156.429 153.037 156.844C153.627 157.259 154.321 157.466 155.116 157.466C155.639 157.466 156.113 157.375 156.539 157.193C156.966 157.011 157.326 156.75 157.622 156.409C157.917 156.068 158.127 155.659 158.252 155.182H160.264C160.15 155.955 159.869 156.651 159.42 157.27C158.977 157.884 158.389 158.372 157.656 158.736C156.929 159.094 156.082 159.273 155.116 159.273ZM165.216 151.125V159H163.204V145.909H165.147V147.955H165.318C165.625 147.29 166.091 146.756 166.716 146.352C167.341 145.943 168.147 145.739 169.136 145.739C170.022 145.739 170.798 145.92 171.463 146.284C172.127 146.642 172.645 147.188 173.014 147.92C173.383 148.648 173.568 149.568 173.568 150.682V159H171.556V150.818C171.556 149.79 171.289 148.989 170.755 148.415C170.221 147.835 169.488 147.545 168.556 147.545C167.914 147.545 167.341 147.685 166.835 147.963C166.335 148.241 165.94 148.648 165.65 149.182C165.36 149.716 165.216 150.364 165.216 151.125ZM177.243 159V145.909H179.255V159H177.243ZM178.266 143.727C177.874 143.727 177.536 143.594 177.252 143.327C176.973 143.06 176.834 142.739 176.834 142.364C176.834 141.989 176.973 141.668 177.252 141.401C177.536 141.134 177.874 141 178.266 141C178.658 141 178.993 141.134 179.272 141.401C179.556 141.668 179.698 141.989 179.698 142.364C179.698 142.739 179.556 143.06 179.272 143.327C178.993 143.594 178.658 143.727 178.266 143.727ZM188.257 159.273C187.029 159.273 185.973 158.983 185.086 158.403C184.2 157.824 183.518 157.026 183.041 156.009C182.564 154.991 182.325 153.83 182.325 152.523C182.325 151.193 182.569 150.02 183.058 149.003C183.552 147.98 184.24 147.182 185.12 146.608C186.007 146.028 187.041 145.739 188.223 145.739C189.143 145.739 189.973 145.909 190.711 146.25C191.45 146.591 192.055 147.068 192.527 147.682C192.998 148.295 193.291 149.011 193.404 149.83H191.393C191.24 149.233 190.899 148.705 190.37 148.244C189.848 147.778 189.143 147.545 188.257 147.545C187.473 147.545 186.785 147.75 186.194 148.159C185.609 148.562 185.152 149.134 184.822 149.872C184.498 150.605 184.336 151.466 184.336 152.455C184.336 153.466 184.495 154.347 184.814 155.097C185.137 155.847 185.592 156.429 186.177 156.844C186.768 157.259 187.461 157.466 188.257 157.466C188.779 157.466 189.254 157.375 189.68 157.193C190.106 157.011 190.467 156.75 190.762 156.409C191.058 156.068 191.268 155.659 191.393 155.182H193.404C193.291 155.955 193.01 156.651 192.561 157.27C192.118 157.884 191.529 158.372 190.797 158.736C190.069 159.094 189.223 159.273 188.257 159.273ZM201.663 159.273C200.481 159.273 199.444 158.991 198.552 158.429C197.666 157.866 196.973 157.08 196.473 156.068C195.978 155.057 195.731 153.875 195.731 152.523C195.731 151.159 195.978 149.969 196.473 148.952C196.973 147.935 197.666 147.145 198.552 146.582C199.444 146.02 200.481 145.739 201.663 145.739C202.845 145.739 203.879 146.02 204.765 146.582C205.657 147.145 206.35 147.935 206.845 148.952C207.345 149.969 207.595 151.159 207.595 152.523C207.595 153.875 207.345 155.057 206.845 156.068C206.35 157.08 205.657 157.866 204.765 158.429C203.879 158.991 202.845 159.273 201.663 159.273ZM201.663 157.466C202.561 157.466 203.299 157.236 203.879 156.776C204.458 156.315 204.887 155.71 205.166 154.96C205.444 154.21 205.583 153.398 205.583 152.523C205.583 151.648 205.444 150.832 205.166 150.077C204.887 149.321 204.458 148.71 203.879 148.244C203.299 147.778 202.561 147.545 201.663 147.545C200.765 147.545 200.027 147.778 199.447 148.244C198.868 148.71 198.439 149.321 198.16 150.077C197.882 150.832 197.743 151.648 197.743 152.523C197.743 153.398 197.882 154.21 198.16 154.96C198.439 155.71 198.868 156.315 199.447 156.776C200.027 157.236 200.765 157.466 201.663 157.466Z" fill="#F7F4EF"/>
</svg>
