<svg width="235" height="236" viewBox="0 0 235 236" fill="none" xmlns="http://www.w3.org/2000/svg">
<rect x="0.999985" y="1.5" width="233" height="233" rx="116.5" fill="#171B26"/>
<rect x="0.999985" y="1.5" width="233" height="233" rx="116.5" stroke="#EBD2B0" stroke-width="2"/>
<path d="M117.532 77.5455V95H113.842V81.0483H113.739L109.742 83.554V80.2812L114.063 77.5455H117.532ZM122.899 95.2216C122.337 95.2216 121.854 95.0227 121.45 94.625C121.053 94.2216 120.854 93.7386 120.854 93.1761C120.854 92.6193 121.053 92.142 121.45 91.7443C121.854 91.3466 122.337 91.1477 122.899 91.1477C123.445 91.1477 123.922 91.3466 124.331 91.7443C124.74 92.142 124.945 92.6193 124.945 93.1761C124.945 93.5511 124.848 93.8949 124.655 94.2074C124.467 94.5142 124.22 94.7614 123.913 94.9489C123.607 95.1307 123.268 95.2216 122.899 95.2216Z" fill="#EBD2B0"/>
<path d="M61.5014 127H59.2855L65.6946 109.545H67.8764L74.2855 127H72.0696L66.8537 112.307H66.7173L61.5014 127ZM62.3196 120.182H71.2514V122.057H62.3196V120.182ZM78.7429 119.125V127H76.7315V113.909H78.6747V115.955H78.8452C79.152 115.29 79.6179 114.756 80.2429 114.352C80.8679 113.943 81.6747 113.739 82.6634 113.739C83.5497 113.739 84.3253 113.92 84.9901 114.284C85.6548 114.642 86.1719 115.188 86.5412 115.92C86.9105 116.648 87.0952 117.568 87.0952 118.682V127H85.0838V118.818C85.0838 117.79 84.8168 116.989 84.2827 116.415C83.7486 115.835 83.0156 115.545 82.0838 115.545C81.4418 115.545 80.8679 115.685 80.3622 115.963C79.8622 116.241 79.4673 116.648 79.1776 117.182C78.8878 117.716 78.7429 118.364 78.7429 119.125ZM94.6229 127.307C93.7933 127.307 93.0405 127.151 92.3643 126.838C91.6882 126.52 91.1513 126.062 90.7536 125.466C90.3558 124.864 90.157 124.136 90.157 123.284C90.157 122.534 90.3047 121.926 90.6001 121.46C90.8956 120.989 91.2905 120.619 91.7848 120.352C92.2791 120.085 92.8246 119.886 93.4212 119.756C94.0234 119.619 94.6286 119.511 95.2365 119.432C96.032 119.33 96.6768 119.253 97.1712 119.202C97.6712 119.145 98.0348 119.051 98.2621 118.92C98.495 118.79 98.6115 118.562 98.6115 118.239V118.17C98.6115 117.33 98.3814 116.676 97.9212 116.21C97.4666 115.744 96.7763 115.511 95.8501 115.511C94.8899 115.511 94.1371 115.722 93.5916 116.142C93.0462 116.562 92.6626 117.011 92.4411 117.489L90.532 116.807C90.8729 116.011 91.3274 115.392 91.8956 114.949C92.4695 114.5 93.0945 114.187 93.7706 114.011C94.4524 113.83 95.1229 113.739 95.782 113.739C96.2024 113.739 96.6854 113.79 97.2308 113.892C97.782 113.989 98.3132 114.19 98.8246 114.497C99.3416 114.804 99.7706 115.267 100.112 115.886C100.452 116.506 100.623 117.335 100.623 118.375V127H98.6115V125.227H98.5092C98.3729 125.511 98.1456 125.815 97.8274 126.139C97.5092 126.463 97.0859 126.739 96.5575 126.966C96.0291 127.193 95.3842 127.307 94.6229 127.307ZM94.9297 125.5C95.7251 125.5 96.3956 125.344 96.9411 125.031C97.4922 124.719 97.907 124.315 98.1854 123.821C98.4695 123.327 98.6115 122.807 98.6115 122.261V120.42C98.5263 120.523 98.3388 120.616 98.049 120.702C97.7649 120.781 97.4354 120.852 97.0604 120.915C96.6911 120.972 96.3303 121.023 95.978 121.068C95.6314 121.108 95.3501 121.142 95.1342 121.17C94.6115 121.239 94.1229 121.349 93.6683 121.503C93.2195 121.651 92.8558 121.875 92.5774 122.176C92.3047 122.472 92.1683 122.875 92.1683 123.386C92.1683 124.085 92.4268 124.614 92.9439 124.972C93.4666 125.324 94.1286 125.5 94.9297 125.5ZM94.9979 112.136L97.0774 108.182H99.4297L96.7706 112.136H94.9979ZM106.305 109.545V127H104.294V109.545H106.305ZM109.989 127V113.909H112.001V127H109.989ZM111.012 111.727C110.62 111.727 110.282 111.594 109.998 111.327C109.719 111.06 109.58 110.739 109.58 110.364C109.58 109.989 109.719 109.668 109.998 109.401C110.282 109.134 110.62 109 111.012 109C111.404 109 111.739 109.134 112.018 109.401C112.302 109.668 112.444 109.989 112.444 110.364C112.444 110.739 112.302 111.06 112.018 111.327C111.739 111.594 111.404 111.727 111.012 111.727ZM124.957 116.841L123.151 117.352C123.037 117.051 122.869 116.759 122.648 116.474C122.432 116.185 122.136 115.946 121.761 115.759C121.386 115.571 120.906 115.477 120.321 115.477C119.52 115.477 118.852 115.662 118.318 116.031C117.79 116.395 117.526 116.858 117.526 117.42C117.526 117.92 117.707 118.315 118.071 118.605C118.435 118.895 119.003 119.136 119.776 119.33L121.719 119.807C122.889 120.091 123.761 120.526 124.335 121.111C124.909 121.69 125.196 122.437 125.196 123.352C125.196 124.102 124.98 124.773 124.548 125.364C124.122 125.955 123.526 126.42 122.759 126.761C121.991 127.102 121.099 127.273 120.082 127.273C118.747 127.273 117.642 126.983 116.767 126.403C115.892 125.824 115.338 124.977 115.105 123.864L117.014 123.386C117.196 124.091 117.54 124.619 118.045 124.972C118.557 125.324 119.224 125.5 120.048 125.5C120.986 125.5 121.73 125.301 122.281 124.903C122.838 124.5 123.116 124.017 123.116 123.455C123.116 123 122.957 122.619 122.639 122.312C122.321 122 121.832 121.767 121.173 121.614L118.991 121.102C117.793 120.818 116.912 120.378 116.349 119.781C115.793 119.179 115.514 118.426 115.514 117.523C115.514 116.784 115.722 116.131 116.136 115.562C116.557 114.994 117.128 114.548 117.849 114.224C118.577 113.901 119.401 113.739 120.321 113.739C121.616 113.739 122.634 114.023 123.372 114.591C124.116 115.159 124.645 115.909 124.957 116.841ZM133.712 127.273C132.451 127.273 131.363 126.994 130.448 126.438C129.539 125.875 128.837 125.091 128.343 124.085C127.854 123.074 127.61 121.898 127.61 120.557C127.61 119.216 127.854 118.034 128.343 117.011C128.837 115.983 129.525 115.182 130.406 114.608C131.292 114.028 132.326 113.739 133.508 113.739C134.19 113.739 134.863 113.852 135.528 114.08C136.192 114.307 136.798 114.676 137.343 115.188C137.888 115.693 138.323 116.364 138.647 117.199C138.971 118.034 139.133 119.062 139.133 120.284V121.136H129.042V119.398H137.087C137.087 118.659 136.94 118 136.644 117.42C136.354 116.841 135.94 116.384 135.4 116.048C134.866 115.713 134.235 115.545 133.508 115.545C132.707 115.545 132.013 115.744 131.428 116.142C130.849 116.534 130.403 117.045 130.09 117.676C129.778 118.307 129.621 118.983 129.621 119.705V120.864C129.621 121.852 129.792 122.69 130.133 123.378C130.479 124.06 130.96 124.58 131.573 124.938C132.187 125.29 132.9 125.466 133.712 125.466C134.241 125.466 134.718 125.392 135.144 125.244C135.576 125.091 135.948 124.864 136.261 124.562C136.573 124.256 136.815 123.875 136.985 123.42L138.928 123.966C138.724 124.625 138.38 125.205 137.897 125.705C137.414 126.199 136.817 126.585 136.107 126.864C135.397 127.136 134.599 127.273 133.712 127.273ZM153.886 127.273C152.795 127.273 151.832 126.997 150.996 126.446C150.161 125.889 149.508 125.105 149.036 124.094C148.565 123.077 148.329 121.875 148.329 120.489C148.329 119.114 148.565 117.92 149.036 116.909C149.508 115.898 150.164 115.116 151.005 114.565C151.846 114.014 152.817 113.739 153.92 113.739C154.772 113.739 155.445 113.881 155.94 114.165C156.44 114.443 156.82 114.761 157.082 115.119C157.349 115.472 157.556 115.761 157.704 115.989H157.874V109.545H159.886V127H157.942V124.989H157.704C157.556 125.227 157.346 125.528 157.073 125.892C156.8 126.25 156.411 126.571 155.906 126.855C155.4 127.134 154.727 127.273 153.886 127.273ZM154.158 125.466C154.965 125.466 155.647 125.256 156.204 124.835C156.761 124.409 157.184 123.821 157.474 123.071C157.763 122.315 157.908 121.443 157.908 120.455C157.908 119.477 157.766 118.622 157.482 117.889C157.198 117.151 156.778 116.577 156.221 116.168C155.664 115.753 154.977 115.545 154.158 115.545C153.306 115.545 152.596 115.764 152.028 116.202C151.465 116.634 151.042 117.222 150.758 117.966C150.479 118.705 150.34 119.534 150.34 120.455C150.34 121.386 150.482 122.233 150.766 122.994C151.056 123.75 151.482 124.352 152.045 124.801C152.613 125.244 153.317 125.466 154.158 125.466ZM169.167 127.273C167.985 127.273 166.948 126.991 166.056 126.429C165.17 125.866 164.477 125.08 163.977 124.068C163.482 123.057 163.235 121.875 163.235 120.523C163.235 119.159 163.482 117.969 163.977 116.952C164.477 115.935 165.17 115.145 166.056 114.582C166.948 114.02 167.985 113.739 169.167 113.739C170.349 113.739 171.383 114.02 172.269 114.582C173.161 115.145 173.854 115.935 174.349 116.952C174.849 117.969 175.099 119.159 175.099 120.523C175.099 121.875 174.849 123.057 174.349 124.068C173.854 125.08 173.161 125.866 172.269 126.429C171.383 126.991 170.349 127.273 169.167 127.273ZM169.167 125.466C170.065 125.466 170.803 125.236 171.383 124.776C171.962 124.315 172.391 123.71 172.67 122.96C172.948 122.21 173.087 121.398 173.087 120.523C173.087 119.648 172.948 118.832 172.67 118.077C172.391 117.321 171.962 116.71 171.383 116.244C170.803 115.778 170.065 115.545 169.167 115.545C168.269 115.545 167.531 115.778 166.951 116.244C166.371 116.71 165.942 117.321 165.664 118.077C165.386 118.832 165.246 119.648 165.246 120.523C165.246 121.398 165.386 122.21 165.664 122.96C165.942 123.71 166.371 124.315 166.951 124.776C167.531 125.236 168.269 125.466 169.167 125.466ZM104.737 147H102.624C102.499 146.392 102.28 145.858 101.967 145.398C101.661 144.938 101.286 144.551 100.842 144.239C100.405 143.92 99.919 143.682 99.3849 143.523C98.8509 143.364 98.294 143.284 97.7145 143.284C96.6577 143.284 95.7003 143.551 94.8423 144.085C93.9901 144.619 93.3111 145.406 92.8054 146.446C92.3054 147.486 92.0554 148.761 92.0554 150.273C92.0554 151.784 92.3054 153.06 92.8054 154.099C93.3111 155.139 93.9901 155.926 94.8423 156.46C95.7003 156.994 96.6577 157.261 97.7145 157.261C98.294 157.261 98.8509 157.182 99.3849 157.023C99.919 156.864 100.405 156.628 100.842 156.315C101.286 155.997 101.661 155.608 101.967 155.148C102.28 154.682 102.499 154.148 102.624 153.545H104.737C104.578 154.437 104.288 155.236 103.868 155.94C103.447 156.645 102.925 157.244 102.3 157.739C101.675 158.227 100.973 158.599 100.195 158.855C99.4219 159.111 98.5952 159.239 97.7145 159.239C96.2259 159.239 94.902 158.875 93.7429 158.148C92.5838 157.42 91.6719 156.386 91.0071 155.045C90.3423 153.705 90.0099 152.114 90.0099 150.273C90.0099 148.432 90.3423 146.841 91.0071 145.5C91.6719 144.159 92.5838 143.125 93.7429 142.398C94.902 141.67 96.2259 141.307 97.7145 141.307C98.5952 141.307 99.4219 141.435 100.195 141.69C100.973 141.946 101.675 142.321 102.3 142.815C102.925 143.304 103.447 143.901 103.868 144.605C104.288 145.304 104.578 146.102 104.737 147ZM111.732 159.307C110.903 159.307 110.15 159.151 109.474 158.838C108.798 158.52 108.261 158.062 107.863 157.466C107.465 156.864 107.266 156.136 107.266 155.284C107.266 154.534 107.414 153.926 107.71 153.46C108.005 152.989 108.4 152.619 108.894 152.352C109.388 152.085 109.934 151.886 110.531 151.756C111.133 151.619 111.738 151.511 112.346 151.432C113.141 151.33 113.786 151.253 114.281 151.202C114.781 151.145 115.144 151.051 115.371 150.92C115.604 150.79 115.721 150.562 115.721 150.239V150.17C115.721 149.33 115.491 148.676 115.031 148.21C114.576 147.744 113.886 147.511 112.96 147.511C111.999 147.511 111.246 147.722 110.701 148.142C110.156 148.562 109.772 149.011 109.55 149.489L107.641 148.807C107.982 148.011 108.437 147.392 109.005 146.949C109.579 146.5 110.204 146.187 110.88 146.011C111.562 145.83 112.232 145.739 112.891 145.739C113.312 145.739 113.795 145.79 114.34 145.892C114.891 145.989 115.423 146.19 115.934 146.497C116.451 146.804 116.88 147.267 117.221 147.886C117.562 148.506 117.732 149.335 117.732 150.375V159H115.721V157.227H115.619C115.482 157.511 115.255 157.815 114.937 158.139C114.619 158.463 114.195 158.739 113.667 158.966C113.138 159.193 112.494 159.307 111.732 159.307ZM112.039 157.5C112.835 157.5 113.505 157.344 114.05 157.031C114.602 156.719 115.016 156.315 115.295 155.821C115.579 155.327 115.721 154.807 115.721 154.261V152.42C115.636 152.523 115.448 152.616 115.158 152.702C114.874 152.781 114.545 152.852 114.17 152.915C113.8 152.972 113.44 153.023 113.087 153.068C112.741 153.108 112.46 153.142 112.244 153.17C111.721 153.239 111.232 153.349 110.778 153.503C110.329 153.651 109.965 153.875 109.687 154.176C109.414 154.472 109.278 154.875 109.278 155.386C109.278 156.085 109.536 156.614 110.053 156.972C110.576 157.324 111.238 157.5 112.039 157.5ZM130.676 148.841L128.869 149.352C128.756 149.051 128.588 148.759 128.366 148.474C128.151 148.185 127.855 147.946 127.48 147.759C127.105 147.571 126.625 147.477 126.04 147.477C125.239 147.477 124.571 147.662 124.037 148.031C123.509 148.395 123.244 148.858 123.244 149.42C123.244 149.92 123.426 150.315 123.79 150.605C124.153 150.895 124.722 151.136 125.494 151.33L127.438 151.807C128.608 152.091 129.48 152.526 130.054 153.111C130.628 153.69 130.915 154.437 130.915 155.352C130.915 156.102 130.699 156.773 130.267 157.364C129.841 157.955 129.244 158.42 128.477 158.761C127.71 159.102 126.818 159.273 125.801 159.273C124.466 159.273 123.361 158.983 122.486 158.403C121.611 157.824 121.057 156.977 120.824 155.864L122.733 155.386C122.915 156.091 123.259 156.619 123.764 156.972C124.276 157.324 124.943 157.5 125.767 157.5C126.705 157.5 127.449 157.301 128 156.903C128.557 156.5 128.835 156.017 128.835 155.455C128.835 155 128.676 154.619 128.358 154.312C128.04 154 127.551 153.767 126.892 153.614L124.71 153.102C123.511 152.818 122.631 152.378 122.068 151.781C121.511 151.179 121.233 150.426 121.233 149.523C121.233 148.784 121.44 148.131 121.855 147.562C122.276 146.994 122.847 146.548 123.568 146.224C124.295 145.901 125.119 145.739 126.04 145.739C127.335 145.739 128.352 146.023 129.091 146.591C129.835 147.159 130.364 147.909 130.676 148.841ZM139.261 159.273C138.079 159.273 137.042 158.991 136.15 158.429C135.263 157.866 134.57 157.08 134.07 156.068C133.576 155.057 133.329 153.875 133.329 152.523C133.329 151.159 133.576 149.969 134.07 148.952C134.57 147.935 135.263 147.145 136.15 146.582C137.042 146.02 138.079 145.739 139.261 145.739C140.442 145.739 141.477 146.02 142.363 146.582C143.255 147.145 143.948 147.935 144.442 148.952C144.942 149.969 145.192 151.159 145.192 152.523C145.192 153.875 144.942 155.057 144.442 156.068C143.948 157.08 143.255 157.866 142.363 158.429C141.477 158.991 140.442 159.273 139.261 159.273ZM139.261 157.466C140.158 157.466 140.897 157.236 141.477 156.776C142.056 156.315 142.485 155.71 142.763 154.96C143.042 154.21 143.181 153.398 143.181 152.523C143.181 151.648 143.042 150.832 142.763 150.077C142.485 149.321 142.056 148.71 141.477 148.244C140.897 147.778 140.158 147.545 139.261 147.545C138.363 147.545 137.624 147.778 137.045 148.244C136.465 148.71 136.036 149.321 135.758 150.077C135.479 150.832 135.34 151.648 135.34 152.523C135.34 153.398 135.479 154.21 135.758 154.96C136.036 155.71 136.465 156.315 137.045 156.776C137.624 157.236 138.363 157.466 139.261 157.466Z" fill="#F7F4EF"/>
</svg>
